<svg xmlns="http://www.w3.org/2000/svg" xmlns:xlink="http://www.w3.org/1999/xlink" version="1.1" x="0px" y="0px" viewBox="0 0 202.807 496.992" enable-background="new 0 0 202.807 496.992" xml:space="preserve" style="fill: rgb(0, 0, 0);" original_string_length="13089">
<g id="__id117_sa1fmvo57g">
	<g>
		<path d="M200.945,241.709c10.235,6.513-25.006,35.298-33.237,40.194c-30.964,18.425-42.131-9.488-59.809-4.837    l-25.122-70.715c2.791-17.679,36.287-15.818,49.314-13.026c21.008,4.567,63.224,26.842,70.715,49.314    c-12.095,1.861-27.759-2.208-35.203-9.651c-10.234-8.374-8.528-19.193-21.556-23.846c-22.331-7.443-40.009-1.86-62.339-1.86    c-0.931-3.723,0-5.583,1.86-7.444" style="fill: rgb(244, 213, 205);"/>
	</g>
	<g>
		<path d="M53.934,201.7c13.956-9.304,26.052,9.305,28.844,21.401c4.653,19.539,9.305,38.208,26.982,51.234    C53.934,278.928,60.447,220.308,53.934,201.7" style="fill: rgb(244, 213, 205);"/>
	</g>
</g>
<g id="__id118_sa1fmvo57g">
	<g>
		<g>
			<path d="M117.205,58.409c25.121-10.235,26.982,15.818,25.121,36.288c-0.931,14.887-4.65,20.47-17.677,27.913     c-7.444,4.652-22.332,13.958-30.707,14.887c-27.914,5.583-17.678-35.357-28.845-51.174c-1.86-1.861,1.862,1.86,0,0" style="fill: rgb(255, 233, 213);"/>
		</g>
		<g>
			<path d="M38.116,78.879c-8.375-2.792-16.749-12.096-26.054-11.166C1.828,68.644-1.894,79.81,0.897,90.045     c2.792,11.166,13.957,17.678,23.262,23.261c13.026,8.375,41.871,45.592,48.383,14.887c1.862-11.166-9.214-19.911-7.444-29.774     C68.355,80.275,50.211,82.601,38.116,78.879" style="fill: rgb(255, 233, 213);"/>
		</g>
	</g>
	<g>
		<path d="M84.638,210.074c-0.93-20.471,57.688-4.652,67.923,0.931c41.871,21.4-13.027,66.062-44.662,66.062    c0.932-17.678-9.305-17.678-16.749-32.566C86.5,235.195,85.568,220.308,84.638,210.074" style="fill: rgb(255, 233, 213);"/>
	</g>
</g>
<g>
	<path d="M121.95,58.746c8.754-3.395,17.594-3.287,22.098,6.048c3.669,7.604,3.357,17.15,2.921,25.365   c-0.503,9.479-1.285,18.837-8.528,25.707c-3.521,3.34-7.961,5.608-12.054,8.148c-4.224,2.622-8.508,5.138-12.899,7.469   c-7.406,3.929-17.746,8.73-26.103,4.796c-6.151-2.896-8.03-10.873-9.248-16.898c-1.42-7.027-1.966-14.199-3.442-21.219   c-0.616-2.93-1.479-5.793-2.678-8.538c-0.493-1.129-1.137-2.665-2.02-3.547c-0.749-0.749-1.013-0.027-0.493,0.493   c0.52,0.52,1.243,0.255,0.493-0.493c-0.318-0.318-0.812,0.175-0.493,0.493c0.174,0.175,0.349,0.349,0.523,0.523   c0.319,0.318,0.812-0.175,0.494-0.494c-0.349-0.349-0.698-0.698-1.047-1.046c-0.319-0.318-0.812,0.175-0.494,0.493   c5.091,5.099,5.705,15.196,6.671,21.907c1.054,7.317,1.776,14.94,4.885,21.738c7.608,16.638,28.713,5.175,39.533-1.06   c7.741-4.462,16.91-8.867,22.352-16.186c5.237-7.042,5.117-17.397,5.396-25.75c0.442-13.262-1.877-33.488-19.764-30.547   c-2.165,0.356-4.253,1.134-6.289,1.923C121.35,58.233,121.53,58.909,121.95,58.746L121.95,58.746z" style="fill: inherit;"/>
</g>
<g>
	<path d="M40.069,78.542c-9.806-3.634-18.571-14.19-29.911-10.304c-8.209,2.813-9.425,13.333-8.063,20.56   c2.017,10.703,11.544,17.334,20.192,22.665c7.344,4.526,13.376,10.334,19.828,16.02c7.522,6.628,23.943,21.211,30.895,6.397   c4.67-9.952-1.043-18.006-4.624-27.121c-2.992-7.614,2.234-16.303-5.428-22C56.725,80.123,47.274,80.645,40.069,78.542   c-0.433-0.126-0.617,0.547-0.186,0.673c7.207,2.103,15.338,1.945,21.997,5.678c4.98,2.792,5.53,8.319,4.743,13.432   c-0.527,3.424,0.235,6.735,1.591,9.891c4.037,9.39,10.11,20.491,1.448,29.47c-5.329,5.524-14.231-0.669-18.883-4.028   c-6.476-4.675-12.181-10.36-18.175-15.615c-6.332-5.55-13.966-9.115-20.412-14.522c-8.881-7.45-14.557-22.538-5.558-32.183   c9.631-10.323,23.967,4.437,33.249,7.876C40.307,79.372,40.487,78.697,40.069,78.542L40.069,78.542z" style="fill: inherit;"/>
</g>
<g id="__id119_sa1fmvo57g">
	<g>
		<path d="M54.863,81.67C28.811,49.104,44.629-3.932,91.151,14.677c16.749,6.513,47.456,24.192,41.872,46.522    c-4.653,17.679-41.872,27.914-57.689,27.914c-11.165,0-14.887-1.86-23.262-10.235" style="fill: rgb(244, 213, 205);"/>
	</g>
	<g>
		<path d="M70.682,13.748c0.93-35.357-56.758,9.304-63.271,23.261C-3.755,62.13,14.106,71.062,35.324,81.67    c40.941,20.47,36.288-18.609,36.288-40.01c0-10.235-1.861-21.4-1.861-31.636" style="fill: rgb(244, 213, 205);"/>
	</g>
</g>
<g id="__id120_sa1fmvo57g">
	<g>
		<path d="M42.768,92.959c-4.53-0.716-8.374-2.123-12.096,8.489c-8.375,23.349,38.029,18.444,51.056,21.628    c9.305,1.061,47.573,17.64,31.755-4.648c-6.513-9.551-33.497-29.183-41.871-30.245c-13.957-2.122,6.513,3.445-5.583-1.86    C63.238,85.261,46.49,92.959,42.768,92.959" style="fill: rgb(244, 0, 2);"/>
	</g>
</g>
<g>
	<path d="M55.11,79.563c-11.647-14.871-16.691-36.337-8.241-53.936c3.678-7.661,10.349-13.225,18.542-15.41   c10.23-2.728,20.934,0.747,30.259,4.868c16.137,7.131,46.33,25.595,35.758,47.407c-4.362,9-15.537,14.092-24.309,17.552   c-9.031,3.563-18.787,5.969-28.472,6.733c-4.448,0.351-9.085,0.197-13.409-0.928c-5.197-1.352-9.225-5.426-12.92-9.078   c-0.32-0.317-0.813,0.177-0.493,0.493c3.368,3.329,6.773,6.564,11.14,8.522c4.034,1.808,8.824,1.852,13.15,1.808   c8.558-0.087,17.238-2.261,25.346-4.814c13.786-4.341,35.044-13.644,32.406-31.538C131.09,32.401,109.89,20.437,94.08,13.635   c-14.517-6.245-31.875-8.051-43.32,4.828c-15.25,17.161-8.995,45.188,3.856,61.594C54.894,80.411,55.384,79.913,55.11,79.563   L55.11,79.563z" style="fill: inherit;"/>
</g>
<g>
	<path d="M70.1,13.748c0.055-4.76-0.727-10.073-5.285-12.573c-4.311-2.364-10.111-0.677-14.379,0.841   C36.633,6.923,23.841,17.058,13.623,27.352C3.349,37.702-1.917,54.002,7.3,66.854c5.106,7.121,13.726,11.099,21.813,13.72   c8.986,2.913,20.038,5.361,29.535,3.834c11.216-1.803,14.44-10.269,14.124-20.667c-0.545-17.913-3.419-35.763-3.602-53.717   c-0.005-0.45-0.703-0.45-0.698,0c0.077,7.496,0.902,14.943,1.473,22.411c0.387,5.058,0.268,10.129,0.67,15.184   c0.504,6.345,1.56,12.648,1.491,19.028c-0.068,6.245-1.829,12.313-7.703,15.368c-9.048,4.706-22.08,1.271-31.238-1.011   C22.752,78.409,11.86,73.417,6.176,63.866c-5.118-8.6-3.341-21.182,2.109-29.221c8.232-12.143,22.488-22.065,35.261-28.79   c5.222-2.75,11.299-5.393,17.332-5.03c6.896,0.415,8.591,7.117,8.523,12.923C69.396,14.198,70.094,14.197,70.1,13.748L70.1,13.748z   " style="fill: inherit;"/>
</g>
<g>
	<path d="M43.86,92.623c-7.63-1.26-10.41,2.399-12.82,9.617c-1.676,5.019-0.278,9.737,3.883,12.934   c5.208,4.002,12.748,4.908,19.045,5.689c7.653,0.949,15.376,1.05,23.052,1.728c12.335,1.089,23.87,7.799,36.296,7.753   c14.515-0.054-5.526-19.773-8.652-22.477c-7.436-6.431-15.596-12.32-24.253-16.993c-1.72-0.929-11.659-5.754-13.197-3.245   c-0.061,0.099-0.07,0.254,0,0.352c0.969,1.36,6.134,1.398,3.132-0.443c-8.253-5.06-18.03,4.523-26.578,5.072   c-0.447,0.029-0.45,0.727,0,0.698c7.315-0.47,14.204-5.167,21.382-6.615c1.837-0.371,3.712,0.754,5.244,1.693   c0.406,0.249-1.07-0.247-1.522-0.366c-1.143-0.302-1.243-0.031-0.01,0.041c2.011,0.118,4.035,0.417,5.953,1.038   c8.97,2.901,17.361,9.699,24.672,15.417c6.786,5.308,14.643,11.538,17.942,19.781c3.332,8.325-11.12,4.593-14.683,3.728   c-6.37-1.547-12.57-3.932-19.016-5.149c-13.993-2.641-28.636-0.847-42.333-5.292c-5.03-1.632-9.948-4.774-10.37-10.504   c-0.275-3.738,1.629-7.797,3.453-10.887c2.216-3.753,5.503-3.505,9.196-2.896C44.115,93.368,44.304,92.696,43.86,92.623   L43.86,92.623z" style="fill: inherit;"/>
</g>
<g>
	<g>
		<g>
			<path d="M64.168,84.462c5.582-1.862-7.34-17.28-10.132-21.466c-2.792-3.723-1.556,3.322-6.208,1.926     c-0.931,7.443,9.827,14.887,16.805,19.073" style="fill: rgb(52, 32, 32);"/>
		</g>
		<g>
			<path d="M68.527,80.381c2.956,2.431,7.869-10.215,9.441-13.251c1.294-2.871-2.495,0.321-3.202-2.754     c-4.743,2.134-5.622,10.743-5.809,16.097" style="fill: rgb(52, 32, 32);"/>
		</g>
		<g>
			<g>
				<path d="M73.065,84.77c-0.201,3.821,12.892,0.269,16.268-0.268c3.078-0.662-1.738-1.817,0.316-4.211      c-4.532-2.55-11.981,1.853-16.402,4.88" style="fill: rgb(52, 32, 32);"/>
			</g>
		</g>
		<g>
			<path d="M66.529,89.276c0.326-3.813-12.875-0.691-16.267-0.263c-3.099,0.561,1.678,1.873-0.454,4.199     c4.447,2.697,12.035-1.461,16.552-4.344" style="fill: rgb(52, 32, 32);"/>
		</g>
		<g>
			<path d="M69.004,86.195c-3.812,0.338,1.55,12.8,2.558,16.066c1.09,2.954,1.555-1.977,4.215-0.281     c1.886-4.845-3.523-11.599-7.145-15.548" style="fill: rgb(52, 32, 32);"/>
		</g>
	</g>
	<g>
		<path d="M67.857,81.86c-10.545-14.841-9.763,4.296,1.562,2.733c-12.107-12.888-11.716,14.059-0.781,0.391    c-2.343,1.171-3.515,3.905-3.515,6.249c5.077,3.515,10.154-3.124,3.515-5.077c3.125-0.39,5.468,1.171,8.201,0.39    c-0.39-3.514-4.296-5.467-7.42-5.467l0,0c5.077,1.954,8.202-4.686,2.343-5.467c-5.468-0.782-6.639,6.639-5.858,10.154" style="fill: rgb(255, 255, 255);"/>
	</g>
</g>
<g>
	<path d="M36.553,120.684c-10.558,16.308-10.458,38.156-9.316,56.821c1.252,20.478,5.079,40.931,10.461,60.709   c8.191,30.104,15.389,60.475,22.435,90.864c6.954,29.993,16.831,60.594,13.979,91.691c-1.299,14.166-4.637,28.652-8.333,42.395   c-2.962,11.013-7.201,27.796-18.535,33.189c-0.406,0.192-0.052,0.794,0.353,0.602c6.875-3.271,10.624-10.884,13.473-17.537   c3.738-8.727,6.062-18.059,8.134-27.297c2.194-9.781,4.265-19.641,5.424-29.601c1.613-13.859,0.681-27.753-1.927-41.424   c-5.996-31.442-14.189-62.692-21.741-93.794c-5.969-24.58-13.422-48.913-18.251-73.75c-3.175-16.332-5.215-32.973-5.198-49.626   c0.015-14.496,1.58-30.431,9.646-42.89C37.401,120.657,36.796,120.308,36.553,120.684L36.553,120.684z" style="fill: inherit;"/>
	<path d="M45.316,129.962c-2.209,7.517-7.606,13.303-11.969,19.621c-4.481,6.488-6.799,13.505-5.815,21.412   c0.055,0.44,0.753,0.446,0.698,0c-2.163-17.38,13.328-25.771,17.759-40.847C46.116,129.715,45.442,129.531,45.316,129.962   L45.316,129.962z" style="fill: inherit;"/>
	<path d="M145.68,288.748c-8.188,0-14.67-3.416-20.684-6.585c-6.523-3.438-12.156-6.404-18.839-4.646l-0.414,0.108l-25.305-71.229   l0.019-0.117c0.131-0.831,0.33-1.631,0.597-2.399c0.189-1.818,1.06-3.104,2.326-4.37l0.109,0.109   c0.906-1.076,2.001-2.055,3.283-2.935c10.633-7.301,32.358-6.214,43.556-3.813c20.723,4.505,63.44,26.766,71.059,49.622   l0.174,0.523l-0.545,0.084c-0.014,0.002-0.028,0.004-0.042,0.006c0.293,0.612,0.435,1.309,0.423,2.087   c-0.152,10.146-28.053,32.792-35.312,37.11C158.135,287.033,151.479,288.748,145.68,288.748z M110.103,276.072   c5.332,0,10.217,2.574,15.327,5.268c10.058,5.3,21.455,11.304,40.179,0.164c6.929-4.122,34.714-26.688,34.858-36.325   c0.011-0.749-0.146-1.391-0.478-1.936c-12.359,1.553-27.361-2.711-34.575-9.925c-4.364-3.567-6.556-7.544-8.675-11.391   c-2.875-5.216-5.357-9.721-12.708-12.347c-15.354-5.116-28.572-4.03-42.57-2.879c-6.235,0.513-12.683,1.043-19.555,1.046   l24.429,68.765C107.62,276.209,108.873,276.072,110.103,276.072z M119.025,204.808c8.078,0,16.32,0.897,25.31,3.894   c7.691,2.748,10.376,7.619,13.219,12.777c2.077,3.769,4.225,7.666,8.484,11.151c6.943,6.941,21.229,11.07,33.202,9.765   c-0.125-0.103-0.261-0.2-0.406-0.292l0.5-0.785c0.349,0.222,0.654,0.471,0.916,0.745c-3.556-9.665-14.112-20.429-29.842-30.4   c-13.309-8.437-29.118-15.455-40.276-17.881c-11.044-2.367-32.439-3.463-42.833,3.671c-2.604,1.787-4.387,4.006-5.324,6.62   c-0.071,0.781,0.001,1.677,0.241,2.745c6.72-0.019,13.047-0.539,19.17-1.042C107.329,205.285,113.134,204.808,119.025,204.808z" style="fill: inherit;"/>
	<path d="M101.882,275.056c-39.104,0-43.99-34.566-47.223-57.439c-0.906-6.407-1.688-11.94-3.026-15.763l-0.119-0.341l0.3-0.2   c2.583-1.722,5.243-2.595,7.906-2.595c10.946,0,19.39,14.487,21.649,24.278c4.431,18.608,9.012,37.854,26.806,50.964l0.999,0.737   l-1.237,0.102C105.864,274.969,103.827,275.056,101.882,275.056z M52.629,201.892c1.296,3.889,2.065,9.327,2.951,15.594   c1.624,11.489,3.645,25.788,10.044,37.067c8.149,14.363,21.474,20.705,41.008,19.41c-17.248-13.286-21.782-32.329-26.168-50.754   c-1.221-5.29-3.99-11.068-7.409-15.462c-2.875-3.694-7.522-8.098-13.334-8.098C57.345,199.648,54.961,200.403,52.629,201.892z" style="fill: inherit;"/>
	<path d="M106.039,277.834h-0.49l0.026-0.641c0.571-10.854-3.128-14.984-7.812-20.119c-2.844-3.117-6.067-6.688-8.887-12.328   c-4.281-8.562-5.455-21.999-6.312-31.797l-0.25-2.824c-0.115-2.519,0.624-4.624,2.195-6.268c2.802-2.932,8.251-4.422,16.194-4.422   c18.208,0,44.146,7.848,50.221,11.162c15.374,7.857,16.518,18.176,14.767,25.447c-2.285,9.493-10.839,19.989-23.468,28.534   C130.097,272.784,116.569,277.834,106.039,277.834z M100.703,200.364c-7.68,0-12.902,1.39-15.521,4.132   c-1.389,1.453-2.041,3.323-1.939,5.557l0.248,2.796c0.851,9.724,2.015,23.04,6.217,31.443c2.762,5.525,5.939,9.007,8.743,12.08   c4.759,5.216,8.532,9.353,8.077,20.227c24.642-0.305,54.092-23.46,58.26-40.772c2.397-9.961-2.546-18.401-14.297-24.408   C144.466,208.133,118.766,200.364,100.703,200.364z" style="fill: inherit;"/>
	<path d="M104.478,271.419c-8.885,13.722-9.938,31.396-9.715,47.275c0.267,19.034,3.308,38.081,7.465,56.621   c4.689,20.913,10.815,41.35,14.256,62.562c3.055,18.827,5.121,38.875,1.315,57.755c-0.088,0.439,0.585,0.627,0.674,0.186   c3.327-16.511,2.095-33.848-0.179-50.411c-3.019-21.998-8.796-43.205-14.086-64.71c-4.555-18.518-7.651-37.508-8.576-56.564   c-0.84-17.331-0.293-37.317,9.448-52.361C105.326,271.392,104.721,271.042,104.478,271.419L104.478,271.419z" style="fill: inherit;"/>
	<path d="M115.872,276.974c-4.784,16.238-22.699,26.097-20.417,44.755c0.054,0.44,0.752,0.446,0.698,0   c-2.275-18.611,15.624-28.383,20.393-44.569C116.673,276.727,115.999,276.543,115.872,276.974L115.872,276.974z" style="fill: inherit;"/>
</g>
</svg>
