<svg width="256" height="114" viewBox="0 0 256 114" fill="none" xmlns="http://www.w3.org/2000/svg">
<path d="M127.919 113.086C94.3979 113.086 62.8749 108.595 39.1534 100.455C15.2049 92.2326 2.01319 81.2041 2.01319 69.4024C2.01319 57.6008 15.2049 46.5722 39.1534 38.3475C62.8749 30.2031 94.3979 25.7184 127.919 25.7184C161.439 25.7184 192.962 30.2102 216.682 38.3475C240.632 46.5722 253.822 57.6008 253.822 69.4024C253.822 81.2041 240.632 92.2326 216.682 100.455C192.962 108.602 161.437 113.086 127.919 113.086ZM127.919 27.0966C94.5469 27.0966 63.1822 31.5554 39.6026 39.6524C16.2522 47.6691 3.39147 58.2343 3.39147 69.4024C3.39147 80.5705 16.2522 91.1357 39.6026 99.1524C63.1822 107.249 94.5469 111.708 127.919 111.708C161.29 111.708 192.655 107.249 216.235 99.1524C239.583 91.1357 252.443 80.5681 252.443 69.4024C252.443 58.2367 239.583 47.6691 216.235 39.6524C192.655 31.5554 161.29 27.0966 127.919 27.0966Z" fill="#C3937C"/>
<path d="M28.782 41.2955C21.2949 43.0473 15.4934 48.1254 10.907 54.1019C8.28518 57.5204 6.03218 61.2108 3.92103 64.9626C1.88316 68.5844 -0.504591 72.7311 0.0935293 77.0574C1.2945 85.7266 11.5855 87.3389 18.5336 88.2893C24.0183 89.0387 28.834 90.6298 33.6048 93.4762C37.7727 95.9656 41.6759 98.8687 45.8651 101.325C54.1726 106.195 63.291 109.836 72.797 111.505C82.3433 113.181 91.4901 112.309 100.895 110.276C106.434 109.077 111.933 108.058 117.611 107.833C123.143 107.614 128.682 107.916 134.207 108.212C145.304 108.804 156.401 109.401 167.496 110.001C184.064 110.89 203.291 112.978 217.925 103.382C225.32 98.5283 229.398 90.3366 236.469 85.1781C242.046 81.1095 250.845 80.3672 254.566 74.0124C258.699 66.9461 253.167 59.1729 247.238 55.3927C243.001 52.6929 238.207 50.8583 233.637 48.8157L218.388 41.9953C213.4 39.7636 208.426 37.5035 203.417 35.3096C198.842 33.3119 194.173 31.5435 189.201 30.8745C178.799 29.4726 168.201 31.5837 157.742 31.0282C146.839 30.4561 136.075 28.5151 125.283 26.9666C120.29 26.2574 115.28 25.612 110.247 25.229C105.084 24.8366 99.6534 24.4465 94.5043 25.1699C89.9652 25.8082 86.9581 28.3685 83.3764 30.9643C78.7853 34.293 73.7734 34.6689 68.291 34.0684C63.3784 33.5318 58.584 32.8107 53.6336 33.092C44.4239 33.6062 35.5034 36.4915 27.7371 41.4681C27.4203 41.669 27.7134 42.1773 28.0326 41.974C36.1799 36.7794 45.5827 33.8897 55.2411 33.6121C63.5155 33.397 73.0027 37.1725 80.8019 33.2764C84.8209 31.2717 87.7051 27.5718 92.1024 26.2668C96.9394 24.8295 102.637 25.3543 107.613 25.638C117.923 26.229 128.11 28.0021 138.316 29.4962C147.824 30.884 157.413 32.0282 167.042 31.7279C177.333 31.4041 187.404 29.9785 197.357 33.4939C207.185 36.9668 216.641 41.8463 226.152 46.0994C230.748 48.1562 235.351 50.194 239.94 52.2673C244.164 54.1775 248.547 56.2863 251.678 59.8088C254.883 63.4236 256.68 68.9627 254.226 73.4592C252.389 76.8234 248.765 78.5799 245.398 80.0409C242.032 81.5019 238.569 82.8258 235.613 85.1048C232.512 87.4949 230.008 90.5423 227.493 93.5069C221.887 100.126 215.736 105.07 207.308 107.588C199.355 109.963 190.932 110.299 182.686 110.124C162.676 109.694 142.706 107.365 122.692 107.19C117.935 107.148 113.178 107.387 108.481 108.167C103.583 108.98 98.7881 110.276 93.8849 111.094C84.2488 112.699 74.4401 111.841 65.0877 109.098C56.0733 106.455 47.8108 102.117 40.0281 96.9254C36.3519 94.4762 32.6733 91.9608 28.5953 90.2137C24.2713 88.3626 19.7488 87.9536 15.1529 87.2491C10.6611 86.5588 5.93289 85.2963 2.84536 81.6934C-1.26347 76.8848 1.28268 70.9722 3.93758 66.1659C7.73197 59.2958 12.0418 52.3146 18.1766 47.2791C21.3021 44.6687 24.9894 42.8174 28.9499 41.87C29.3163 41.7849 29.1603 41.2199 28.7938 41.305L28.782 41.2955Z" fill="#C3937C"/>
<path d="M93.3483 26.3071C117.978 16.6615 144.713 13.6691 170.865 17.6308C171.38 17.7088 171.603 16.9216 171.083 16.8388C144.791 12.8398 117.91 15.833 93.1426 25.5175C92.6556 25.709 92.8683 26.5009 93.3601 26.3071H93.3483Z" fill="#C3937C"/>
<path d="M113.384 20.0587C123.313 12.574 135.704 10.1862 147.664 8.00176C148.184 7.9072 147.964 7.11759 147.446 7.21215C135.411 9.40605 122.952 11.8245 112.961 19.3519C112.545 19.6663 112.961 20.3779 113.375 20.0611L113.384 20.0587Z" fill="#C3937C"/>
<path d="M120.677 15.6591C130.843 6.41068 145.389 2.90943 158.661 6.49106C158.766 6.5199 158.878 6.50596 158.972 6.45232C159.067 6.39867 159.136 6.30971 159.165 6.205C159.194 6.1003 159.18 5.98841 159.126 5.89398C159.073 5.79954 158.984 5.73029 158.879 5.70145C145.318 2.03944 130.488 5.63289 120.108 15.0799C119.717 15.4345 120.297 16.0255 120.687 15.6591H120.677Z" fill="#C3937C"/>
<path d="M122.439 15.0184C135.141 14.7324 148.207 14.1343 159.04 6.68967C159.47 6.39179 159.061 5.68019 158.626 5.98043C147.912 13.3517 135.009 13.9144 122.439 14.1981C121.911 14.1981 121.911 15.0303 122.439 15.0184Z" fill="#C3937C"/>
<path d="M128.023 12.3493C130.459 10.3828 133.03 8.58809 135.715 6.97809C136.169 6.70858 135.756 5.99935 135.302 6.26885C132.557 7.91663 129.932 9.75408 127.443 11.7678C127.032 12.0988 127.616 12.6756 128.023 12.347V12.3493Z" fill="#C3937C"/>
<path d="M133.836 10.8788C137.233 8.4178 141.106 6.80548 145.049 5.44139C145.545 5.27117 145.33 4.47919 144.831 4.65177C140.812 6.04187 136.874 7.67547 133.422 10.1743C132.999 10.4817 133.406 11.1933 133.836 10.8836V10.8788Z" fill="#C3937C"/>
<path d="M141.179 9.27598C145.173 7.47575 149.434 6.3402 153.794 5.91421C154.314 5.8622 154.319 5.04186 153.794 5.09387C149.291 5.53544 144.89 6.70847 140.765 8.56675C140.292 8.78188 140.699 9.48875 141.179 9.27598Z" fill="#C3937C"/>
<path d="M132.009 12.0231C135.051 13.2038 138.322 13.6775 141.574 13.4085C142.096 13.3659 142.101 12.5456 141.574 12.5905C138.396 12.8569 135.199 12.3928 132.228 11.2335C131.739 11.0373 131.519 11.8293 132.009 12.0231Z" fill="#C3937C"/>
<path d="M138.585 10.3399C142.673 11.2855 147.042 11.6803 151.167 10.7465C151.68 10.6306 151.463 9.83867 150.947 9.95451C146.976 10.8552 142.737 10.4699 138.805 9.55025C138.292 9.42968 138.072 10.2193 138.585 10.3399Z" fill="#C3937C"/>
<path d="M144.564 8.53843C148.541 8.63535 152.572 8.67791 156.524 8.19799C157.042 8.13416 157.049 7.31382 156.524 7.37765C152.572 7.85047 148.541 7.81738 144.564 7.72045C144.037 7.70626 144.037 8.52661 144.564 8.53843Z" fill="#C3937C"/>
<path d="M155.948 15.8104C166.454 11.7396 177.633 9.68012 188.901 9.73938C189.004 9.73153 189.101 9.6849 189.171 9.60885C189.242 9.53279 189.281 9.43292 189.281 9.32921C189.281 9.22551 189.242 9.12563 189.171 9.04957C189.101 8.97352 189.004 8.92689 188.901 8.91904C177.561 8.85761 166.31 10.9274 155.735 15.0208C155.248 15.2099 155.46 16.0019 155.952 15.8104H155.948Z" fill="#C3937C"/>
<path d="M161.361 13.6685C171.527 5.17191 186.364 4.0135 198.067 10.2287C198.539 10.4652 198.303 9.47223 197.83 9.224C191.975 6.09367 185.316 4.78866 178.713 5.47717C172.109 6.16568 165.863 8.81614 160.78 13.087C160.373 13.4274 160.957 14.0042 161.359 13.6685H161.361Z" fill="#C3937C"/>
<path d="M161.782 13.5952C168.378 14.4034 175.035 14.5791 181.664 14.1201C187.026 13.7394 193.809 13.6212 198.412 10.5455C198.849 10.2547 198.44 9.54551 197.998 9.83629C195.499 11.5054 192.561 11.964 189.655 12.4084C186.407 12.9018 183.141 13.2359 179.858 13.4108C173.826 13.7221 167.778 13.5085 161.782 12.7725C161.26 12.7087 161.262 13.529 161.782 13.5929V13.5952Z" fill="#C3937C"/>
<path d="M167.449 11.9096C170.962 9.17197 175.033 7.3587 179.338 6.26885C179.849 6.13882 179.631 5.34684 179.121 5.47687C174.671 6.60692 170.496 8.50293 166.87 11.3304C166.454 11.6543 167.038 12.2311 167.449 11.9096Z" fill="#C3937C"/>
<path d="M178.501 10.2973C182.006 8.14168 186.083 7.10203 190.192 7.31613C190.719 7.34214 190.716 6.52179 190.192 6.49815C185.937 6.28534 181.718 7.36321 178.087 9.5904C177.636 9.86464 178.047 10.5739 178.501 10.2996V10.2973Z" fill="#C3937C"/>
<path d="M172.17 11.1484C174.695 11.8576 177.099 12.834 179.704 13.2643C182.245 13.6671 184.827 13.7362 187.385 13.47C187.906 13.4203 187.91 12.6 187.385 12.6496C184.62 12.9405 181.827 12.8315 179.092 12.3257C176.787 11.8813 174.636 10.9924 172.387 10.3564C172.285 10.3346 172.178 10.3528 172.088 10.4074C171.999 10.4619 171.933 10.5487 171.905 10.6499C171.878 10.751 171.889 10.859 171.939 10.9517C171.988 11.0444 172.071 11.1147 172.17 11.1484Z" fill="#C3937C"/>
<path d="M180.34 10.0042C185.123 11.5999 190.244 12.529 195.293 12.1106C195.816 12.0657 195.821 11.2453 195.293 11.2902C190.308 11.704 185.281 10.7891 180.558 9.21456C180.057 9.04671 179.849 9.83868 180.34 10.0042Z" fill="#C3937C"/>
<path d="M107.493 5.95442C109.966 9.31618 110.408 13.7063 108.152 17.3211C106.025 20.7183 101.894 22.2644 98.3649 23.7538C97.8921 23.9548 98.0954 24.7491 98.5824 24.5434C102.566 22.8649 107.093 21.1486 109.221 17.113C111.216 13.3423 110.698 8.9332 108.202 5.5407C107.892 5.12225 107.181 5.52888 107.493 5.95442Z" fill="#C3937C"/>
<path d="M107.98 6.24286C107.252 6.22868 106.519 6.22395 105.791 6.19558C105.396 6.19845 105.001 6.17634 104.608 6.12938C104.44 5.48319 104.597 5.21841 105.081 5.33504C105.144 5.33419 105.206 5.31909 105.262 5.29088C105.318 5.26268 105.367 5.2221 105.405 5.17222C105.443 5.12235 105.469 5.06448 105.481 5.00299C105.494 4.94151 105.492 4.878 105.476 4.8173C105.4 4.49578 104.923 3.22626 105.098 2.9993C105.601 2.34917 106.126 3.25462 106.306 3.62815C106.486 4.00168 106.937 3.82438 107.055 3.53123C107.292 2.93547 108.263 2.07493 108.554 2.96857C108.519 2.86455 108.521 3.91421 108.505 3.64943C108.506 3.75774 108.55 3.86105 108.627 3.93743C108.704 4.0138 108.808 4.0572 108.916 4.05842C109.053 4.05842 110.223 3.88584 110.278 3.98513C110.696 4.77002 108.519 5.44143 108.136 5.45797C107.611 5.48162 107.606 6.30196 108.136 6.27832C109.318 6.22631 110.814 5.50289 111.067 4.20263C111.33 2.848 109.793 3.17897 108.916 3.23807L109.325 3.64943C109.273 2.68487 109.767 1.52173 108.292 1.41534C107.15 1.32787 106.62 2.41536 106.263 3.30663L107.013 3.20734C106.642 2.43427 105.878 1.39879 104.902 1.96145C103.762 2.61868 104.464 4.08915 104.687 5.0348L105.081 4.51469C104.204 4.51469 102.904 4.88822 103.339 6.05609C103.899 7.56676 106.859 7.03956 107.987 7.0632C108.516 7.07502 108.516 6.25468 107.987 6.24286H107.98Z" fill="#C3937C"/>
<path d="M108.689 5.02062C108.062 4.35631 107.006 3.9355 106.185 4.52653C105.523 4.99935 105.301 6.02773 105.928 6.62822C106.554 7.2287 107.977 7.30908 108.765 7.05612C109.552 6.80316 110.077 5.87406 109.606 5.11282C109.33 4.66364 108.62 5.075 108.897 5.52654C109.505 6.50765 107.211 6.35635 106.769 6.19086C106.223 5.98282 106.282 5.30196 106.819 5.10337C107.292 4.92606 107.798 5.27595 108.105 5.59983C108.469 5.98519 109.051 5.40361 108.684 5.02062H108.689Z" fill="#C3937C"/>
<path d="M128.094 17.3376C137.013 19.9653 146.295 21.145 155.588 20.8318C156.113 20.8152 156.115 19.9949 155.588 20.0114C146.369 20.3261 137.16 19.1583 128.311 16.5527C127.803 16.4038 127.585 17.1934 128.091 17.3423L128.094 17.3376Z" fill="#C3937C"/>
<path d="M136.349 19.2478C146.59 16.7652 157.371 17.8321 166.926 22.2739C167.399 22.4938 167.818 21.7869 167.34 21.5647C157.591 17.0223 146.588 15.9261 136.134 18.4559C135.621 18.5812 135.838 19.3708 136.351 19.2478H136.349Z" fill="#C3937C"/>
<path d="M136.285 19.5977C145.536 25.534 156.713 25.0139 167.064 22.8555C167.579 22.7491 167.361 21.9595 166.846 22.0659C156.706 24.1794 145.765 24.7089 136.699 18.8909C136.254 18.6048 135.843 19.314 136.285 19.6001V19.5977Z" fill="#C3937C"/>
<path d="M142.827 20.0209C145.881 19.1344 149.066 18.4511 152.255 18.366C152.78 18.3519 152.782 17.5339 152.255 17.548C148.995 17.6355 145.73 18.3282 142.609 19.2313C142.103 19.3779 142.318 20.1769 142.827 20.0233V20.0209Z" fill="#C3937C"/>
<path d="M152.687 20.6829C157.135 20.3182 161.611 20.7611 165.9 21.9902C166.409 22.1344 166.626 21.3448 166.12 21.2006C161.76 19.9495 157.209 19.4962 152.687 19.8625C152.165 19.9051 152.16 20.7254 152.687 20.6829Z" fill="#C3937C"/>
<path d="M145.973 20.7017C147.761 22.4838 150.024 23.7147 152.491 24.2479C153.007 24.359 153.226 23.5694 152.709 23.4559C150.381 22.9568 148.247 21.7969 146.562 20.1155C146.485 20.0386 146.381 19.9955 146.272 19.9955C146.164 19.9955 146.06 20.0386 145.983 20.1155C145.906 20.1923 145.863 20.2964 145.863 20.4051C145.863 20.5137 145.906 20.6179 145.983 20.6947L145.973 20.7017Z" fill="#C3937C"/>
<path d="M152.846 20.697C155.347 22.3209 158.204 23.3161 161.172 23.5978C161.695 23.6498 161.692 22.8295 161.172 22.7774C158.347 22.5005 155.63 21.5433 153.255 19.9878C152.81 19.7017 152.399 20.411 152.841 20.697H152.846Z" fill="#C3937C"/>
<path d="M87.5207 28.4371C91.4967 22.091 97.3146 17.1094 104.197 14.1579C104.67 13.9498 104.263 13.243 103.783 13.4487C96.7776 16.4702 90.8584 21.554 86.8138 28.0234C86.5325 28.4726 87.2417 28.8839 87.523 28.4371H87.5207Z" fill="#C3937C"/>
<path d="M90.1141 24.4914C91.7477 16.4132 99.249 11.1791 107.415 12.5456C107.93 12.633 108.152 11.8363 107.632 11.7559C99.0504 10.3186 91.0526 15.7206 89.3245 24.2857C89.2204 24.8011 90.01 25.021 90.1141 24.5032V24.4914Z" fill="#C3937C"/>
<path d="M90.7217 23.9146C94.1894 23.441 97.5017 22.1761 100.402 20.2179C103.303 18.2596 105.715 15.6604 107.45 12.6212C107.713 12.1626 107.003 11.7489 106.741 12.2052C105.059 15.1521 102.719 17.6708 99.9031 19.5649C97.0875 21.459 93.8727 22.6773 90.509 23.125C89.9889 23.1959 90.2087 23.9855 90.7265 23.9146H90.7217Z" fill="#C3937C"/>
<path d="M93.5941 20.6994C94.7262 18.4425 96.1936 16.3701 97.9464 14.5527C98.3129 14.1744 97.7337 13.5929 97.3672 13.9735C95.5582 15.8382 94.0436 17.9674 92.8754 20.288C92.639 20.7609 93.3482 21.1746 93.5847 20.7018L93.5941 20.6994Z" fill="#C3937C"/>
<path d="M99.4003 16.3896C101.081 14.5291 103.246 13.1721 105.653 12.4699C106.157 12.321 105.942 11.5243 105.433 11.6779C102.888 12.4186 100.597 13.8488 98.814 15.8104C98.4594 16.1981 99.0504 16.7797 99.3955 16.3896H99.4003Z" fill="#C3937C"/>
<path d="M96.0835 18.6804C98.3075 18.9477 100.563 18.7159 102.686 18.0019C103.183 17.8365 102.97 17.0445 102.467 17.21C100.414 17.8991 98.233 18.1213 96.0835 17.8601C95.561 17.7986 95.5657 18.619 96.0835 18.6804Z" fill="#C3937C"/>
<path d="M102.195 15.4132C103.192 15.5403 104.203 15.4753 105.176 15.2217C105.687 15.0894 105.469 14.2997 104.956 14.4298C104.055 14.6621 103.117 14.7175 102.195 14.5929C101.672 14.5267 101.677 15.347 102.195 15.4132Z" fill="#C3937C"/>
<path d="M168.406 17.3093C172.338 16.0468 176.3 16.8081 179.74 19.0162C180.187 19.3022 180.598 18.593 180.154 18.3069C176.548 15.9948 172.307 15.1981 168.189 16.5173C167.688 16.678 167.903 17.4629 168.406 17.3093Z" fill="#C3937C"/>
<path d="M167.522 17.4038C170.853 20.08 176.132 19.8412 180.116 19.2289C180.636 19.1485 180.414 18.3589 179.898 18.4393C176.265 18.9972 171.135 19.262 168.101 16.8246C167.695 16.4984 167.111 17.0752 167.522 17.4038Z" fill="#C3937C"/>
<path d="M169.65 17.7513C172.757 17.9552 175.851 18.323 178.92 18.853C179.435 18.9405 179.657 18.1438 179.137 18.061C175.997 17.5191 172.83 17.1419 169.65 16.931C169.123 16.8979 169.125 17.7182 169.65 17.7513Z" fill="#C3937C"/>
<path d="M108.739 21.2809C114.981 20.8598 121.251 21.19 127.415 22.2644C127.93 22.3542 128.153 21.5552 127.633 21.4724C121.401 20.3806 115.061 20.0417 108.748 20.463C108.223 20.4961 108.221 21.3164 108.748 21.2809H108.739Z" fill="#C3937C"/>
<path d="M127.283 21.8271C127.876 21.5129 128.514 21.2897 129.174 21.1651C129.276 21.1486 130.098 20.9642 130.186 21.0705C129.982 20.8223 129.375 21.2644 129.162 21.3282C128.86 21.4228 128.72 21.9287 129.063 22.0777L129.966 22.463L130.344 22.6261C130.258 22.7256 130.14 22.7912 130.01 22.8111C129.88 22.831 129.747 22.804 129.635 22.7349C129.565 22.715 129.492 22.7143 129.422 22.7331C129.352 22.7518 129.288 22.7892 129.238 22.8413C129.001 23.1155 129.105 23.1864 129.087 23.5032L129.169 23.7018C129.086 23.7276 128.997 23.724 128.916 23.6917C128.835 23.6595 128.767 23.6004 128.725 23.5245C128.515 23.3304 128.358 23.0864 128.269 22.8153C128.032 22.1509 127.834 21.4795 126.98 21.6332C126.462 21.7325 126.68 22.5245 127.198 22.4252C127.209 22.4252 127.86 23.794 127.997 23.9453C128.271 24.2794 128.652 24.5102 129.075 24.6002C129.247 24.6288 129.424 24.6052 129.583 24.5323C129.742 24.4594 129.875 24.3406 129.966 24.1912C130.041 24.0382 130.068 23.8656 130.042 23.6971C130.022 23.6091 129.992 23.5235 129.954 23.4418C129.907 23.2384 129.862 23.229 129.817 23.4157L129.417 23.5198C130.11 23.7562 131.162 23.794 131.309 22.8484C131.455 21.9027 130.113 21.6403 129.484 21.3684C129.453 21.619 129.42 21.8673 129.387 22.1179C129.871 21.9689 130.505 21.7254 130.782 21.2644C130.834 21.1874 130.868 21.1001 130.884 21.0085C130.899 20.9168 130.894 20.8229 130.87 20.7332C130.846 20.6435 130.803 20.5601 130.743 20.4886C130.684 20.4171 130.61 20.3592 130.526 20.3188C130.082 20.1202 129.427 20.2951 128.964 20.3802C128.232 20.5224 127.525 20.7725 126.867 21.1226C126.394 21.359 126.812 22.0682 127.28 21.8318L127.283 21.8271Z" fill="#C3937C"/>
<path d="M46.1889 34.8486C48.3166 32.1984 50.7445 29.9194 53.8344 28.4206C58.6738 26.0778 64.2602 25.4985 69.5487 25.1392C70.0735 25.1037 70.0782 24.2834 69.5487 24.3188C64.246 24.6782 58.7211 25.2645 53.8368 27.5175C50.5034 29.0494 47.8911 31.4348 45.6097 34.2694C45.2811 34.676 45.8579 35.26 46.1889 34.8486Z" fill="#C3937C"/>
<path d="M48.5483 32.2362C51.8959 23.976 61.603 23.0446 69.2154 24.7278C69.7308 24.8413 69.9506 24.0517 69.4353 23.9382C61.3193 22.1439 51.286 23.3141 47.7587 32.0164C47.5601 32.5058 48.3545 32.7256 48.5483 32.2362Z" fill="#C3937C"/>
<path d="M49.0259 31.988C53.7541 31.9738 58.6194 31.5152 63.2106 30.2527C66.2697 29.4064 69.0641 27.8248 70.1445 24.6853C70.3171 24.1864 69.5251 23.976 69.3549 24.4678C68.0664 28.2054 64.1538 29.2835 60.662 30.0092C56.8354 30.7866 52.9401 31.1754 49.0353 31.17C48.9269 31.17 48.8228 31.2131 48.7461 31.2898C48.6694 31.3665 48.6264 31.4705 48.6264 31.579C48.6264 31.6875 48.6694 31.7915 48.7461 31.8682C48.8228 31.9449 48.9269 31.988 49.0353 31.988H49.0259Z" fill="#C3937C"/>
<path d="M52.624 28.969C54.5379 27.1914 56.7109 25.7151 59.0686 24.5907C59.5414 24.3543 59.13 23.6569 58.6548 23.8815C56.231 25.0414 53.9988 26.5649 52.0353 28.3993C51.65 28.761 52.2292 29.3449 52.6145 28.9785L52.624 28.969Z" fill="#C3937C"/>
<path d="M61.0119 25.8674C62.8016 24.7936 64.8911 24.329 66.9671 24.5435C67.492 24.5931 67.4872 23.7728 66.9671 23.7231C64.7453 23.5071 62.5127 24.0101 60.5982 25.1581C60.1443 25.4276 60.5557 26.1369 61.0119 25.8674Z" fill="#C3937C"/>
<path d="M53.7706 28.4324C57.25 29.9072 61.0921 30.3033 64.7992 29.5695C65.3169 29.4655 65.0994 28.6759 64.5817 28.7799C61.0865 29.4674 57.4658 29.1004 54.1796 27.7255C53.7068 27.5175 53.2812 28.2243 53.7659 28.4348L53.7706 28.4324Z" fill="#C3937C"/>
<path d="M58.6809 26.7799C61.3051 27.69 65.7354 28.9808 68.4329 27.6309C68.9057 27.3945 68.4896 26.6853 68.0192 26.9217C66.9246 27.4702 65.3217 27.2716 64.1539 27.1581C62.3634 26.9756 60.6004 26.5844 58.9008 25.9926C58.3996 25.82 58.1916 26.612 58.6809 26.7822V26.7799Z" fill="#C3937C"/>
<path d="M72.1776 35.4042C77.8281 37.2283 83.759 38.0289 89.6909 37.7683C90.2181 37.747 90.2205 36.9267 89.6909 36.9503C83.8329 37.2078 77.9759 36.4185 72.3951 34.6193C71.8915 34.4562 71.6859 35.2481 72.1776 35.4089V35.4042Z" fill="#C3937C"/>
<path d="M78.2841 36.8108C84.3424 35.1446 90.7791 35.5024 96.6154 37.8297C97.1072 38.0236 97.3247 37.2316 96.8329 37.0401C90.854 34.6705 84.2652 34.3161 78.0666 36.0306C77.9619 36.0595 77.873 36.1287 77.8193 36.2232C77.7657 36.3176 77.7517 36.4295 77.7806 36.5342C77.8094 36.6389 77.8787 36.7279 77.9731 36.7815C78.0675 36.8352 78.1794 36.8491 78.2841 36.8203V36.8108Z" fill="#C3937C"/>
<path d="M78.3716 37.5319C84.0668 41.2908 91.0362 40.974 96.9086 37.8534C97.3814 37.6052 96.9606 36.9078 96.4949 37.1442C90.873 40.1324 84.237 40.4208 78.7853 36.825C78.3433 36.5342 77.9343 37.2435 78.3716 37.5343V37.5319Z" fill="#C3937C"/>
<path d="M84.672 37.3238C86.3269 36.5105 88.029 36.1961 89.873 36.1205C90.3979 36.0992 90.4002 35.2788 89.873 35.3001C87.8943 35.3805 86.0503 35.7398 84.263 36.6169C83.7902 36.8533 84.2039 37.5626 84.6767 37.3262L84.672 37.3238Z" fill="#C3937C"/>
<path d="M89.4144 37.5649C91.5087 37.3604 93.618 37.3604 95.7124 37.5649C96.2372 37.6146 96.2325 36.7942 95.7124 36.7446C93.6179 36.5425 91.5088 36.5425 89.4144 36.7446C88.8943 36.7942 88.8895 37.6146 89.4144 37.5649Z" fill="#C3937C"/>
<path d="M81.407 37.4987C83.7751 38.9951 86.4481 39.9426 89.2299 40.2718C89.75 40.3404 89.7453 39.5201 89.2299 39.4515C86.5933 39.1277 84.0626 38.2182 81.8231 36.7895C81.3763 36.5058 80.965 37.215 81.407 37.4987Z" fill="#C3937C"/>
<path d="M86.9651 38.1229C89.1426 38.9427 91.4791 39.2525 93.795 39.0283C94.3175 38.9811 94.3222 38.1607 93.795 38.2104C91.5505 38.4276 89.286 38.1276 87.1755 37.3333C86.679 37.1489 86.4663 37.9408 86.9557 38.1229H86.9651Z" fill="#C3937C"/>
<path d="M208.005 36.2198C196.92 33.9148 184.75 34.78 173.82 37.6075C173.31 37.7399 173.527 38.5295 174.038 38.3971C184.811 35.6098 196.854 34.7375 207.788 37.0117C208.301 37.1181 208.521 36.3285 208.005 36.2198Z" fill="#C3937C"/>
<path d="M194.922 34.9384C188.487 32.9644 179.319 33.0471 173.903 37.5011C173.494 37.8344 174.078 38.4113 174.482 38.0803C179.622 33.8675 188.615 33.8604 194.705 35.728C195.211 35.8841 195.426 35.0921 194.922 34.9384Z" fill="#C3937C"/>
<path d="M196.227 35.3805C193.293 37.9393 189.656 39.5543 185.79 40.0148C181.924 40.4753 178.009 39.76 174.555 37.9622C174.083 37.7257 173.671 38.435 174.142 38.6714C181.655 42.5131 190.419 41.4705 196.806 35.9621C197.206 35.617 196.624 35.0401 196.227 35.3829V35.3805Z" fill="#C3937C"/>
<path d="M178.243 40.0166C181.036 39.1064 183.995 38.0142 186.36 36.234C186.776 35.9196 186.36 35.208 185.946 35.5247C183.629 37.2742 180.759 38.3404 178.026 39.2293C177.527 39.3924 177.74 40.175 178.243 40.0213V40.0166Z" fill="#C3937C"/>
<path d="M185.913 40.6454C188.922 39.1229 192.18 37.6666 194.832 35.5555C195.244 35.2269 194.66 34.65 194.251 34.9739C191.664 37.0354 188.435 38.4515 185.504 39.9385C185.031 40.175 185.447 40.8842 185.917 40.6478L185.913 40.6454Z" fill="#C3937C"/>
<path d="M177.901 36.0803C179.2 36.0802 180.495 36.239 181.756 36.5531C182.272 36.669 182.492 35.8794 181.976 35.7635C180.643 35.4323 179.274 35.2656 177.901 35.2671C177.373 35.2836 177.371 36.104 177.901 36.0874V36.0803Z" fill="#C3937C"/>
<path d="M183.556 35.0094C185.437 35.1985 187.31 35.4554 189.173 35.78C189.688 35.8699 189.91 35.0708 189.39 34.9904C187.455 34.6532 185.51 34.386 183.556 34.189C183.031 34.137 183.036 34.955 183.556 35.0094Z" fill="#C3937C"/>
<path d="M197.18 26.7846C205.841 32.4824 214.962 37.4492 224.448 41.6336C224.92 41.8463 225.344 41.1395 224.861 40.9243C215.376 36.74 206.255 31.7732 197.594 26.0754C197.152 25.7846 196.74 26.4938 197.18 26.7846Z" fill="#C3937C"/>
<path d="M208.866 32.8509C201.989 31.345 195.154 29.0069 191.482 22.5221C191.222 22.0611 190.513 22.4749 190.773 22.9359C194.556 29.6097 201.544 32.0873 208.646 33.6406C209.161 33.754 209.379 32.9644 208.863 32.8509H208.866Z" fill="#C3937C"/>
<path d="M191.289 23.0942C198.901 23.2195 206.216 26.7326 209.329 33.9857C209.537 34.4585 210.242 34.0519 210.038 33.572C206.816 26.0659 199.163 22.4039 191.291 22.2739C190.761 22.2739 190.761 23.0848 191.291 23.0942H191.289Z" fill="#C3937C"/>
<path d="M194.012 23.5127C195.912 24.5435 197.613 25.9044 199.036 27.5317C199.383 27.9312 199.963 27.3496 199.615 26.9525C198.146 25.2696 196.388 23.8615 194.426 22.794C193.953 22.541 193.549 23.2503 194.012 23.5032V23.5127Z" fill="#C3937C"/>
<path d="M200.417 25.203C202.071 27.0943 203.681 29.1015 204.807 31.3686C205.043 31.8415 205.752 31.4277 205.516 30.9549C204.362 28.6286 202.707 26.5648 200.998 24.6215C200.648 24.2267 200.071 24.8082 200.419 25.203H200.417Z" fill="#C3937C"/>
<path d="M193.267 25.7728C194.856 26.3307 196.341 27.0328 198.022 27.3C198.506 27.378 198.717 26.6357 198.227 26.5576C196.549 26.2905 195.062 25.5884 193.473 25.0304C193 24.8649 192.802 25.6096 193.267 25.7728Z" fill="#C3937C"/>
<path d="M197.071 29.1511C198.764 29.6901 200.518 29.7989 202.253 30.1204C202.769 30.2173 202.991 29.4277 202.471 29.3308C200.738 29.0069 198.981 28.9005 197.291 28.3591C196.788 28.1984 196.582 28.9903 197.071 29.1511Z" fill="#C3937C"/>
<path d="M189.589 26.1463C189.65 25.2195 189.939 22.2242 188.783 21.7088C187.627 21.1935 187.05 23.2479 187.007 23.9973L187.586 23.664C186.641 23.0304 184.485 21.6568 183.485 22.9973C182.634 24.1321 184.092 25.1486 185.069 25.3141V24.5694C184.203 24.6994 181.927 24.6238 181.839 25.9453C181.752 27.2669 183.865 27.1274 184.634 27.1628C184.544 26.9453 184.454 26.7255 184.362 26.5056C183.378 27.3212 183.31 28.5813 184.764 28.8272C186.511 29.1203 188.402 28.047 189.582 26.8626C189.646 26.789 189.68 26.6937 189.677 26.5961C189.673 26.4984 189.633 26.4056 189.564 26.3365C189.495 26.2674 189.402 26.2271 189.305 26.2238C189.207 26.2206 189.112 26.2545 189.038 26.3189C188.347 27.0405 187.481 27.5721 186.525 27.8626C185.91 28.0423 183.501 28.2172 184.908 27.0517C185.184 26.8153 184.939 26.4111 184.634 26.3921C184.161 26.3661 182.705 26.1794 183.688 25.5458C184.024 25.333 184.87 25.3732 185.262 25.3094C185.655 25.2455 185.627 24.6262 185.262 24.5647C184.44 24.5946 184.291 24.3456 184.816 23.8176C184.887 23.281 185.114 23.1439 185.492 23.4086C186.007 23.4299 186.776 24.054 187.185 24.3235C187.243 24.3566 187.31 24.374 187.377 24.3738C187.444 24.3737 187.51 24.3561 187.569 24.3228C187.628 24.2894 187.677 24.2415 187.711 24.1836C187.746 24.1258 187.765 24.0599 187.766 23.9926C187.686 23.3621 187.966 22.9547 188.608 22.7703C188.706 23.2247 188.774 23.6852 188.811 24.1486C188.862 24.8119 188.862 25.4782 188.811 26.1415C188.778 26.6356 189.549 26.6333 189.582 26.1415L189.589 26.1463Z" fill="#C3937C"/>
<path d="M188.123 24.8271C187.684 24.7634 187.237 24.8634 186.867 25.1082C186.497 25.3529 186.23 25.7252 186.117 26.1542C186.004 26.5831 186.053 27.0386 186.254 27.4339C186.455 27.8292 186.795 28.1367 187.208 28.2976C189.336 29.1747 190.312 25.3047 188.215 25.1132C187.721 25.0683 187.724 25.839 188.215 25.8839C188.842 25.9406 188.615 26.9501 188.404 27.3024C188.073 27.8367 187.43 27.709 187.078 27.2669C186.433 26.4536 187.192 25.4962 188.123 25.612C188.615 25.6711 188.61 24.9028 188.123 24.8413V24.8271Z" fill="#C3937C"/>
<path d="M163.688 4.19317C163.487 3.73926 163.113 2.99693 163.215 2.48628C163.035 2.0371 163.144 1.92598 163.543 2.15767C163.882 2.13087 164.04 2.28848 164.016 2.63049C164.035 2.69486 164.07 2.75331 164.118 2.80016C164.166 2.847 164.225 2.88063 164.29 2.89778C164.354 2.91492 164.422 2.91499 164.487 2.89798C164.552 2.88097 164.611 2.84745 164.659 2.8007C165.191 2.25696 165.735 1.68248 166.402 1.30423C166.961 0.77624 167.404 0.863709 167.73 1.56664C167.488 1.94278 167.199 2.28742 166.872 2.59267C166.657 2.81253 166.796 3.28535 167.144 3.24989C168.392 3.12459 169.574 3.03239 170.704 3.72271V3.0584C169.606 3.61644 168.419 3.97657 167.196 4.12225C167.116 4.12822 167.039 4.15893 166.977 4.21017C166.915 4.26142 166.87 4.33066 166.849 4.40841C166.827 4.48615 166.831 4.56856 166.858 4.64432C166.886 4.72008 166.936 4.78546 167.002 4.83148C167.453 4.94496 167.507 5.20264 167.165 5.60454C167.13 6.29014 166.768 6.42726 166.075 6.01354C165.33 5.78488 164.658 5.36513 164.125 4.79601C164.053 4.72501 163.955 4.68541 163.854 4.68579C163.752 4.68617 163.655 4.72651 163.583 4.79806C163.511 4.86961 163.471 4.9666 163.47 5.06801C163.469 5.16941 163.508 5.26706 163.579 5.33976C164.525 6.28541 166.804 7.66605 168.182 6.72986C169.364 5.91897 168.182 4.63998 167.39 4.16716L167.196 4.87639C168.553 4.71143 169.872 4.31145 171.092 3.69434C171.149 3.65986 171.197 3.61115 171.23 3.55295C171.262 3.49475 171.28 3.42903 171.28 3.36218C171.28 3.29533 171.262 3.22962 171.23 3.17142C171.197 3.11322 171.149 3.06451 171.092 3.03002C169.856 2.2806 168.548 2.32079 167.144 2.45791L167.416 3.1175C167.974 2.55011 169.503 1.0158 168.461 0.259285C167.08 -0.740734 164.915 1.4177 164.113 2.23332L164.759 2.40354C164.567 1.61392 163.749 0.212005 162.754 1.08909C161.884 1.85506 162.673 3.75581 163.033 4.56434C163.234 5.01825 163.898 4.6258 163.699 4.17662L163.688 4.19317Z" fill="#C3937C"/>
<path d="M164.681 3.257C163.827 3.257 162.874 3.53596 162.539 4.40359C162.203 5.27122 162.678 6.03246 163.527 6.28069C164.288 6.50529 165.293 6.33271 165.681 5.57146C165.763 5.41527 165.812 5.24358 165.825 5.06734C165.837 4.89111 165.812 4.71422 165.753 4.548C165.693 4.38178 165.599 4.22988 165.477 4.10202C165.355 3.97416 165.208 3.87316 165.045 3.80547C164.572 3.61871 164.383 4.36577 164.839 4.5478C165.156 4.67547 165.075 5.16484 164.893 5.36106C164.588 5.68494 163.981 5.66367 163.6 5.50291C163.506 5.46589 163.422 5.40658 163.356 5.33008C163.289 5.25357 163.243 5.16215 163.219 5.06362C163.196 4.96509 163.197 4.86239 163.222 4.76432C163.247 4.66626 163.296 4.57574 163.364 4.50052C163.657 4.09626 164.229 4.0277 164.688 4.0277C164.79 4.0277 164.888 3.9871 164.96 3.91483C165.032 3.84256 165.073 3.74455 165.073 3.64235C165.073 3.54015 165.032 3.44214 164.96 3.36987C164.888 3.2976 164.79 3.257 164.688 3.257H164.681Z" fill="#C3937C"/>
</svg>
