<svg width="297" height="284" viewBox="0 0 297 284" fill="none" xmlns="http://www.w3.org/2000/svg">
<path d="M59.8069 276.874C63.2276 273.204 66.4486 269.353 69.4559 265.337L69.4559 283.32L73.7213 279.055L73.7213 259.363C76.5732 255.131 79.1885 250.745 81.5552 246.224C81.6941 246.183 81.8231 246.113 81.9342 246.02C82.0453 245.927 82.1363 245.813 82.2015 245.683C82.2667 245.554 82.3049 245.412 82.3136 245.268C82.3223 245.123 82.3013 244.978 82.2521 244.842C84.7849 239.877 87.018 234.765 88.9395 229.534C91.33 228.944 93.6638 228.145 95.9136 227.145C106.799 231.624 116.583 223.605 119.196 213.045C119.234 212.901 119.23 212.749 119.185 212.607C120.331 212.371 119.865 210.623 118.707 210.837C113.172 211.978 108.367 210.421 103.287 213.692C98.9651 216.462 96.4362 220.857 94.8458 225.605C93.1421 226.353 91.3882 226.98 89.597 227.482C91.7636 221.275 93.4857 214.922 94.7503 208.471C94.9904 208.44 95.2177 208.345 95.4078 208.195L106.001 199.479C106.94 200.398 108.184 200.941 109.497 201.005C110.809 201.069 112.1 200.65 113.124 199.827C114.149 199.003 114.836 197.833 115.055 196.537C115.275 195.241 115.012 193.91 114.316 192.795C113.621 191.68 112.54 190.859 111.28 190.487C110.019 190.115 108.666 190.217 107.476 190.776C106.287 191.334 105.343 192.309 104.823 193.516C104.304 194.723 104.245 196.079 104.658 197.327L95.4022 204.93C96.2191 200.123 96.7819 195.276 97.0882 190.409C98.2846 190.275 99.4001 189.739 100.252 188.888C101.103 188.037 101.64 186.922 101.775 185.725C101.909 184.529 101.633 183.323 100.991 182.304C100.35 181.285 99.3809 180.515 98.2439 180.119C97.1069 179.723 95.8692 179.726 94.7338 180.126C93.5984 180.526 92.6327 181.301 91.9952 182.322C91.3577 183.343 91.0864 184.551 91.2255 185.746C91.3646 186.942 91.906 188.055 92.761 188.903C93.2796 189.417 93.897 189.82 94.5761 190.089C94.3738 193.461 94.0535 196.827 93.6039 200.154C91.2249 197.909 88.7728 195.746 86.2477 193.663C86.8534 192.515 87.0176 191.185 86.7093 189.924C86.4009 188.663 85.6413 187.559 84.5741 186.82C83.507 186.081 82.2062 185.759 80.9175 185.914C79.6289 186.07 78.4417 186.692 77.5805 187.663C76.7193 188.634 76.2436 189.887 76.2434 191.185C76.2432 192.483 76.7185 193.736 77.5795 194.707C78.4405 195.678 79.6275 196.3 80.9161 196.456C82.2047 196.612 83.5056 196.29 84.573 195.551C87.5233 197.984 90.3894 200.513 93.1375 203.171C91.032 216.49 86.9601 229.421 81.0551 241.543C78.9207 235.453 76.4613 229.482 73.6876 223.655L73.6819 182.918C79.7083 172.278 84.7821 161.126 88.844 149.593C88.9615 149.552 89.0702 149.489 89.1643 149.407L95.2505 144.018C95.2999 144.05 95.3526 144.076 95.4078 144.097C105.535 146.48 112.728 137.814 112.75 128.283C112.75 128.283 112.75 128.283 112.711 128.244C112.8 128.095 112.843 127.923 112.833 127.75C112.822 127.577 112.76 127.411 112.653 127.274C112.547 127.137 112.401 127.036 112.236 126.983C112.071 126.93 111.894 126.929 111.728 126.979C107.074 128.665 101.275 129.935 97.4253 133.211C94.385 135.791 93.8568 139.253 93.6039 143.001L93.6432 143.04L90.0073 146.26C91.4872 141.746 92.7759 137.194 93.8736 132.604C93.9304 132.469 93.9609 132.324 93.9636 132.177C94.4582 130.109 94.904 128.034 95.3011 125.951C95.3926 125.882 95.4739 125.801 95.5427 125.709C98.1816 122.255 101.15 119.064 104.405 116.184C104.517 116.296 104.624 116.403 104.742 116.521C105.685 117.354 106.896 117.821 108.154 117.836C109.412 117.851 110.633 117.413 111.595 116.603C112.558 115.792 113.197 114.663 113.396 113.42C113.595 112.178 113.34 110.906 112.679 109.835C112.018 108.765 110.995 107.967 109.795 107.589C108.595 107.21 107.299 107.275 106.144 107.772C104.988 108.269 104.049 109.165 103.499 110.297C102.949 111.428 102.824 112.72 103.146 113.936C100.673 116.107 98.352 118.447 96.2003 120.938C96.8596 116.757 97.3354 112.568 97.6276 108.372C97.6251 108.292 97.6138 108.213 97.594 108.136C98.8452 107.956 99.9866 107.322 100.802 106.356C101.616 105.389 102.048 104.157 102.014 102.893C101.981 101.63 101.484 100.422 100.619 99.5007C99.7535 98.579 98.58 98.0071 97.3209 97.8938C96.0618 97.7804 94.8049 98.1334 93.7889 98.8857C92.7729 99.638 92.0686 100.737 91.8097 101.975C91.5508 103.212 91.7553 104.501 92.3844 105.598C93.0135 106.694 94.0235 107.522 95.2224 107.923C95.1543 108.064 95.1124 108.216 95.0988 108.372C94.6615 114.649 93.8054 120.89 92.5361 127.052C91.4963 123.997 90.1815 121.042 88.6079 118.224L88.6923 118.139C89.5581 117.183 90.0457 115.945 90.0639 114.655C90.082 113.365 89.6294 112.113 88.7908 111.134C87.9522 110.154 86.7851 109.513 85.5082 109.332C84.2313 109.151 82.9321 109.441 81.854 110.149C80.7759 110.857 79.9928 111.934 79.6515 113.177C79.3101 114.421 79.4338 115.747 79.9995 116.906C80.5652 118.065 81.5341 118.978 82.7246 119.474C83.9151 119.97 85.2455 120.015 86.4668 119.6C88.6362 123.533 90.2925 127.728 91.3953 132.082C89.8686 138.459 87.9753 144.743 85.725 150.902C83.1364 145.95 80.1757 141.2 76.8683 136.696C76.835 136.553 76.7736 136.418 76.6877 136.3C76.6018 136.181 76.4932 136.081 76.3682 136.004C75.4803 134.779 74.5849 133.562 73.6819 132.352L73.6819 61.0147L126.963 61.0203C133.915 63.7391 141.066 65.9222 148.351 67.5505C144.328 69.6185 140.27 71.6303 136.179 73.586L123.821 70.467C124.023 69.2279 123.77 67.9578 123.109 66.8904C122.448 65.8231 121.424 65.0305 120.225 64.6587C119.026 64.287 117.733 64.3611 116.584 64.8674C115.435 65.3737 114.508 66.278 113.973 67.4138C113.439 68.5497 113.332 69.8405 113.674 71.0484C114.016 72.2564 114.783 73.3001 115.834 73.9873C116.884 74.6745 118.148 74.9589 119.391 74.7881C120.635 74.6173 121.775 74.0027 122.602 73.0577C122.675 72.9847 122.714 72.8892 122.782 72.8105L132.532 75.2776C131.262 75.862 129.997 76.4633 128.699 77.0646C127.593 76.419 126.29 76.1982 125.033 76.4434C123.776 76.6887 122.652 77.3833 121.87 78.3974C121.088 79.4114 120.702 80.6755 120.784 81.9534C120.866 83.2313 121.411 84.4355 122.317 85.341C123.222 86.2465 124.426 86.7912 125.704 86.8734C126.982 86.9556 128.246 86.5697 129.26 85.7877C130.274 85.0057 130.969 83.8811 131.214 82.6243C131.459 81.3675 131.239 80.0644 130.593 78.9585C132.564 78.0518 134.531 77.1377 136.494 76.2161C136.695 76.2359 136.898 76.2015 137.082 76.1166C137.266 76.0316 137.424 75.8991 137.539 75.7327C138.455 75.3 139.354 74.8505 140.264 74.4009C139.634 76.8939 138.749 79.3155 137.623 81.6278C136.381 81.8736 135.271 82.5622 134.499 83.5655C133.727 84.5687 133.345 85.8183 133.426 87.0818C133.506 88.3452 134.043 89.5364 134.936 90.4336C135.829 91.3309 137.018 91.8732 138.281 91.9594C139.544 92.0457 140.795 91.6702 141.802 90.9028C142.809 90.1353 143.503 89.0281 143.754 87.7874C144.006 86.5466 143.798 85.2568 143.169 84.1578C142.541 83.0588 141.535 82.2257 140.338 81.8133C141.584 79.0758 142.524 76.2093 143.142 73.2657C143.153 73.1799 143.153 73.093 143.142 73.0072C150.204 69.5267 157.169 65.8626 164.036 62.015C163.897 63.5346 163.651 65.0427 163.3 66.5277C159.681 66.9436 155.826 68.045 154.112 71.6023C153.433 73.3021 153.14 75.1311 153.252 76.9579C153.19 81.3919 153.139 84.848 151.201 88.8998C151.142 89.016 151.11 89.1437 151.106 89.2738C151.102 89.4039 151.127 89.5333 151.178 89.6528C151.194 89.7736 151.236 89.8894 151.302 89.9921C151.368 90.0948 151.455 90.1818 151.558 90.2472C151.661 90.3125 151.776 90.3546 151.897 90.3703C152.018 90.3861 152.141 90.3752 152.257 90.3384C159.827 88.1523 177.13 74.0637 165.104 66.803C165.559 64.9152 165.85 62.9919 165.975 61.0541H205.886C210.016 64.5516 214.512 67.5926 219.295 70.1243C212.778 73.8802 206.031 77.2195 199.092 80.1218C193.998 78.5694 188.812 77.3363 183.565 76.4297C183.764 75.1885 183.508 73.9172 182.844 72.8498C182.18 71.7825 181.152 70.9909 179.951 70.621C178.75 70.2511 177.455 70.3277 176.306 70.8367C175.156 71.3457 174.23 72.2529 173.696 73.3911C173.163 74.5293 173.058 75.822 173.403 77.0311C173.747 78.2401 174.516 79.2841 175.569 79.9707C176.622 80.6574 177.887 80.9405 179.133 80.7679C180.378 80.5953 181.519 79.9787 182.345 79.0316C182.401 78.9593 182.454 78.8842 182.502 78.8067C186.817 79.5349 191.09 80.4879 195.304 81.6616C191.938 82.9823 188.538 84.2129 185.076 85.3369C185.076 85.3369 185.037 85.3763 185.02 85.3931C184.723 84.6454 184.256 83.9775 183.654 83.443C182.771 82.6546 181.648 82.1872 180.466 82.1165C179.284 82.0457 178.113 82.3757 177.141 83.053C176.17 83.7303 175.456 84.7153 175.114 85.8489C174.772 86.9825 174.823 88.1983 175.257 89.2996C175.692 90.401 176.485 91.3236 177.509 91.9181C178.533 92.5127 179.728 92.7445 180.9 92.5761C182.072 92.4077 183.153 91.8488 183.968 90.9899C184.783 90.1311 185.284 89.0224 185.391 87.8432C185.506 87.8431 185.621 87.83 185.734 87.804C187.292 87.2945 188.838 86.7681 190.37 86.2248C189.288 88.6487 188.022 90.986 186.582 93.2158C185.592 93.0169 184.563 93.1792 183.682 93.6735C182.8 94.1677 182.125 94.9612 181.779 95.9102C181.432 96.8592 181.437 97.9009 181.792 98.8469C182.147 99.7928 182.829 100.58 183.714 101.067C184.6 101.553 185.63 101.707 186.619 101.499C187.608 101.291 188.489 100.736 189.104 99.9348C189.719 99.1332 190.027 98.1378 189.972 97.129C189.916 96.1202 189.501 95.1646 188.802 94.4352C190.685 91.5 192.286 88.3935 193.585 85.157C193.585 85.157 193.59 85.0953 193.601 85.0616C195.538 84.3385 197.464 83.5816 199.379 82.7911C199.525 82.7909 199.67 82.7597 199.804 82.6997C199.937 82.6396 200.057 82.5521 200.154 82.4427C204.822 80.4795 209.395 78.331 213.872 75.9969C212.865 77.6977 211.959 79.456 211.157 81.2627C211.006 81.2549 210.854 81.2798 210.713 81.3357C205.414 83.6904 200.418 87.3038 199.058 93.2832C197.428 100.465 203.824 105.433 204.436 112.216C204.521 113.256 206.032 113.351 206.212 112.475C215.642 104.742 224.471 90.5407 213.574 80.3859C214.603 78.2809 215.773 76.2476 217.075 74.2997C218.795 73.3556 220.492 72.3891 222.178 71.3887C222.445 71.4 222.711 71.3331 222.941 71.1964C223.172 71.0598 223.357 70.8591 223.476 70.6188C228.384 67.6665 233.149 64.482 237.773 61.0653L240.622 61.0596C240.526 61.8857 240.47 62.7063 240.414 63.5155L240.403 63.5941L240.369 63.6278C236.283 66.4321 232.653 70.6357 233.417 75.9407C234.238 81.6841 239.97 84.9884 241.92 90.2317C241.98 90.3789 242.075 90.5094 242.196 90.6121C242.317 90.7148 242.462 90.7866 242.617 90.8214C242.772 90.8562 242.933 90.853 243.087 90.812C243.24 90.7709 243.382 90.6932 243.499 90.5857C243.673 90.6194 243.852 90.5994 244.014 90.5281C244.176 90.4567 244.312 90.3376 244.404 90.1867C247.377 85.5841 250.029 80.5376 249.327 74.8786C249.017 72.5525 248.223 70.3171 246.997 68.3164C245.771 66.3158 244.139 64.5942 242.206 63.2626C242.24 62.5208 242.313 61.7734 242.414 61.0428L262.202 61.0371C265.151 63.4761 268.273 65.6999 271.541 67.691C272.946 68.5339 274.188 66.3253 272.795 65.4824C270.54 64.1218 268.362 62.6378 266.27 61.0372L291.789 61.0427L296.043 56.7887L261.033 56.7999C256.981 53.2201 253.221 49.3369 249.512 45.3581C249.572 45.2434 249.607 45.1167 249.613 44.9871C249.67 43.807 249.799 42.6438 249.951 41.4805C260.15 38.7999 264.309 23.9975 258.447 15.7646C258.374 15.6458 258.274 15.5458 258.155 15.4724C258.1 15.3074 257.999 15.1616 257.863 15.0522C257.728 14.9428 257.564 14.8744 257.391 14.855C257.218 14.8355 257.043 14.8657 256.887 14.9422C256.731 15.0188 256.599 15.1384 256.509 15.287C253.727 20.2155 247.388 22.4521 245.488 27.7571C244.01 31.8988 245.73 36.1586 247.854 39.699C247.905 39.7917 247.974 39.8733 248.057 39.9389C248.14 40.0045 248.236 40.0528 248.338 40.0811C248.152 41.2444 248.006 42.4246 247.916 43.6159C245.758 41.2781 243.606 38.9347 241.425 36.6194C237.289 32.2188 232.841 28.1208 228.118 24.3571C228.085 24.179 228.01 24.0114 227.899 23.8682C224.272 18.743 220.484 13.7414 216.536 8.86353C216.635 8.77555 216.729 8.68172 216.817 8.58255C217.541 7.77283 217.954 6.73224 217.983 5.64618C218.012 4.56011 217.654 3.49928 216.973 2.65244C216.293 1.8056 215.334 1.22778 214.267 1.02218C213.2 0.816573 212.095 0.996381 211.148 1.52959C210.202 2.06282 209.475 2.9149 209.098 3.93382C208.721 4.95274 208.718 6.07242 209.09 7.09334C209.461 8.11426 210.183 8.97013 211.127 9.50841C212.071 10.0467 213.175 10.2324 214.243 10.0325C216.79 13.187 219.272 16.3846 221.689 19.6253C216.364 16.0037 210.708 12.8952 204.796 10.3415C205.073 9.10814 204.89 7.81614 204.282 6.70793C203.674 5.59973 202.682 4.7516 201.493 4.32269C200.304 3.89378 198.999 3.91354 197.824 4.3784C196.648 4.84325 195.683 5.72113 195.109 6.84731C194.535 7.97349 194.391 9.27063 194.706 10.495C195.02 11.7194 195.77 12.7869 196.816 13.4973C197.862 14.2076 199.13 14.512 200.385 14.3531C201.639 14.1942 202.792 13.5831 203.627 12.6344L203.666 12.595C208.734 14.7861 213.607 17.403 218.233 20.4177C215.309 21.1413 212.319 21.5669 209.309 21.6878C208.544 20.647 207.427 19.9205 206.165 19.6443C204.904 19.3681 203.585 19.5612 202.456 20.1873C201.326 20.8134 200.464 21.8297 200.03 23.0459C199.596 24.262 199.62 25.5947 200.097 26.7944C200.575 27.9941 201.474 28.9787 202.625 29.5636C203.776 30.1485 205.101 30.2937 206.352 29.9722C207.602 29.6506 208.693 28.8842 209.419 27.8165C210.146 26.7488 210.458 25.4531 210.298 24.1718C213.873 23.9729 217.414 23.3658 220.851 22.3622C220.896 22.3412 220.94 22.3167 220.981 22.2891C227.459 26.8747 233.49 32.0623 238.992 37.7827C237.632 37.8951 236.266 37.9907 234.901 38.0525C234.845 37.9744 234.777 37.906 234.698 37.8502C234.683 37.7097 234.631 37.5759 234.547 37.4624C232.007 34.0456 227.494 30.2185 222.908 30.6568C220.998 30.9547 219.207 31.7735 217.733 33.0229C214.642 35.282 212.141 37.1982 208.263 37.9288C207.168 38.1367 207.572 39.7439 208.595 39.6765C212.669 43.6946 217.738 47.044 223.678 46.8923C225.975 46.8788 228.221 46.2095 230.15 44.963C232.08 43.7166 233.613 41.9448 234.569 39.8564C236.592 39.7665 238.615 39.6428 240.639 39.463C241.262 40.0868 241.858 40.75 242.454 41.4018C244.668 43.8071 246.86 46.2123 249.085 48.5614C245.876 51.4218 242.594 54.1531 239.217 56.7662L204.594 56.7605C197.288 50.5788 190.314 43.7622 182.429 38.4627C182.46 38.3194 182.454 38.1706 182.413 38.03C181.345 34.5922 179.97 31.2575 178.304 28.0662C178.381 28.0127 178.448 27.9461 178.501 27.8694C181.277 23.3062 181.974 19.4399 178.67 14.9104C174.601 9.33561 167.762 5.34 161.591 2.60879C161.412 2.5278 161.211 2.5049 161.018 2.54336C160.825 2.58181 160.648 2.67964 160.513 2.82327C160.379 2.96688 160.292 3.14908 160.265 3.34436C160.239 3.53966 160.274 3.73832 160.366 3.91259C160.996 9.95942 159.832 15.9782 163.142 21.4462C164.601 23.8323 166.585 25.8544 168.942 27.3589C171.3 28.8634 173.969 29.8106 176.748 30.1286C176.934 30.1485 177.121 30.1133 177.287 30.0275C178.393 32.2842 179.353 34.6101 180.159 36.9904C172.07 31.972 163.489 27.7936 154.55 24.5201C154.514 24.3518 154.443 24.1928 154.342 24.0537C150.534 18.844 146.149 14.0818 141.27 9.85827C141.185 9.79335 141.093 9.73872 140.995 9.69537C141.676 8.60053 141.931 7.29346 141.71 6.02306C141.49 4.75264 140.81 3.60754 139.801 2.80591C138.791 2.00429 137.521 1.60203 136.234 1.67578C134.947 1.74954 133.731 2.29422 132.82 3.20594C131.908 4.11767 131.363 5.33281 131.29 6.62008C131.216 7.90733 131.618 9.17672 132.42 10.1866C133.221 11.1965 134.367 11.8762 135.637 12.0965C136.907 12.3168 138.214 12.0623 139.309 11.3813C139.359 11.4674 139.419 11.5467 139.489 11.6172C143.471 15.0771 147.114 18.9083 150.369 23.059C145.959 21.5791 141.484 20.311 136.943 19.2544C137.109 18.0115 136.823 16.7505 136.136 15.7011C135.45 14.6518 134.409 13.8839 133.204 13.5375C131.999 13.1911 130.71 13.2893 129.571 13.8141C128.432 14.3389 127.52 15.2553 127 16.3965C126.481 17.5377 126.388 18.8277 126.74 20.0312C127.092 21.2347 127.865 22.2717 128.917 22.9532C129.97 23.6347 131.232 23.9152 132.475 23.7438C133.717 23.5724 134.856 22.9605 135.684 22.0194C135.788 21.8956 135.882 21.764 135.965 21.626C138.893 22.3059 141.799 23.0646 144.665 23.9188C139.994 25.7639 135.183 27.2334 130.278 28.3135C129.942 27.2068 129.249 26.2429 128.306 25.5731C127.363 24.9033 126.224 24.5656 125.069 24.6128C123.913 24.66 122.806 25.0895 121.921 25.8339C121.036 26.5784 120.423 27.5956 120.178 28.726C119.934 29.8564 120.071 31.036 120.57 32.0797C121.068 33.1234 121.899 33.972 122.932 34.4926C123.964 35.0131 125.141 35.1761 126.276 34.9559C127.412 34.7356 128.442 34.1447 129.205 33.2757C129.799 32.5961 130.204 31.7724 130.379 30.8873C136.539 29.5565 142.555 27.6351 148.346 25.1496C148.37 25.1294 148.393 25.1068 148.413 25.0821C155.885 27.5145 163.139 30.5693 170.1 34.2142C168.136 35.8379 166.025 37.2752 163.794 38.5076C163.732 38.3132 163.597 38.1501 163.418 38.0524C159.512 35.7652 155.157 33.3431 150.453 34.2479C144.71 35.3606 141.54 41.0703 137.072 44.2567C136.895 44.2997 136.734 44.3931 136.609 44.5256C136.483 44.658 136.399 44.8239 136.366 45.0033C136.332 45.1827 136.352 45.3678 136.421 45.5365C136.491 45.7051 136.608 45.85 136.758 45.9537C142.119 49.5841 147.199 52.3715 153.78 50.871C159.473 49.5953 164.413 46.6338 164.014 40.4465C166.793 38.9672 169.404 37.1923 171.802 35.1527C175.107 36.9398 178.361 38.8449 181.525 40.9073C183.52 42.2167 185.442 43.6328 187.335 45.1108C181.034 49.1645 174.659 53.0628 168.211 56.8055L123.254 56.8055C118.095 54.6064 113.056 52.1523 108.137 49.4436C107.631 48.0837 107.119 46.7293 106.58 45.3806C106.761 45.4229 106.951 45.4102 107.125 45.3441C107.299 45.278 107.45 45.1616 107.558 45.0097C115.701 33.8882 102.719 26.2454 93.8681 22.4858C92.9183 22.0868 92.1035 23.2838 92.7048 23.8738C92.2889 28.0999 91.9461 32.635 94.0141 36.5127C96.0822 40.3903 100.353 43.099 104.248 45.0603C104.341 45.0988 104.44 45.1252 104.54 45.1389C104.928 46.0999 105.332 47.0553 105.675 48.05C98.2082 43.7714 91.0244 39.0166 84.1684 33.8152C84.2383 33.598 84.2402 33.3647 84.174 33.1464C83.2111 29.8765 81.9916 26.6877 80.5268 23.6098C81.6239 23.256 82.5733 22.5491 83.2266 21.5994C83.8799 20.6496 84.2006 19.5104 84.1386 18.3592C84.0766 17.2081 83.6354 16.1099 82.8838 15.2358C82.1322 14.3617 81.1125 13.7609 79.9837 13.5271C78.8549 13.2933 77.6804 13.4397 76.6434 13.9433C75.6065 14.4469 74.7654 15.2795 74.2512 16.3113C73.7371 17.343 73.5788 18.516 73.8012 19.6471C74.0235 20.7782 74.6139 21.804 75.4803 22.5645C76.1644 23.1688 76.9995 23.5767 77.8968 23.7446C77.9089 23.89 77.945 24.0324 78.0035 24.1661C79.1378 26.4896 80.1232 28.8828 80.9539 31.3313C78.0916 29.0909 75.293 26.783 72.558 24.4077C73.0711 23.2549 73.1452 21.9544 72.7664 20.7508C72.3876 19.5471 71.5821 18.5234 70.5013 17.8722C69.4205 17.221 68.1389 16.9873 66.8978 17.215C65.6567 17.4426 64.5415 18.116 63.7622 19.1084C62.9828 20.1008 62.593 21.3438 62.6661 22.6035C62.7392 23.8632 63.2701 25.0528 64.1589 25.9484C65.0478 26.844 66.2333 27.384 67.4924 27.4666C68.7516 27.5492 69.9974 27.1689 70.9957 26.3971C75.9523 30.6681 81.1 34.7593 86.4275 38.6144C80.2739 42.8236 72.9907 42.1043 66.0166 40.8174C66.1975 39.5757 65.9252 38.3104 65.2495 37.2531C64.5739 36.1959 63.5401 35.4172 62.3373 35.0597C61.1346 34.7023 59.8433 34.7898 58.6999 35.3064C57.5564 35.823 56.6372 36.7342 56.1105 37.873C55.5837 39.0118 55.4847 40.3023 55.8315 41.5082C56.1784 42.714 56.9478 43.7546 57.9991 44.4396C59.0504 45.1246 60.3131 45.4082 61.5563 45.2383C62.7995 45.0685 63.94 44.4567 64.769 43.5148C64.8522 43.4127 64.9291 43.3058 64.9995 43.1945C72.7828 44.65 81.0214 45.5042 87.8662 40.6937C88.089 40.5299 88.2511 40.2966 88.327 40.0306C97.3884 46.4734 107 52.1056 117.049 56.8617L69.4616 56.8617L69.4615 126.749C66.3875 122.629 63.4034 118.443 60.7004 114.076C56.7741 107.528 53.9474 100.38 52.3326 92.9179C53.0445 88.6742 54.3657 84.5555 56.2551 80.6894C57.4985 80.8614 58.7622 80.5805 59.8155 79.8979C60.8689 79.2154 61.6416 78.1768 61.9927 76.9717C62.3437 75.7667 62.2495 74.4756 61.7275 73.3342C61.2054 72.1927 60.2903 71.2771 59.1491 70.7545C58.0079 70.232 56.7167 70.1374 55.5115 70.4878C54.3063 70.8383 53.2674 71.6106 52.5844 72.6636C51.9014 73.7167 51.62 74.9802 51.7914 76.2236C51.9629 77.467 52.5758 78.6073 53.5184 79.4362C53.6308 79.5485 53.7825 79.6216 53.9117 79.7172C52.7978 82.0184 51.875 84.4073 51.1525 86.8598C50.1263 80.2444 49.4491 73.5795 49.1237 66.8929C50.2008 66.2337 51.0006 65.2043 51.3732 63.9977C51.7458 62.7912 51.6656 61.4901 51.1478 60.3384C50.63 59.1866 49.71 58.2632 48.5601 57.7411C47.4103 57.219 46.1096 57.1341 44.9016 57.5022C43.6937 57.8703 42.6614 58.6662 41.9981 59.7408C41.3349 60.8155 41.0862 62.095 41.2987 63.3398C41.5112 64.5846 42.1703 65.7092 43.1525 66.5029C44.1346 67.2967 45.3725 67.7051 46.6342 67.6516C46.9096 72.1979 47.2299 76.7556 47.7413 81.2682C44.5123 77.8013 40.9948 74.6147 37.2267 71.7428C37.892 70.637 38.1297 69.3261 37.8951 68.0572C37.6605 66.7883 36.9698 65.6491 35.9532 64.8543C34.9366 64.0595 33.6643 63.6642 32.3762 63.7428C31.0882 63.8214 29.8735 64.3685 28.961 65.281C28.0486 66.1934 27.5015 67.4081 27.4229 68.6962C27.3443 69.9842 27.7396 71.2565 28.5344 72.2731C29.3291 73.2898 30.4684 73.9805 31.7373 74.2151C33.0062 74.4497 34.3171 74.2119 35.4228 73.5467C40.0959 77.0634 44.3666 81.0853 48.1572 85.5392C48.2077 85.5897 48.2471 85.6291 48.2977 85.6797C49.5733 94.4521 51.7762 103.028 56.0304 111.036C56.3788 111.688 56.7497 112.34 57.115 112.986C55.2118 112.132 53.3685 111.191 51.5851 110.165C51.5278 110.125 51.4655 110.093 51.3997 110.069C51.3154 109.985 51.1918 109.94 51.0906 109.884C51.1488 107.642 50.6816 105.418 49.7263 103.389C48.7709 101.361 47.354 99.5835 45.5889 98.2004C40.0647 93.8002 33.5121 94.542 27.0269 93.3169C26.8343 93.2792 26.6346 93.3035 26.4566 93.3862C26.2785 93.4689 26.1312 93.6058 26.0358 93.7774C25.9404 93.9489 25.9017 94.1463 25.9253 94.3412C25.9488 94.5361 26.0335 94.7185 26.1671 94.8624C26.1743 95.007 26.221 95.1469 26.302 95.267C30.7528 102.056 40.7728 121.258 51.2255 112.008C53.6264 113.343 56.1033 114.537 58.6436 115.582C61.9143 120.932 65.657 125.967 69.4335 130.969L69.4335 134.667C68.1072 131.396 65.5502 129.266 61.9311 128.097C56.2327 126.254 51.6694 129.075 46.0329 128.317C45.8445 128.289 45.6523 128.319 45.4816 128.404C45.311 128.488 45.17 128.622 45.0775 128.789C44.9336 128.839 44.8045 128.924 44.702 129.037C44.5995 129.149 44.5267 129.286 44.4904 129.434C44.4541 129.582 44.4554 129.737 44.4942 129.884C44.5329 130.031 44.6079 130.167 44.7123 130.278C48.101 133.869 51.3491 137.735 54.9738 141.09C57.1037 143.052 59.5146 144.507 62.5099 144.232C65.1738 143.851 67.6239 142.56 69.4447 140.579L69.439 185.34C66.4643 190.405 63.3323 195.294 60.0429 200.007C57.4016 196.13 54.6142 192.361 51.6807 188.701C52.0853 186.048 52.6529 183.367 53.0744 180.709C57.2611 177.759 60.869 172.971 60.4025 167.672C60.2058 165.362 59.02 163.682 57.4971 162.013C54.5411 158.753 51.1244 155.82 47.9549 152.762C47.8124 152.629 47.6307 152.544 47.4367 152.521C47.2427 152.499 47.0465 152.538 46.8768 152.635C46.7071 152.732 46.5728 152.881 46.4937 153.059C46.4147 153.238 46.395 153.437 46.4375 153.628C46.9938 157.253 44.5324 159.59 43.3691 162.653C42.5852 164.665 42.3411 166.846 42.6611 168.981C43.3579 173.809 45.8852 178.183 49.7194 181.198C49.8365 181.295 49.976 181.361 50.1251 181.391C50.2743 181.42 50.4284 181.412 50.5736 181.367C50.6372 181.457 50.7182 181.534 50.8118 181.593C50.9053 181.652 51.0097 181.691 51.1187 181.71C50.8096 183.412 50.4668 185.115 50.169 186.796C42.7719 177.814 34.5251 169.567 25.5433 162.17C25.6746 161.911 25.7008 161.611 25.6164 161.332C24.4413 157.684 23.5637 153.945 22.992 150.155C23.9007 149.924 24.7312 149.455 25.3972 148.795C26.244 147.959 26.7881 146.864 26.9437 145.684C27.0994 144.504 26.8575 143.306 26.2565 142.279C25.6556 141.252 24.7296 140.454 23.6248 140.011C22.52 139.569 21.2992 139.507 20.1553 139.835C19.0113 140.163 18.0093 140.863 17.3074 141.824C16.6054 142.786 16.2435 143.953 16.2788 145.143C16.3141 146.332 16.7445 147.476 17.5022 148.394C18.2599 149.312 19.3017 149.951 20.4631 150.211C20.8894 153.425 21.5754 156.599 22.5143 159.703C18.8109 156.786 15.0063 153.993 11.0557 151.358C11.4082 150.119 11.2962 148.794 10.7407 147.632C10.1853 146.47 9.22459 145.551 8.0392 145.047C6.85381 144.543 5.52533 144.49 4.30328 144.896C3.08123 145.303 2.04976 146.142 1.40269 147.256C0.755622 148.369 0.537483 149.681 0.789253 150.944C1.04102 152.207 1.74538 153.335 2.76998 154.115C3.79458 154.896 5.06887 155.275 6.35349 155.182C7.6381 155.089 8.84462 154.531 9.7463 153.611L9.80248 153.555C15.8628 157.614 21.6694 162.039 27.1899 166.806C22.9189 166.334 18.631 165.924 14.3376 165.632C14.0737 165.019 13.6962 164.462 13.2249 163.991C12.3637 163.112 11.2278 162.555 10.0061 162.411C8.78434 162.268 7.55025 162.547 6.50886 163.201C5.46747 163.856 4.6815 164.848 4.28153 166.011C3.88157 167.174 3.89165 168.439 4.31019 169.596C4.72873 170.753 5.53051 171.732 6.58225 172.37C7.63399 173.008 8.87237 173.267 10.0917 173.104C11.311 172.941 12.4378 172.365 13.2848 171.473C14.1318 170.581 14.6481 169.426 14.7478 168.2C19.9779 168.559 25.1912 169.056 30.3875 169.689C38.8736 177.383 46.5971 185.878 53.4509 195.057C52.1584 194.978 50.8771 194.865 49.5902 194.759C49.5637 194.655 49.5241 194.555 49.4722 194.461C46.9658 190.628 43.2848 187.374 38.6373 186.56C32.9052 185.548 27.4372 189.274 21.9523 190.319C20.9183 190.521 21.1768 192.084 22.1827 192.101C29.6682 192.235 31.3542 199.788 37.8562 201.39C42.352 202.514 46.2633 199.895 49.3541 196.95C49.4545 196.853 49.5314 196.734 49.5789 196.602C51.2648 196.744 52.9564 196.862 54.6535 196.956C54.709 196.955 54.764 196.946 54.8165 196.928C60.3149 204.492 65.208 212.478 69.4503 220.812L69.4503 224.262C68.731 223.858 67.9892 223.476 67.2024 223.138C67.328 223.04 67.421 222.905 67.4691 222.753C67.5172 222.6 67.5182 222.437 67.4721 222.284C63.8867 206.998 49.1743 215.226 38.5024 214.242C38.3334 214.227 38.1641 214.267 38.0192 214.355C37.8731 214.321 37.7325 214.282 37.5808 214.254C36.4456 214.051 35.9736 215.793 37.1031 216.024C44.1952 217.328 46.2914 225.808 53.0744 228.084C55.4137 228.865 57.9055 229.079 60.3436 228.706C62.7818 228.334 65.0962 227.387 67.0956 225.943C67.2036 225.871 67.2951 225.778 67.3639 225.668C67.4328 225.559 67.4773 225.436 67.4947 225.308C68.1522 225.639 68.7872 226.004 69.4166 226.387L69.4166 261.229C65.9116 266.127 62.0896 270.79 57.9748 275.188C56.9015 276.273 58.6885 278.071 59.8069 276.874ZM108.429 213.349C111.379 212.545 114.369 213.028 117.37 212.826C115.094 221.565 107.299 228.831 98.1447 226.038C101.483 224.274 104.563 222.06 107.299 219.457C107.443 219.284 107.517 219.062 107.506 218.837C107.496 218.612 107.402 218.398 107.242 218.239C107.083 218.079 106.869 217.985 106.644 217.974C106.419 217.964 106.197 218.038 106.024 218.182C103.402 220.675 100.448 222.793 97.2455 224.476C99.3192 219.367 102.882 214.872 108.429 213.349ZM102.427 132.335C105.164 131.093 108.103 130.143 110.941 129.16C110.547 136.78 105.085 143.771 96.9701 142.535L102.927 137.252C103.804 136.476 102.517 135.201 101.646 135.971L95.6888 141.253C95.9027 139.297 96.6419 137.435 97.8282 135.865C99.0144 134.295 100.603 133.075 102.427 132.335ZM205.892 110.345C204.886 106.158 202.042 102.887 200.93 98.6388C199.036 91.541 204.436 86.4777 210.146 83.5779C208.733 87.2361 207.731 91.0395 207.156 94.9186C206.988 96.0538 208.752 96.5145 208.926 95.3962C209.599 90.8164 210.89 86.3492 212.765 82.1167C221.734 91.142 214.001 103.269 205.892 110.345ZM247.573 76.261C247.731 80.8467 245.545 84.9098 243.139 88.6863C241.881 85.9776 239.947 83.8533 238.082 81.4706C233.648 75.789 234.878 70.0625 240.251 65.9039C240.086 69.0094 240.084 72.1214 240.245 75.227C240.296 76.4016 242.117 76.3903 242.055 75.227C241.897 72.316 241.858 69.4106 241.993 66.4883L242.027 65.4881C243.66 66.7893 245 68.4223 245.956 70.2793C246.912 72.1364 247.463 74.1752 247.573 76.261ZM250.591 24.093C253.148 21.8282 255.475 20.1086 257.335 17.3493C261.634 24.4695 258.549 36.5464 250.299 39.4237C250.901 35.9411 251.924 32.5445 253.345 29.3082C253.806 28.2517 252.238 27.3468 251.766 28.4146C250.461 31.3769 249.463 34.4652 248.787 37.631C246.213 32.843 245.966 28.201 250.591 24.093ZM221.205 44.9254C217.064 44.3129 213.625 41.9975 210.629 39.2045C213.2 38.3505 215.592 37.0325 217.688 35.3156C220.222 33.3543 222.369 31.8595 225.718 32.9047C228.518 33.9218 230.957 35.7393 232.732 38.1312C228.511 38.2716 224.28 38.2548 220.054 38.0187C218.873 37.9625 218.89 39.7665 220.053 39.8283C224.206 40.0587 228.359 40.0756 232.524 39.9351C230.315 43.9195 225.763 45.6279 221.205 44.9254ZM163.648 18.4452C161.884 14.1293 162.524 9.45365 162.21 4.94663C170.639 8.88043 182.609 16.3547 177.287 26.3185C174.925 22.161 172.066 18.3056 168.773 14.8373C168.604 14.6674 168.373 14.572 168.133 14.572C167.892 14.572 167.662 14.6675 167.492 14.8374C167.322 15.0073 167.227 15.2377 167.227 15.4779C167.227 15.7182 167.322 15.9487 167.492 16.1186C170.96 19.7721 173.925 23.8713 176.309 28.3078C170.673 27.2907 165.891 23.902 163.648 18.4452ZM158.281 47.2238C155.784 48.6567 152.972 49.4538 150.093 49.5448C145.828 49.5841 142.243 47.4598 138.815 45.1782C141.613 42.9416 143.788 40.0362 146.727 37.985C152.015 34.2816 157.152 36.552 162.114 39.4012C159.139 40.87 156 41.9793 152.763 42.7056C151.628 42.9641 152.088 44.7174 153.241 44.4758C156.344 43.7669 159.361 42.721 162.238 41.3568C162.193 44.0655 160.99 45.7178 158.293 47.2127L158.281 47.2238ZM95.3629 35.0964C93.8344 31.837 94.0648 28.1785 94.402 24.6718C102.225 28.1448 113.003 34.3491 105.995 44.0206C104.495 40.3397 102.893 36.7037 101.157 33.1239C100.645 32.073 99.0662 32.9666 99.5832 34.0232C100.96 36.8499 102.247 39.7103 103.472 42.6101C100.196 40.7949 96.9757 38.5077 95.3741 35.0853L95.3629 35.0964ZM162.474 82.3023C159.925 84.7902 156.896 86.7329 153.572 88.0119C154.466 85.8471 154.998 83.5496 155.146 81.212C155.252 79.2394 154.859 77.2051 155.106 75.2382C155.68 70.7199 158.821 69.0059 162.828 68.4383C162.34 70.0594 161.725 71.6397 160.99 73.1646C160.479 74.2042 162.041 75.1033 162.558 74.0581C163.399 72.324 164.094 70.5233 164.637 68.6744C169.369 72.2823 166.065 78.8799 162.474 82.3023ZM257.245 56.8112L243.64 56.8055C243.642 56.7148 243.625 56.6246 243.589 56.5414C246.039 54.5707 248.444 52.5401 250.805 50.4495C252.873 52.5963 255.031 54.7544 257.25 56.8056L257.245 56.8112ZM233.412 61.0766C229.661 63.7328 225.812 66.2523 221.863 68.6351C217.596 66.5472 213.559 64.0176 209.82 61.0878L233.412 61.0766ZM189.218 46.9036C189.267 46.8595 189.314 46.8126 189.358 46.7631C193.281 49.9776 197.058 53.4393 200.89 56.8111L173.202 56.8054C178.616 53.6097 183.96 50.3035 189.235 46.8867L189.218 46.9036ZM160.67 61.0653C157.77 62.6613 154.85 64.2367 151.909 65.7915C145.97 64.5946 140.116 63.0158 134.381 61.0652L160.67 61.0653ZM28.5667 95.385C37.5527 96.8292 48.8203 97.4193 49.3204 108.766C45.6064 106.431 42.1333 103.733 38.952 100.712C38.7782 100.569 38.557 100.495 38.3317 100.505C38.1063 100.516 37.893 100.61 37.7335 100.77C37.5739 100.929 37.4796 101.142 37.4691 101.368C37.4585 101.593 37.5324 101.814 37.6763 101.988C41.3064 105.438 45.31 108.473 49.6127 111.036C41.1381 117.645 32.6973 102.022 28.5499 95.3569L28.5667 95.385ZM51.0288 179.889C46.2577 175.961 42.7678 169.38 45.2012 163.238C46.3027 160.428 47.9492 158.242 48.2639 155.454C51.2929 158.191 54.7771 160.99 57.025 164.215C60.4362 169.099 57.5421 174.623 53.4622 178.141C53.8836 174.179 53.7263 170.257 51.8774 166.441C51.366 165.39 49.7924 166.278 50.3038 167.329C52.2202 171.279 52.1303 175.438 51.5121 179.608L51.0288 179.889ZM38.2833 199.378C34.962 198.575 33.2985 195.877 30.9045 193.708C29.5666 192.452 27.9738 191.499 26.2346 190.915C29.5278 189.712 32.7984 188.217 36.086 188.133C40.7616 188.009 44.7122 190.904 47.3423 194.545C44.4369 194.259 41.5371 193.91 38.6485 193.461C37.5133 193.281 37.0581 195.051 38.1708 195.231C41.1905 195.695 44.2177 196.077 47.2524 196.377C44.6842 198.653 41.8462 200.232 38.2889 199.372L38.2833 199.378ZM47.539 221.863C45.617 219.682 44.0154 217.519 41.8518 215.996C51.0963 215.349 62.6392 210.37 65.6682 222.402C62.3653 221.085 58.9308 220.126 55.4235 219.542C54.2827 219.345 53.8106 221.087 54.9458 221.312C58.7214 221.924 62.4087 222.992 65.9267 224.493C59.8068 228.556 52.4281 227.404 47.5446 221.857L47.539 221.863ZM60.2058 142.242C58.0197 141.517 56.2327 139.764 54.676 138.162C52.1135 135.521 49.6182 132.812 47.1062 130.132C49.3872 130.047 51.6549 129.744 53.878 129.227C59.3966 128.283 65.6738 130.222 67.8262 135.51C64.4854 134.745 61.2087 133.723 58.0254 132.453C56.9408 132.054 56.4856 133.801 57.5477 134.223C61.0854 135.638 64.7489 136.716 68.4893 137.443C68.6043 137.581 68.7628 137.676 68.9389 137.713C68.8434 140.899 62.0828 142.86 60.2114 142.237L60.2058 142.242ZM73.7157 137.859C73.991 137.853 74.2608 137.82 74.5362 137.803C78.1364 142.64 81.3192 147.774 84.0504 153.15C84.1126 153.287 84.2027 153.41 84.3149 153.511C84.4272 153.611 84.5591 153.688 84.7023 153.735C81.5541 161.942 77.8845 169.941 73.7157 177.68L73.7157 137.859ZM61.5658 202.216C64.2895 198.331 66.9196 194.318 69.4559 190.179L69.4615 215.361C67.0151 210.861 64.3851 206.478 61.5715 202.21L61.5658 202.216ZM73.7269 229.742C75.8737 234.608 77.8087 239.578 79.5321 244.651C77.7375 248.101 75.8025 251.464 73.7269 254.738L73.7269 229.742Z" fill="#C3937C"/>
<path d="M50.7865 163.733C50.9564 163.563 51.0519 163.333 51.0519 163.092C51.0519 162.852 50.9565 162.622 50.7865 162.452C50.6166 162.282 50.3862 162.186 50.1459 162.186C49.9056 162.186 49.6751 162.282 49.5052 162.452C49.3353 162.622 49.2399 162.852 49.2399 163.092C49.2399 163.333 49.3354 163.563 49.5053 163.733C49.6752 163.903 49.9056 163.998 50.1459 163.998C50.3862 163.998 50.6166 163.903 50.7865 163.733Z" fill="#C3937C"/>
<path d="M34.5568 192.899C34.4129 193.073 34.339 193.294 34.3496 193.519C34.3601 193.745 34.4544 193.958 34.6139 194.118C34.7734 194.277 34.9868 194.371 35.2122 194.382C35.4375 194.392 35.6587 194.319 35.8325 194.175C35.9764 194.001 36.0502 193.78 36.0397 193.554C36.0291 193.329 35.9349 193.116 35.7754 192.956C35.6158 192.797 35.4025 192.702 35.1771 192.692C34.9517 192.681 34.7306 192.755 34.5568 192.899Z" fill="#C3937C"/>
<path d="M50.8431 218.581C49.7472 218.193 49.2976 219.947 50.3654 220.351L51.8266 220.868C52.9224 221.256 53.3776 219.508 52.3099 219.104L50.8431 218.581Z" fill="#C3937C"/>
<path d="M109.705 217.783L111.07 216.754C111.272 216.63 111.42 216.435 111.484 216.206C111.547 215.978 111.522 215.734 111.413 215.523C111.354 215.42 111.275 215.329 111.181 215.257C111.087 215.184 110.979 215.13 110.865 215.099C110.75 215.067 110.63 215.059 110.512 215.074C110.394 215.089 110.28 215.127 110.177 215.186L108.811 216.203C108.61 216.33 108.464 216.527 108.401 216.756C108.339 216.985 108.365 217.229 108.474 217.44C108.593 217.646 108.789 217.798 109.019 217.862C109.249 217.926 109.495 217.898 109.705 217.783Z" fill="#C3937C"/>
<path d="M35.3442 99.0266L35.0127 98.695C34.8389 98.5511 34.6177 98.4772 34.3923 98.4878C34.167 98.4984 33.9537 98.5926 33.7941 98.7522C33.6346 98.9117 33.5403 99.125 33.5298 99.3504C33.5192 99.5757 33.5931 99.797 33.737 99.9707L34.0686 100.302C34.2423 100.446 34.4635 100.52 34.6889 100.51C34.9143 100.499 35.1276 100.405 35.2871 100.245C35.4466 100.086 35.5409 99.8723 35.5515 99.6469C35.562 99.4216 35.4882 99.2004 35.3442 99.0266Z" fill="#C3937C"/>
<path d="M55.2374 131.981C54.8674 131.977 54.5043 131.88 54.1809 131.7C54.0776 131.641 53.9637 131.603 53.8456 131.588C53.7276 131.573 53.6077 131.581 53.4929 131.613C53.3781 131.644 53.2706 131.698 53.1765 131.771C53.0824 131.843 53.0036 131.934 52.9445 132.037C52.8855 132.141 52.8474 132.255 52.8324 132.373C52.8174 132.491 52.8258 132.611 52.8571 132.725C52.8884 132.84 52.942 132.948 53.0149 133.042C53.0877 133.136 53.1785 133.215 53.2818 133.274C53.8819 133.607 54.5566 133.783 55.2431 133.785C56.4345 133.774 56.4063 131.992 55.2374 131.981Z" fill="#C3937C"/>
<path d="M104.782 135.96L105.737 135.319C106.703 134.678 105.793 133.127 104.843 133.751L103.882 134.386C102.921 135.032 103.809 136.606 104.782 135.96Z" fill="#C3937C"/>
<path d="M99.7006 30.8712C99.4759 30.489 99.2454 30.1126 99.0206 29.7304C98.9616 29.6271 98.8827 29.5365 98.7886 29.4636C98.6945 29.3908 98.587 29.3371 98.4722 29.3058C98.3574 29.2745 98.2376 29.2661 98.1196 29.2811C98.0015 29.2961 97.8876 29.3342 97.7842 29.3933C97.6809 29.4523 97.5904 29.531 97.5175 29.6251C97.4446 29.7192 97.391 29.8267 97.3597 29.9415C97.3284 30.0563 97.3199 30.1762 97.3349 30.2943C97.3499 30.4123 97.3881 30.5262 97.4471 30.6295C97.6775 31.0061 97.9024 31.3882 98.1328 31.7647C98.262 31.9503 98.456 32.0808 98.6766 32.1306C98.8971 32.1805 99.1283 32.1461 99.3248 32.0341C99.5213 31.9222 99.6687 31.7408 99.7383 31.5256C99.8078 31.3105 99.7944 31.0769 99.7006 30.8712Z" fill="#C3937C"/>
<path d="M167.418 12.4161C167.194 12.0339 166.963 11.6575 166.733 11.2697C166.603 11.0841 166.41 10.9536 166.189 10.9037C165.968 10.8539 165.737 10.8883 165.541 11.0002C165.344 11.1122 165.197 11.2936 165.127 11.5088C165.058 11.724 165.071 11.9574 165.165 12.1632C165.39 12.5453 165.614 12.9274 165.845 13.304C165.972 13.4937 166.166 13.6285 166.388 13.6813C166.61 13.7342 166.844 13.7011 167.043 13.5889C167.242 13.4767 167.391 13.2936 167.461 13.0762C167.53 12.8587 167.515 12.6229 167.418 12.4161Z" fill="#C3937C"/>
<path d="M150.683 43.1109L148.255 43.6953C147.12 43.965 147.581 45.7185 148.733 45.4656L151.161 44.881C152.273 44.5888 151.812 42.8355 150.683 43.1109Z" fill="#C3937C"/>
<path d="M159.742 76.0422L158.393 77.8743C157.702 78.8128 159.287 79.7007 159.967 78.7734L161.321 76.9359C161.979 75.9749 160.4 75.0813 159.742 76.0422Z" fill="#C3937C"/>
<path d="M216.434 38.345C216.202 38.3571 215.984 38.4578 215.824 38.6261C215.665 38.7944 215.575 39.0177 215.575 39.2498C215.575 39.4819 215.665 39.7051 215.824 39.8735C215.984 40.0418 216.202 40.1425 216.434 40.1546L216.996 40.1546C217.221 40.1326 217.429 40.0277 217.58 39.8604C217.731 39.6931 217.815 39.4755 217.814 39.25C217.813 39.0245 217.729 38.8073 217.576 38.641C217.424 38.4747 217.215 38.3712 216.991 38.3506L216.434 38.345Z" fill="#C3937C"/>
<path d="M255.581 26.2849L256.537 24.9924C257.222 24.0595 255.649 23.1716 254.963 24.0932L254.013 25.3914C253.305 26.3131 254.885 27.2065 255.581 26.2849Z" fill="#C3937C"/>
<path d="M206.448 99.4596L206.313 101.685C206.262 102.86 208.055 102.843 208.122 101.685L208.252 99.454C208.291 98.3019 206.493 98.3132 206.448 99.4596Z" fill="#C3937C"/>
<path d="M241.184 78.0649L241.33 80.4589C241.386 81.6391 243.212 81.6222 243.139 80.4589L242.993 78.0649C242.915 76.9072 241.111 76.9017 241.184 78.0649Z" fill="#C3937C"/>
</svg>
