<svg width="283" height="174" viewBox="0 0 283 174" fill="none" xmlns="http://www.w3.org/2000/svg">
<path d="M2.7178 89.727C3.30445 90.3474 3.44709 90.5106 3.8155 90.9002C60.6797 151.036 156 153.573 216.299 96.5549C237.923 76.1637 253 49.8118 259.608 20.8594C260.95 14.9772 265.277 0.686181 265.277 0.686181C262.02 37.8938 245.192 72.6407 217.999 98.3086C156.723 156.25 59.8463 153.675 2.05521 92.5589C1.68778 92.1703 1.32281 91.7803 0.960267 91.3889C-0.635325 89.666 2.16043 88.4913 2.7178 89.727Z" fill="#C3937C"/>
<path d="M109.988 97.0127C112.941 98.4036 115.6 100.455 116.13 103.82C116.599 106.72 115.754 109.652 114.391 112.198C111.217 118.138 105.487 121.792 99.3885 124.24C90.7775 127.682 71.727 127.822 71.5787 127.621C70.0927 128.897 69.7187 130.72 68.1244 131.875C67.4261 132.382 65.3551 130.815 66.0534 130.308C71.1669 126.64 75.7236 122.252 79.5814 117.281C83.1654 112.628 85.6492 107.23 89.3303 102.668C94.457 96.3514 102.34 93.3981 109.988 97.0127ZM101.209 96.9C101.226 96.9248 101.237 96.9533 101.242 96.9831C101.246 97.0129 101.243 97.0433 101.234 97.072C101.225 97.1007 101.209 97.1268 101.188 97.1485C101.167 97.1701 101.141 97.1867 101.113 97.1968C93.7708 99.4388 90.3184 106 86.8154 112.22C87.7809 111.061 88.7845 109.941 89.8503 108.863C94.7415 103.946 100.536 100.019 106.913 97.2998C106.463 97.1789 106 97.0699 105.534 96.9879C104.111 96.7364 102.656 96.7028 101.222 96.8883L101.209 96.9ZM83.9624 124.848C83.624 124.906 83.2817 124.959 82.9355 125.008C83.2135 125.016 83.4888 125.014 83.767 125.015C83.7706 124.988 83.7812 124.963 83.7978 124.941C83.8143 124.919 83.8362 124.902 83.8613 124.891L83.9624 124.848ZM76.8059 125.511C77.0529 125.36 77.2919 125.197 77.5218 125.022C77.071 125.236 76.6262 125.451 76.1757 125.654C76.371 125.593 76.593 125.553 76.8059 125.511ZM78.0986 125.052C78.0986 125.052 78.1141 125.037 78.1234 125.028L78.0986 125.052ZM78.502 125.217C78.6752 125.188 78.8543 125.166 79.0242 125.146L78.6594 125.109C78.6224 125.132 78.5639 125.17 78.5113 125.208L78.502 125.217ZM78.4868 124.702L78.5863 124.714C78.9166 124.484 79.2438 124.257 79.5683 124.021C79.2981 124.159 79.0278 124.303 78.7732 124.426C78.6766 124.523 78.5864 124.608 78.4962 124.694L78.4868 124.702ZM79.1499 124.781C79.7014 124.847 80.2354 124.888 80.7787 124.927L80.888 124.912C82.5634 124.712 84.2236 124.398 85.857 123.973C96.6637 118.773 106.161 111.199 113.637 101.818C113.55 101.677 113.46 101.544 113.364 101.406C107.015 106.559 100.37 111.336 93.4631 115.712C89.5981 118.191 85.6708 120.73 81.5806 122.946C80.8123 123.573 79.999 124.183 79.1654 124.766L79.1499 124.781ZM80.825 125.306C79.7747 125.441 78.7459 125.562 77.7092 125.749C77.5057 125.883 77.3109 126.026 77.1045 126.157C77.073 126.174 77.0372 126.181 77.0015 126.179C76.9657 126.176 76.9316 126.163 76.9034 126.141C76.8751 126.119 76.8538 126.089 76.8423 126.055C76.8307 126.021 76.8294 125.985 76.8384 125.95C76.5935 126.092 76.3403 126.22 76.0802 126.332C82.69 125.957 89.4459 125.962 95.7754 124.107C90.8814 125.247 85.8461 125.647 80.8375 125.294L80.825 125.306ZM76.9335 124.873L76.8371 124.858C76.7842 124.908 76.7345 124.955 76.6816 125.005C76.7799 124.953 76.8688 124.91 76.9547 124.87L76.9335 124.873ZM77.5652 124.575C77.8934 124.418 78.2245 124.263 78.5499 124.096C79.5716 123.002 80.459 121.791 81.1931 120.486C79.9683 121.928 78.6421 123.28 77.2247 124.533L77.5652 124.575ZM107.401 97.461C107.394 97.4779 107.384 97.4932 107.37 97.5059C107.357 97.5185 107.341 97.5283 107.324 97.5345C99.6626 100.753 92.8536 105.713 87.4383 112.019C86.6334 112.963 85.9 113.944 85.1994 114.941C84.5704 115.971 83.915 116.972 83.2217 117.928C82.3656 119.278 81.5273 120.641 80.6468 121.996C80.2871 122.552 79.8978 123.089 79.4807 123.604C80.1316 123.271 80.7858 122.928 81.4407 122.561C86.122 118.852 90.2504 114.507 94.7605 110.554C99.8224 106.138 105.6 102.702 111.386 99.3632C110.184 98.5065 108.843 97.8623 107.423 97.4585L107.401 97.461ZM111.698 99.6558C105.068 103.492 98.6612 107.477 92.995 112.699C89.7842 115.659 86.6763 118.721 83.3463 121.518C86.4213 119.785 89.4144 117.854 92.3607 115.973C99.5825 111.444 106.522 106.48 113.14 101.106C112.722 100.571 112.246 100.083 111.719 99.6533L111.698 99.6558ZM113.844 102.162C106.747 111.03 97.8427 118.286 87.7263 123.445C89.0655 123.049 90.3943 122.597 91.7547 122.098C100.328 119.003 108.85 115.199 114.623 107.871C115.081 105.937 114.811 103.904 113.865 102.16L113.844 102.162ZM114.404 108.736C109.527 114.606 102.89 118.185 95.8486 120.994C92.5257 122.309 89.1116 123.646 85.6235 124.511C85.2349 124.699 84.8386 124.878 84.4344 125.048C89.9767 125.036 95.4807 124.1 100.719 122.276C106.768 119.576 112.59 115.141 114.426 108.734L114.404 108.736ZM75.2999 125.613C75.6344 125.343 75.966 125.071 76.2887 124.789C75.8343 124.714 75.3799 124.638 74.9227 124.553C74.2104 125.227 74.1275 125.37 73.385 126.042C74.0469 125.987 74.6983 125.842 75.3211 125.61L75.2999 125.613ZM89.2672 104.925C85.7702 109.707 83.1617 115.023 79.4004 119.637C78.1003 121.231 76.7202 122.758 75.2653 124.212C75.7315 124.3 76.1979 124.382 76.6706 124.452C81.9254 119.747 85.1498 113.948 88.8831 107.709C91.7068 102.994 95.1926 98.8053 100.508 96.9993C95.9652 97.8279 92.2121 100.924 89.2884 104.923L89.2672 104.925Z" fill="#C3937C"/>
<path d="M66.96 130.537C69.5966 133.133 72.1112 135.867 74.5636 138.66C74.6729 138.634 74.7871 138.64 74.8928 138.677C84.4975 141.981 94.9883 143.019 104.125 147.635C110.861 151.02 118.959 158.039 117.233 166.482C115.507 174.924 107.005 174.937 100.905 171.227C92.7019 166.234 88.222 157.191 82.3345 149.949C77.1711 143.591 68.7293 137.549 62.8769 131.79C62.2778 131.181 66.3545 129.941 66.96 130.537ZM90.8124 156.927C89.5112 156.133 88.266 155.252 87.0853 154.288C89.2103 157.314 91.3407 160.364 93.7242 163.134C92.7768 161.098 91.8252 159.001 90.8217 156.918L90.8124 156.927ZM81.7516 147.139C81.8689 147.264 81.9675 147.405 82.0726 147.535C84.127 149.671 86.4133 151.57 88.8894 153.199C88.1458 151.846 87.3618 150.53 86.5066 149.271C84.7061 148.586 82.9823 147.715 81.363 146.673L81.7516 147.139ZM83.81 149.753C84.6455 150.86 85.465 151.995 86.2753 153.138C87.3787 154.16 88.5665 155.087 89.8261 155.909C90.0576 156.06 90.2953 156.206 90.5329 156.351C90.1246 155.527 89.7042 154.702 89.2683 153.892C87.359 152.635 85.5355 151.252 83.81 149.753ZM80.0425 145.089C80.0425 145.089 80.063 145.111 80.0747 145.123C80.1569 145.21 80.2361 145.294 80.2873 145.404L80.562 145.732C82.3164 147.022 84.2242 148.089 86.242 148.91C86.0679 148.657 85.8937 148.411 85.7134 148.164C83.193 146.931 80.8436 145.376 78.724 143.539L80.0425 145.089ZM86.8612 149.141C87.3788 149.333 87.9027 149.514 88.4362 149.679C88.7511 149.769 89.0693 149.85 89.3992 149.944C88.4058 149.479 87.4155 149.011 86.4378 148.525C86.5801 148.726 86.7281 148.938 86.8729 149.154L86.8612 149.141ZM76.4881 140.583C78.8605 143.627 81.9529 145.739 85.2572 147.532C83.387 144.998 81.0636 142.832 78.4041 141.145C77.771 140.974 77.1293 140.787 76.4969 140.592L76.4881 140.583ZM76.2005 140.49L76.1316 140.467L76.1756 140.514C76.1851 140.506 76.1969 140.501 76.2093 140.5L76.2005 140.49ZM83.0442 142.351C85.943 143.84 88.7463 145.496 91.6955 146.92C96.425 149.199 102.063 149.99 107.267 151.039C106.823 150.737 106.384 150.441 105.947 150.166C99.0928 145.883 90.9622 144.288 83.053 142.36L83.0442 142.351ZM108.055 151.604C102.969 150.538 97.4878 149.775 92.6738 147.799C88.7633 146.156 85.1543 143.822 81.3234 141.939L79.5706 141.481C82.0705 143.258 84.2506 145.446 86.0191 147.952C87.598 148.768 89.2239 149.528 90.847 150.279C93.932 150.887 97.1221 151.108 100.17 152.039C106.305 153.941 111.313 158.171 116.006 162.43C115.216 158.024 111.697 154.278 108.049 151.598L108.055 151.604ZM116.102 165.242C116.176 164.508 116.17 163.769 116.085 163.037C109.429 157.057 103.063 152.599 93.9232 151.189C93.3151 151.094 92.7225 150.985 92.1301 150.869C94.0366 151.757 95.9272 152.667 97.7175 153.7C104.333 157.548 110.291 162.427 115.366 168.152C115.754 167.222 116 166.239 116.096 165.236L116.102 165.242ZM115.204 168.541C109.515 162.094 102.71 156.727 95.1129 152.696C93.6773 151.944 92.2007 151.249 90.7301 150.554C89.4998 150.267 88.2875 149.908 87.0993 149.48C87.9822 150.825 88.8002 152.22 89.5717 153.653C92.2081 155.431 94.9412 157.107 97.4953 159.01C102.466 162.753 106.947 167.105 110.833 171.963C111.776 171.769 112.662 171.359 113.419 170.764C114.177 170.169 114.786 169.406 115.198 168.535L115.204 168.541ZM110.401 172.054C105.656 166.189 100.053 161.075 93.7805 156.882C92.4933 156.019 91.2108 155.199 89.9236 154.336C90.3361 155.121 90.7392 155.915 91.1331 156.718C92.6365 157.525 94.0839 158.431 95.4658 159.431C99.111 162.283 101.005 166.385 102.81 170.537C102.821 170.561 102.827 170.588 102.827 170.615C102.827 170.642 102.822 170.669 102.811 170.694C105.254 171.857 108.019 172.451 110.395 172.048L110.401 172.054ZM102.349 170.467C99.7976 164.654 96.9671 160.626 91.4153 157.303C92.5245 159.598 93.5635 161.911 94.6172 164.135C96.3733 166.108 98.3535 167.87 100.518 169.384C101.103 169.781 101.713 170.14 102.343 170.461L102.349 170.467Z" fill="#C3937C"/>
<path d="M148.453 96.7059C153.722 95.6547 157.362 97.5297 157.859 103.158C158.585 111.333 150.918 117.002 145.152 121.403C136.766 127.811 127.184 131.566 117.172 134.623C117.042 134.671 116.898 134.669 116.77 134.615C116.642 134.562 116.539 134.462 116.482 134.335C114.419 136.515 114.298 138.879 110.979 140.191C110.195 140.503 107.12 138.834 107.916 138.516C119.152 134.049 120.899 123.53 126.664 114.324C131.458 106.677 139.233 98.5441 148.453 96.7059ZM131.32 110.139C127.35 117.247 123.283 124.302 119.12 131.306C125.998 127.881 129.2 120.452 132.549 113.807C135.764 107.43 139.79 103.053 145.384 98.8499C142.604 100.17 140.003 101.84 137.645 103.818C135.338 105.716 133.22 107.833 131.32 110.139ZM118.214 132.927C118.551 132.66 118.892 132.397 119.223 132.125C119.214 132.106 119.208 132.085 119.207 132.063C119.206 132.042 119.209 132.02 119.216 132C119.224 131.98 119.235 131.962 119.25 131.946C119.265 131.93 119.282 131.918 119.302 131.909C119.461 131.835 119.612 131.757 119.771 131.683C119.931 131.608 119.936 131.527 120.02 131.448C119.644 131.574 119.269 131.694 118.891 131.811C118.856 131.843 118.802 131.854 118.756 131.874C118.546 132.225 118.342 132.576 118.135 132.925C118.161 132.922 118.188 132.923 118.214 132.927ZM121.011 130.657C120.927 130.737 120.817 130.788 120.715 130.849C120.74 130.826 120.789 130.821 120.825 130.81C120.862 130.799 120.965 130.69 121.027 130.643L121.011 130.657ZM146.547 98.3789C146.546 98.4038 146.54 98.4283 146.527 98.4501C146.515 98.4718 146.498 98.4904 146.477 98.504C142.812 101.176 139.206 103.899 136.55 107.632C134.074 111.113 132.4 115.082 130.463 118.865C128.951 121.833 127.224 124.724 125.051 127.148C134.655 118.486 142.994 108.519 149.826 97.5408C148.709 97.6819 147.613 97.9584 146.563 98.3642L146.547 98.3789ZM150.302 97.49C142.622 109.9 133.025 121.018 121.87 130.432C122.023 130.376 122.176 130.326 122.316 130.281C125.014 128.411 127.81 126.626 130.591 124.807C133.958 122.066 136.97 118.915 139.557 115.429C144.002 109.464 147.393 102.825 152.929 97.7443C152.081 97.5018 151.197 97.4107 150.317 97.4753L150.302 97.49ZM153.552 97.9424C153.495 97.9197 153.438 97.9091 153.381 97.8864C147.065 103.612 143.514 111.377 138.173 117.89C136.625 119.778 134.943 121.552 133.139 123.197C142.321 117.181 151.082 110.683 155.51 100.244C155.523 100.216 155.543 100.192 155.567 100.173C155.591 100.153 155.619 100.14 155.649 100.133C155.679 100.126 155.71 100.126 155.74 100.133C155.77 100.141 155.797 100.154 155.821 100.174C155.386 99.1566 154.574 98.3476 153.556 97.9152L153.552 97.9424ZM155.87 100.269C155.87 100.269 155.886 100.318 155.87 100.351C151.058 111.711 141.16 118.439 131.144 124.906C129.243 126.471 127.238 127.904 125.143 129.195C136.786 124.474 147.251 117.245 155.791 108.023C155.807 108.004 155.828 107.989 155.851 107.979C155.875 107.97 155.9 107.965 155.925 107.966C155.932 107.944 155.941 107.922 155.951 107.901C156.64 105.863 156.934 102.559 155.873 100.242L155.87 100.269ZM155.603 108.747C146.561 118.372 135.423 125.784 123.057 130.403C122.639 130.64 122.218 130.868 121.791 131.089C121.216 131.498 120.642 131.912 120.076 132.329C129.075 129.384 137.593 125.689 145.14 119.745C148.942 116.75 153.657 113.325 155.621 108.736L155.603 108.747ZM117.591 133.116L117.696 132.946L117.536 133.132L117.591 133.116ZM123.728 122.689C125.768 119.193 127.775 115.677 129.749 112.141C128.24 114.187 126.9 116.352 125.743 118.615C125.062 119.976 124.402 121.34 123.746 122.677L123.728 122.689Z" fill="#C3937C"/>
<path d="M106.58 137.57C109.313 138.849 111.907 140.405 114.322 142.212C114.456 142.138 114.612 142.113 114.762 142.142C119.779 143.059 124.901 143.278 129.982 142.792C133.502 142.502 136.872 142.335 140.354 143.044C147.722 144.538 157.333 149.381 159.357 157.391C161.149 164.481 153.377 171.272 146.58 169.99C139.427 168.657 133.921 161.712 128.944 156.947C122.001 150.315 112.726 143.815 103.869 139.775C103.081 139.409 105.81 137.211 106.58 137.57ZM124.938 144.724C125.237 144.84 125.54 144.942 125.836 145.05C128.321 145.535 130.732 146.335 133.012 147.43C139.63 149.331 146.443 150.475 153.323 150.84C150.724 148.459 147.663 146.638 144.328 145.491C144.3 145.514 144.264 145.529 144.227 145.533C139.983 145.95 135.709 145.962 131.464 145.569C128.277 145.257 125.145 144.493 121.941 144.314L121.25 144.281C120.872 144.268 120.497 144.27 120.119 144.281C120.328 144.347 120.535 144.416 120.745 144.494C122.072 144.534 123.396 144.656 124.708 144.86C124.708 144.833 124.714 144.807 124.727 144.784C124.739 144.761 124.757 144.741 124.779 144.727C124.801 144.712 124.827 144.704 124.853 144.702C124.879 144.699 124.906 144.704 124.93 144.714L124.938 144.724ZM117.865 145.019C120.542 145.919 123.26 146.787 125.939 147.744C124.331 146.57 122.576 145.612 120.718 144.896C119.729 144.845 118.737 144.845 117.748 144.895L117.865 145.019ZM117.358 144.576C117.377 144.559 117.392 144.544 117.408 144.529C118.087 144.475 118.768 144.46 119.451 144.454L119.025 144.333C118.707 144.358 118.381 144.356 118.079 144.417C118.041 144.423 118.001 144.417 117.966 144.4C117.931 144.383 117.902 144.356 117.882 144.323C117.862 144.289 117.853 144.25 117.855 144.211C117.858 144.172 117.871 144.135 117.895 144.104C117.775 144.082 117.658 144.052 117.54 144.034C117.502 144.025 117.466 144.006 117.439 143.977C117.412 143.948 117.394 143.912 117.388 143.873C117.035 143.824 116.698 143.766 116.319 143.708L117.358 144.576ZM128.57 144.228C127.57 144.304 126.58 144.347 125.587 144.369C127.122 144.603 128.66 144.871 130.215 145.058C134.619 145.557 139.064 145.609 143.481 145.211C142.72 144.967 141.945 144.754 141.156 144.572C136.884 143.581 132.88 143.895 128.561 144.218L128.57 144.228ZM153.608 151.105C153.6 151.143 153.579 151.177 153.547 151.2C153.516 151.223 153.477 151.234 153.438 151.231C147.11 150.906 140.835 149.924 134.714 148.301C137.879 150.073 140.734 152.262 144.213 153.456C148.126 154.803 152.907 155.123 157.03 155.396C156.539 154.5 155.956 153.657 155.289 152.883C154.745 152.245 154.185 151.653 153.599 151.096L153.608 151.105ZM157.221 155.773C157.221 155.773 157.221 155.773 157.2 155.794C150.698 155.367 144.115 154.505 138.473 151.062C136.209 149.658 133.843 148.422 131.396 147.366C129.799 146.879 128.218 146.335 126.641 145.758C125.068 145.355 123.463 145.086 121.844 144.953C123.638 145.801 125.329 146.851 126.884 148.084C129.965 149.167 132.952 150.498 135.816 152.065C143.01 156.115 149.357 160.584 157.318 163.103C158.623 160.583 158.346 158.059 157.213 155.764L157.221 155.773ZM157.056 163.568C157.094 163.533 157.104 163.475 157.133 163.431C150.151 161.219 144.251 157.72 138.059 153.851C134.873 151.916 131.512 150.284 128.019 148.979C129.668 150.317 131.262 151.741 132.884 153.057C139.438 158.382 146.337 163.21 153.914 166.974C155.171 166.05 156.235 164.888 157.045 163.555L157.056 163.568ZM153.554 167.185C147.135 163.92 141.061 160.018 135.424 155.538C132.724 153.437 130.067 150.838 127.201 148.624C124.605 147.642 121.967 146.758 119.337 145.872C129.957 151.071 135.512 162.759 145.803 168.439C146.57 168.654 147.36 168.782 148.156 168.823C150.083 168.866 151.974 168.292 153.554 167.185ZM135.872 161.707C138.268 163.948 140.947 166.45 144.049 167.812C134.877 161.925 129.374 151.364 119.531 146.388C121.899 148.456 124.176 150.615 126.398 152.697C129.576 155.697 132.687 158.749 135.868 161.728L135.872 161.707Z" fill="#C3937C"/>
<path d="M155.038 132.437C157.083 132.518 157.468 134.059 159.438 134.834C159.522 134.8 159.612 134.783 159.702 134.783C171.421 134.977 184.286 129.629 195.577 134.716C203.224 138.167 209.188 148.487 202.501 155.832C195.31 163.73 184.149 157.321 178.358 151.322C171.839 144.559 163.574 135.183 153.37 134.784C152.502 134.764 154.183 132.405 155.038 132.437ZM166.002 138.374C171.812 140.519 177.97 141.747 183.378 144.806C189.004 147.995 193.644 152.597 198.174 157.15C200.163 156.287 201.8 154.771 202.812 152.853C198.167 147.027 191.995 142.607 184.98 140.083L184.304 139.859C183.211 139.8 182.111 139.746 181.015 139.696C175.21 139.446 169.454 138.548 163.853 137.017C164.584 137.447 165.299 137.905 166.002 138.374ZM162.442 136.223C169.142 138.261 175.832 138.944 182.73 139.367C176.103 137.436 168.98 136.957 162.165 136.086L162.427 136.22L162.442 136.223ZM191.408 134.687C184.2 132.883 176.793 134.34 169.427 135.348C173.98 136.43 178.679 136.771 183.345 136.359C187.199 136.011 191.01 135.574 194.839 135.873C193.734 135.381 192.588 134.986 191.414 134.693L191.408 134.687ZM195.856 136.356C191.266 135.814 186.749 136.477 182.158 136.823C177.433 137.179 173.142 136.635 168.586 135.555C168.564 135.551 168.543 135.542 168.525 135.529C168.506 135.516 168.491 135.499 168.479 135.48C167.028 135.677 165.569 135.835 164.12 135.947C170.858 136.75 177.854 137.35 184.291 139.46L185.278 139.519C191.492 139.86 197.614 140.664 203.069 143.767C201.743 140.502 199.028 138.016 195.868 136.369L195.856 136.356ZM203.83 146.596C203.724 145.822 203.543 145.061 203.289 144.323C197.865 141.079 191.818 140.292 185.653 139.928L186.258 140.144C192.811 142.731 198.574 146.977 202.983 152.467C203.835 150.638 204.133 148.602 203.842 146.609L203.83 146.596ZM197.776 157.291C193.308 152.796 188.721 148.262 183.173 145.118C178.187 142.294 172.571 141.041 167.191 139.189C167.698 139.55 168.192 139.911 168.677 140.275C173.465 141.413 177.948 143.57 181.823 146.598C185.697 149.627 188.871 153.456 191.129 157.825C191.975 157.972 192.833 158.046 193.693 158.044C195.092 158.055 196.481 157.804 197.788 157.303L197.776 157.291ZM184.994 155.312C182.268 152.021 179.144 149.082 175.694 146.561C178.659 149.703 181.552 153.049 185.005 155.324L184.994 155.312ZM174.353 145.161C178.754 148.13 182.672 151.757 185.971 155.915C187.42 156.769 188.997 157.384 190.641 157.739C188.463 153.612 185.454 149.982 181.804 147.076C178.153 144.17 173.939 142.052 169.426 140.854C169.928 141.243 170.425 141.631 170.904 142.012C172.115 142.995 173.268 144.047 174.356 145.165L174.353 145.161Z" fill="#C3937C"/>
<path d="M189.686 80.7844C199.3 82.7277 199.257 94.8194 195.203 101.573C188.914 112.056 177.422 118.663 167.592 125.332C167.499 125.398 167.39 125.434 167.277 125.436C165.137 128.094 165.395 128.978 162.386 130.718C161.651 131.149 158.154 131.389 158.889 130.958C164.742 127.568 169.065 122.053 170.957 115.564C172.606 109.832 172.091 103.679 172.904 97.8224C174.079 89.6073 179.563 78.7339 189.686 80.7844ZM180.02 85.0299C179.765 85.2711 179.513 85.5093 179.267 85.7417C179.267 85.7417 179.267 85.7416 179.266 85.7779C176.91 92.5499 175.477 99.6066 175.007 106.757C175.729 104.523 176.412 102.279 177.037 100.019C178.435 94.9486 179.553 89.8195 180.467 84.6426C180.321 84.7687 180.172 84.8979 180.023 85.0269L180.02 85.0299ZM172.444 115.168C172.369 115.462 172.285 115.753 172.203 116.047C172.916 115.374 173.656 114.674 174.406 113.965C174.432 113.282 174.442 112.626 174.459 112.034C174.482 111.132 174.509 110.23 174.542 109.33C173.875 111.284 173.177 113.229 172.447 115.165L172.444 115.168ZM174.183 116.696C173.13 117.737 172.025 118.725 170.873 119.656C170.711 120.008 170.544 120.355 170.379 120.71C171.625 119.373 172.886 118.052 174.187 116.774L174.183 116.696ZM174.259 116.09C174.314 115.556 174.35 115.028 174.378 114.509C173.584 115.289 172.776 116.023 172.007 116.75C171.774 117.487 171.499 118.212 171.2 118.924C172.264 118.011 173.286 117.074 174.262 116.087L174.259 116.09ZM174.909 108.541C174.86 109.822 174.938 111.593 174.901 113.455C179.101 109.173 182.976 103.869 183.241 98.1368C183.474 93.0748 181.783 88.2218 182.781 83.1771C182.124 83.4988 181.498 83.8789 180.909 84.3127C179.504 92.4047 177.504 100.384 174.926 108.185C174.926 108.297 174.916 108.417 174.913 108.538L174.909 108.541ZM183.201 82.9857C181.88 89.065 184.777 95.2444 183.17 101.277C181.922 105.982 178.518 110.376 174.885 114.005C174.867 114.515 174.84 115.023 174.798 115.527C178.153 112.027 180.858 107.957 182.784 103.51C185.701 96.7326 186.509 89.3817 187.257 82.1229C187.264 82.0851 187.283 82.0506 187.312 82.0246C185.894 82.0769 184.5 82.4023 183.204 82.9827L183.201 82.9857ZM187.593 82.023C187.607 82.0387 187.617 82.0571 187.624 82.077C187.631 82.0969 187.633 82.118 187.632 82.1389C186.874 89.4368 186.078 96.8636 183.145 103.674C181.132 108.315 178.279 112.545 174.729 116.151L174.717 116.232C175.339 115.644 175.961 115.056 176.604 114.489C179.969 111.543 183.695 108.842 186.233 105.09C187.359 102.885 188.37 100.596 189.312 98.2893C190.72 93.2737 190.774 87.8229 190.795 82.6676C190.795 82.6676 190.817 82.647 190.829 82.6353C189.801 82.2338 188.707 82.0233 187.602 82.0142L187.593 82.023ZM179.067 112.882C177.523 114.196 176.05 115.554 174.614 116.952C174.491 117.818 174.271 118.667 173.957 119.484C175.314 118.558 176.663 117.624 177.998 116.667C180.863 113.842 183.287 110.602 185.19 107.058C183.318 109.158 181.277 111.1 179.086 112.865L179.067 112.882ZM191.179 82.7686C191.159 87.053 191.118 91.5456 190.291 95.8297C191.688 92.223 192.946 88.6186 194.224 85.2597C194.241 85.2269 194.268 85.201 194.302 85.1862C193.481 84.1337 192.416 83.2978 191.198 82.7509L191.179 82.7686ZM194.523 85.4824C192.995 89.5241 191.475 93.9168 189.712 98.2576C189.162 100.326 188.337 102.312 187.259 104.162C187.03 104.543 186.789 104.911 186.54 105.27C184.754 108.901 182.494 112.279 179.819 115.316C180.759 114.615 181.684 113.899 182.594 113.167C182.572 113.141 182.56 113.109 182.559 113.075C182.559 113.042 182.57 113.009 182.591 112.982C187.793 105.518 192.916 98.0072 196.253 89.4868C196.253 89.4868 196.281 89.4603 196.294 89.4485C196.078 88.5227 195.75 87.6266 195.319 86.7797C195.097 86.3288 194.841 85.8945 194.556 85.4803L194.523 85.4824ZM192.275 103.473C195.193 99.6493 197.299 94.7733 196.436 90.0481C193.171 98.1652 188.32 105.396 183.341 112.549C186.667 109.883 189.673 106.842 192.299 103.485L192.275 103.473ZM173.26 119.925C173.617 119.151 173.873 118.335 174.021 117.496C172.52 118.974 171.057 120.492 169.602 122.038C169.488 122.235 169.374 122.419 169.247 122.615C170.606 121.722 171.956 120.826 173.296 119.926L173.26 119.925ZM172.916 112.676C173.088 112.273 173.219 111.938 173.271 111.806C173.719 110.572 174.145 109.328 174.563 108.081C174.637 106.29 174.75 104.503 174.953 102.712C175.611 97.1536 176.851 91.6779 178.653 86.3754C172.607 93.3209 174.319 104.035 172.952 112.677L172.916 112.676Z" fill="#C3937C"/>
<path d="M191.932 116.001C194.278 116.208 193.992 117.713 196.11 118.401C196.118 118.3 196.154 118.203 196.213 118.121C196.271 118.038 196.352 117.973 196.444 117.932C204.518 113.929 213.796 113.123 222.34 116.096C227.881 118.019 239.072 123.866 238.245 131.14C237.168 140.649 223.447 136.813 218.352 134.004C208.305 128.457 201.638 119.443 189.407 118.347C188.544 118.287 191.09 115.915 191.932 116.001ZM198.049 119.106C198.777 118.97 199.501 118.859 200.221 118.773L199.812 118.69C199.34 118.614 198.849 118.549 198.345 118.503C198.063 118.628 197.787 118.76 197.508 118.895L198.049 119.106ZM203.266 121.688C204.331 121.762 205.389 121.778 206.435 121.781C205.023 120.484 203.318 119.547 201.465 119.049L201.402 119.032C200.508 119.108 199.609 119.223 198.713 119.371C200.281 120.041 201.802 120.815 203.266 121.688ZM207.17 121.786C208.105 121.783 209.03 121.79 209.957 121.83C208.329 121.063 206.641 120.429 204.911 119.932C205.203 120.117 205.485 120.318 205.755 120.533C206.24 120.926 206.708 121.347 207.164 121.78L207.17 121.786ZM220.982 117.04C216.723 115.72 212.23 115.323 207.8 115.873C216.561 117.835 225.124 121.514 233.558 124.42C232.701 123.62 231.782 122.885 230.966 122.247C227.979 119.926 224.597 118.162 220.982 117.04ZM235.933 127.35C235.401 126.416 234.734 125.566 233.954 124.827C233.938 124.866 233.908 124.897 233.87 124.913C233.831 124.93 233.788 124.931 233.749 124.915C224.905 121.856 215.923 117.945 206.716 116.022C204.755 116.329 202.826 116.814 200.952 117.471C214.368 115.161 226.706 122.738 236.64 131.318C236.873 129.953 236.624 128.549 235.933 127.35ZM236.528 131.718C226.241 122.795 213.34 114.865 199.271 118.18C200.109 118.265 200.941 118.407 201.759 118.606C208.003 118.142 214.242 119.484 219.734 122.473C225.225 125.462 229.735 129.97 232.726 135.46C234.705 134.793 236.052 133.413 236.528 131.718ZM231.88 135.731C232.051 135.693 232.213 135.64 232.374 135.593C229.499 130.339 225.211 125.997 219.994 123.055C214.778 120.113 208.839 118.688 202.847 118.94C202.931 118.967 203.012 119.008 203.092 119.037C205.808 119.669 208.436 120.626 210.92 121.889C213.108 121.993 215.249 122.558 217.201 123.547C222.419 126.304 225.912 131.245 229.141 136.024C230.061 136.02 230.979 135.922 231.88 135.731ZM228.665 136.068C225.114 130.818 221.094 125.265 214.914 122.972C213.784 122.559 212.606 122.291 211.408 122.174C211.622 122.294 211.843 122.397 212.054 122.527C216.737 125.337 219.84 129.795 222.366 134.516C222.376 134.536 222.383 134.557 222.385 134.58C222.386 134.602 222.384 134.625 222.377 134.646C224.37 135.508 226.508 135.985 228.68 136.054L228.665 136.068ZM221.896 134.437C219.217 129.491 215.876 124.893 210.762 122.238L210.478 122.101C209.464 122.037 208.439 122.037 207.419 122.056C209.801 124.357 211.916 127.128 213.987 129.624C216.438 131.517 219.097 133.127 221.912 134.422L221.896 134.437ZM212.6 128.538C210.812 126.422 208.995 124.308 207.041 122.36C206.936 122.248 206.823 122.167 206.723 122.073C205.764 122.087 204.817 122.113 203.85 122.075C205.556 123.135 207.201 124.288 208.778 125.53C209.994 126.448 211.273 127.483 212.616 128.523L212.6 128.538Z" fill="#C3937C"/>
<path d="M211.954 101.468C213.907 100.897 213.862 102.402 215.878 102.159C215.931 102.086 215.997 102.023 216.074 101.974C220.833 99.0558 225.826 96.5377 231.001 94.4453C234.434 93.0912 238.073 92.0056 241.787 92.6125C247.015 93.4683 254.76 98.8545 253.344 105.07C251.729 112.085 243.198 110.921 238.429 108.55C233.016 105.86 227.743 103.966 222.248 103.463C220.903 103.717 219.52 103.678 218.193 103.349C215.489 103.454 212.807 103.894 210.21 104.657C209.398 104.902 211.137 101.706 211.954 101.468ZM231.478 99.6229C231.782 99.4707 232.08 99.3002 232.382 99.1389C230.913 99.2161 229.451 99.3842 228.003 99.6423L227.853 99.6957C228.776 99.7687 229.689 99.8988 230.586 100.05C230.904 99.9191 231.196 99.7606 231.478 99.6229ZM241.218 93.8856C241.082 93.8668 240.947 93.8542 240.811 93.8415C240.803 93.87 240.788 93.8958 240.767 93.916C240.745 93.9363 240.719 93.9502 240.69 93.9562C234.976 94.935 229.861 97.7322 224.464 99.6751C225.036 99.6571 225.638 99.6278 226.206 99.6489C226.763 99.5216 227.317 99.4033 227.877 99.3033C230.424 98.3666 233.059 97.692 235.741 97.2899C237.591 96.181 239.409 95.0379 241.218 93.8856ZM236.744 97.1231C240.698 96.6351 244.702 96.7365 248.623 97.4241C246.72 95.643 244.344 94.4473 241.778 93.9791C240.111 95.0385 238.44 96.1008 236.744 97.1231ZM222.086 101.964C223.304 101.279 224.557 100.658 225.839 100.102C223.982 100.555 222.165 101.159 220.406 101.908C220.965 101.913 221.527 101.935 222.086 101.964ZM230.013 98.9639C231.069 98.8348 232.106 98.7475 233.165 98.7213C233.727 98.4187 234.29 98.1101 234.846 97.7893C233.213 98.0797 231.598 98.472 230.013 98.9639ZM227.014 100.036C225.563 100.613 224.146 101.274 222.771 102.016C223.344 102.061 223.914 102.11 224.472 102.17C225.533 101.896 226.635 101.623 227.748 101.423C228.541 101.078 229.305 100.714 230.038 100.356C229.037 100.189 228.026 100.081 227.012 100.033L227.014 100.036ZM219.426 101.924C221.09 101.167 222.809 100.537 224.568 100.041C224.019 100.084 223.476 100.133 222.939 100.188C222.21 100.426 221.471 100.648 220.728 100.84C220.067 101.206 219.409 101.57 218.757 101.945L219.426 101.924ZM227.923 97.2028C226.103 98.0253 224.317 98.9092 222.553 99.842L222.884 99.7994C228.545 97.9724 233.813 94.9707 239.673 93.7537L239.586 93.7484C235.498 93.7182 231.53 95.5782 227.911 97.2146L227.923 97.2028ZM249.112 97.8846C244.755 97.06 240.289 96.9698 235.898 97.6177C235.264 97.9879 234.634 98.3491 233.988 98.7129C240.225 98.672 246.36 100.271 251.776 103.35C251.794 103.369 251.806 103.381 251.82 103.397C251.734 101.906 251.203 100.476 250.295 99.2921C249.928 98.8009 249.528 98.3347 249.099 97.8964L249.112 97.8846ZM251.82 103.615C251.794 103.651 251.756 103.677 251.713 103.686C251.669 103.696 251.624 103.689 251.585 103.666C246.031 100.503 239.715 98.9186 233.318 99.0822C232.626 99.4539 231.926 99.8102 231.224 100.157C237.449 101.433 243.271 104.742 248.52 108.58C249.5 108.177 250.338 107.49 250.924 106.606C251.51 105.723 251.818 104.685 251.807 103.626L251.82 103.615ZM226.55 102.485C229.172 103.037 231.724 103.876 234.161 104.989C237.912 106.607 241.666 109.462 245.926 109.188C246.668 109.143 247.4 108.992 248.101 108.741C242.806 104.899 236.93 101.607 230.638 100.441C230.089 100.702 229.534 100.956 228.986 101.186C230.253 100.98 231.545 100.965 232.816 101.143C236.129 101.694 238.608 105.132 240.434 107.636C240.576 107.83 240.29 108.107 240.157 107.898C237.77 104.62 235.171 101.378 230.747 101.566C229.445 101.636 228.15 101.803 226.873 102.068C226.595 102.178 226.307 102.285 226.011 102.402C226.176 102.445 226.354 102.459 226.537 102.497L226.55 102.485Z" fill="#C3937C"/>
<path d="M215.265 58.4648C218.487 58.1332 221.47 59.6489 223.425 62.1534C226.221 65.7326 226.372 69.7373 225.677 74.0552C223.92 85.1185 215.016 92.7499 207.94 100.699C207.921 100.72 207.9 100.74 207.877 100.758C207.387 103.031 208.454 103.38 207.922 105.634C207.725 106.466 204.862 108.005 205.049 107.175C207.887 95.1668 210 83.6504 207.844 71.3761C206.825 65.5944 208.247 59.1671 215.265 58.4648ZM222.701 63.3498C222.531 69.8619 219.638 75.8238 217.213 81.7648C215.832 85.1572 214.653 89.686 212.342 92.9932C211.938 93.837 211.486 94.6569 210.988 95.4489C211.284 95.1393 211.562 94.8473 211.849 94.5405C214.029 91.4506 215.459 87.7661 217.344 84.5202C219.551 80.7233 221.996 77.0719 224.444 73.4236C224.988 69.9061 224.764 66.223 222.695 63.3557L222.701 63.3498ZM224.302 74.3452C221.762 78.1332 219.241 81.9398 217.001 85.9081C215.668 88.2736 214.562 90.8055 213.209 93.1131C217.722 88.2587 222.001 83.0958 223.748 76.7496C223.961 75.9721 224.148 75.1666 224.302 74.3452ZM209.542 97.0041C210.101 96.1813 210.634 95.3428 211.119 94.4848C211.019 94.5789 210.917 94.6759 210.808 94.7789C210.482 95.4984 209.977 96.123 209.342 96.5936C209.299 96.6348 209.258 96.673 209.218 96.7112C209.194 96.7344 209.164 96.7498 209.131 96.7554C209.099 96.761 209.065 96.7566 209.035 96.7427C208.992 96.7642 208.947 96.7832 208.901 96.7995C208.777 96.9989 208.65 97.1951 208.527 97.3884C208.473 97.6621 208.423 97.9389 208.366 98.2156C208.777 97.8214 209.158 97.4142 209.542 97.0041ZM208.813 96.2771L208.829 96.2624C208.824 96.2682 208.819 96.2732 208.813 96.2771ZM209.294 95.54C209.809 94.713 210.324 93.8618 210.833 92.9924C210.994 92.2144 211.076 91.4222 211.078 90.6281C210.562 91.2664 210.012 91.8766 209.43 92.4561C209.262 93.5785 209.074 94.6985 208.866 95.8158C209.001 95.7408 209.143 95.6478 209.285 95.5488L209.294 95.54ZM211.074 90.0202C210.984 88.2014 210.711 86.3968 210.258 84.634C210.134 87.0317 209.879 89.4229 209.522 91.7933C210.068 91.2331 210.582 90.6442 211.065 90.029L211.074 90.0202ZM210.351 81.679C210.35 82.2142 210.32 82.7426 210.304 83.2744C210.888 85.3276 211.263 87.4346 211.426 89.5639C212.132 88.6165 212.76 87.6138 213.305 86.5657C213.287 86.2235 213.249 85.8838 213.205 85.5258C212.697 82.0045 211.422 78.5626 209.863 75.3248C210.181 77.4304 210.341 79.5574 210.342 81.6878L210.351 81.679ZM211.451 90.1512C211.468 90.7906 211.439 91.4305 211.365 92.0661C211.509 91.8129 211.652 91.5597 211.808 91.2886C212.547 89.7147 213.141 88.3364 213.197 88.1595C213.254 87.9826 213.261 87.9344 213.295 87.8264C213.328 87.7184 213.316 87.5004 213.318 87.3402C212.765 88.3261 212.138 89.2687 211.442 90.16L211.451 90.1512ZM212.82 90.2148C212.605 90.7353 212.381 91.2585 212.139 91.7692C211.897 92.2799 211.657 92.9538 211.382 93.6602C211.567 93.4383 211.749 93.2133 211.919 92.982C212.389 91.9992 212.752 90.9685 213.001 89.9082C212.929 90.006 212.868 90.1163 212.81 90.2236L212.82 90.2148ZM209.141 71.0659C209.32 72.0716 209.493 73.0832 209.657 74.1036C211.542 77.7674 213.224 81.8946 213.619 85.9391C213.7 85.7749 213.774 85.6045 213.849 85.4401C214.198 83.2784 214.222 81.0773 213.919 78.9103C213.221 73.6179 211.539 68.381 209.809 63.3484C209.731 63.1165 210.099 63.0326 210.177 63.2584C212.4 69.6528 215.099 77.0245 214.471 83.9296C217.14 76.6222 215.974 68.248 213.174 60.6831C213.09 60.4571 213.465 60.3673 213.54 60.5961C216.545 68.7591 217.663 77.7731 214.262 85.4663C214.132 86.1825 213.965 86.8917 213.761 87.5909C218.093 78.7946 220.812 68.7729 216.862 60.1221C216.76 59.9016 217.082 59.7318 217.194 59.9434C221.343 69.0289 218.276 79.5493 213.645 88.6643C213.54 89.5324 213.346 90.3876 213.065 91.2163C215.268 87.3709 216.552 82.4428 217.95 79.0236C220.084 73.8035 222.306 68.6766 222.368 62.9539C222.368 62.9539 222.389 62.9333 222.402 62.9215C222.088 62.5336 221.745 62.1706 221.375 61.8358C220.042 60.6009 218.312 59.8797 216.494 59.8003C214.676 59.7209 212.887 60.2884 211.444 61.4022C208.215 63.9501 208.497 67.4563 209.132 71.0748L209.141 71.0659Z" fill="#C3937C"/>
<path d="M230.705 83.2728C237.662 79.1156 245.127 75.6764 252.495 72.3163C257.688 69.9446 267.509 67.6326 268.434 76.088C269.185 83.0752 261.584 86.913 255.57 86.1602C249.209 85.3831 243.205 81.8062 236.775 81.6049C236.69 81.5999 236.607 81.5792 236.529 81.5439C234.778 82.471 230.293 86.0893 228.594 87.1024C227.843 87.5361 229.973 83.713 230.705 83.2728ZM247.276 76.2114C245.408 77.1082 243.522 77.9984 241.663 78.9166C242.396 78.8032 243.143 78.8139 243.872 78.9482C244.099 78.8575 244.325 78.7667 244.555 78.6791C246.728 77.4667 249.006 76.4515 251.36 75.6457C253.303 74.4848 255.182 73.2073 257.061 71.9237C256.46 72.0788 255.868 72.2711 255.29 72.4995C252.581 73.6098 249.932 74.9576 247.276 76.2114ZM240.718 80.8147L241.021 80.8802C241.145 80.7989 241.268 80.7114 241.382 80.6389C241.376 80.6084 241.379 80.5768 241.39 80.5477C241.401 80.5186 241.42 80.4932 241.445 80.4742C241.41 80.4862 241.374 80.4963 241.338 80.5046C241.147 80.6084 240.938 80.7178 240.727 80.824L240.718 80.8147ZM255.737 84.5922C253.769 82.6045 251.047 80.0494 248.082 79.8797C247.54 79.8554 246.997 79.8774 246.459 79.9454C247.903 80.8216 249.112 82.0344 249.985 83.4805C251.871 83.9962 253.794 84.3678 255.737 84.5922ZM245.201 79.7305C244.971 79.6389 244.736 79.559 244.498 79.491C244.232 79.5898 243.965 79.6945 243.697 79.7842C243.292 79.979 242.921 80.1476 242.537 80.34C242.358 80.4562 242.17 80.5752 242.004 80.6796C242.991 80.3264 243.997 80.0301 245.018 79.7921C245.088 79.7668 245.146 79.7472 245.208 79.7246L245.201 79.7305ZM247.767 77.6396C248.27 77.3869 248.771 77.1251 249.271 76.8572C248.478 77.1768 247.697 77.5229 246.931 77.8956C247.212 77.8003 247.477 77.7257 247.773 77.6337L247.767 77.6396ZM258.038 71.7229C256.328 72.9112 254.609 74.0841 252.853 75.1865C257.121 73.9194 261.563 73.3434 266.01 73.4803C264.359 71.4799 261.058 71.1471 258.044 71.7171L258.038 71.7229ZM266.298 73.866C261.279 73.6768 256.266 74.4053 251.504 76.0154C250.802 76.4383 250.085 76.8456 249.363 77.2346C255.199 75.9106 261.267 76.0451 267.031 77.6261C267.236 76.3232 266.979 74.9909 266.304 73.8601L266.298 73.866ZM266.974 78.1145L266.987 78.003C261.451 76.4788 255.628 76.3021 250.003 77.4875C250.907 77.364 251.818 77.3094 252.73 77.3242C257.326 77.4253 261.946 79.1087 266.351 80.3084C266.649 79.6033 266.861 78.8645 266.981 78.1086L266.974 78.1145ZM266.198 80.6703C262.166 79.5651 257.99 78.1143 253.829 77.7647C251.256 77.5797 248.671 77.9247 246.233 78.7782C245.844 78.9523 245.449 79.1202 245.066 79.2944C245.298 79.3777 245.525 79.4726 245.747 79.5787C247.953 78.9207 250.256 78.5526 252.454 78.8833C256.136 79.4379 259.799 82.0089 262.963 83.8349C264.384 83.1922 265.529 82.0632 266.192 80.652L266.198 80.6703ZM262.511 83.9983C259.561 82.2869 256.235 80.1027 252.932 79.3949C251.205 79.0687 249.429 79.0986 247.713 79.4828C248.114 79.4852 248.515 79.5211 248.91 79.5903C251.668 80.1022 254.152 82.4483 256.046 84.3706C256.064 84.3867 256.078 84.4065 256.088 84.4287C256.097 84.4509 256.102 84.4749 256.101 84.4991C256.1 84.5232 256.094 84.5469 256.084 84.5685C256.073 84.5901 256.058 84.6093 256.039 84.6244C258.328 84.8396 260.626 84.7404 262.517 83.9924L262.511 83.9983ZM249.438 83.3329C248.54 81.9484 247.308 80.8125 245.855 80.0291C245.609 80.0739 245.353 80.1216 245.101 80.1542C244.142 80.4734 243.203 80.8264 242.312 81.2049C244.599 81.8161 246.868 82.6023 249.049 83.2137L249.438 83.3329ZM239.376 80.5673C239.999 80.4488 240.616 80.31 241.227 80.1509C241.872 79.8294 242.516 79.5199 243.186 79.2505C241.744 79.1384 240.305 79.5226 239.108 80.3394C239.076 80.3619 239.038 80.3713 238.999 80.3658C238.961 80.3602 238.927 80.3402 238.903 80.3098L238.624 80.4506C238.883 80.4756 239.133 80.5215 239.383 80.5614L239.376 80.5673Z" fill="#C3937C"/>
<path d="M236.812 36.6033C242.858 40.1178 243.13 48.8915 241.795 54.8071C239.332 65.7972 240.131 68.5491 238.386 72.8905C238.069 73.6773 234.867 75.9296 235.19 75.1187C236.167 72.5811 237.014 69.9956 237.728 67.3723C237.641 67.2848 237.584 67.1722 237.565 67.0505C236.1 58.1301 226.778 52.6022 226.174 43.5082C225.766 37.3829 231.252 33.3709 236.812 36.6033ZM233.005 47.9356C233.839 49.0916 234.592 50.3038 235.258 51.5638C235.788 52.5607 236.249 53.5648 236.708 54.6173C236.845 53.6533 237.015 52.6872 237.234 51.7283L237.228 51.4046C237.092 45.8339 236.841 39.4315 231.093 36.7354C230.692 36.87 230.312 37.0626 229.966 37.3072C232.527 40.2148 232.346 44.0172 232.974 47.6777L233.005 47.9356ZM237.465 62.2155L237.458 61.9462C237.183 61.4228 236.926 60.9079 236.686 60.4016C236.69 60.4803 236.682 60.5587 236.683 60.6343C236.961 61.1528 237.221 61.6768 237.465 62.2155ZM239.038 62.209C238.794 61.4526 238.547 60.693 238.291 59.9363C238.343 61.3498 238.456 62.7711 238.565 64.2013C238.729 63.5404 238.887 62.8763 239.038 62.209ZM238.179 64.067C238.053 62.6878 237.915 61.2961 237.866 59.8856L237.894 63.2551C237.995 63.5239 238.087 63.7954 238.179 64.067ZM237.435 61.0566L237.35 57.2653C237.224 56.9262 237.101 56.5903 236.975 56.2452C236.831 57.3325 236.742 58.4263 236.709 59.5222C236.936 60.0423 237.181 60.5508 237.435 61.0566ZM237.321 56.1759L237.275 54.2574C237.202 54.6789 237.123 55.1001 237.059 55.5248L237.321 56.1759ZM236.596 55.3401C235.786 53.3145 234.79 51.3686 233.621 49.5275C233.485 49.3212 233.343 49.1209 233.197 48.9235C233.884 52.2912 234.934 55.5737 236.328 58.7137C236.367 57.5838 236.456 56.4593 236.596 55.3401ZM231.638 36.6017C235.612 38.6609 237.038 42.7479 237.433 47.0918C237.52 48.0739 237.584 49.0644 237.64 50.0578C238.552 46.5924 239.611 43.0523 238.111 39.7707C236.374 37.7528 233.918 36.1906 231.638 36.6017ZM238.867 40.7827C239.444 42.7636 239.304 44.8646 238.836 47.0233C238.465 48.719 238.073 50.3596 237.722 51.9953C237.795 53.8419 237.828 55.6965 237.847 57.5476C237.872 56.6557 237.963 55.7667 238.118 54.8877C238.748 51.3543 240.351 48.1644 240.469 44.5508C240.375 44.1401 240.275 43.7232 240.145 43.3236C239.849 42.4172 239.418 41.5607 238.867 40.7827ZM240.734 46.0034C240.42 48.4686 239.563 50.7833 238.908 53.2183C238.45 55.0161 238.234 56.8663 238.266 58.72C238.59 59.6418 238.898 60.5663 239.201 61.4906L239.396 60.6249C240.412 55.9618 241.455 50.8337 240.734 46.0034ZM233.331 55.4014C232.985 53.7444 232.45 52.1331 231.736 50.5992C230.788 48.675 229.364 47.1371 227.837 45.6722C228.394 47.4469 229.175 49.1424 230.163 50.7176C231.162 52.3348 232.257 53.8729 233.331 55.4014ZM227.664 44.9781C231.144 48.3094 232.776 51.6308 233.88 56.181C234.741 57.4226 235.585 58.6818 236.315 59.9653C236.312 59.8503 236.316 59.7355 236.319 59.6207C235.092 56.9965 234.108 54.2647 233.38 51.4594C233.139 50.4692 232.955 49.4658 232.83 48.4541C231.07 46.2875 228.585 44.3949 227.402 41.9351C227.328 42.9574 227.416 43.9844 227.664 44.9781ZM228.445 38.951C227.988 39.6359 227.674 40.4065 227.523 41.2156C228.397 43.4857 230.56 44.901 232.07 46.7162C232.298 46.9945 232.514 47.2784 232.729 47.5623C232.275 43.9669 231.913 40.1078 229.668 37.5714C229.191 37.9627 228.774 38.4224 228.431 38.9355L228.445 38.951Z" fill="#C3937C"/>
<path d="M243.352 16.042C248.701 14.8085 251.332 20.9233 252.155 25.0336C253.425 31.4057 252.537 37.4753 251.258 43.7674C251.235 43.8743 251.184 43.9733 251.11 44.0538C251.6 46.0173 251.776 48.0722 251.13 49.9813C250.855 50.7875 248.663 52.7491 248.94 51.94C250.172 48.2896 249.131 41.7362 247.655 38.5248C245.856 34.6032 243.281 31.3383 241.112 27.673C239.002 24.103 237.865 17.2991 243.352 16.042ZM241.62 25.9054L242.036 26.6876C243.581 28.458 245.031 30.3084 246.382 32.2313C246.042 31.0429 245.702 29.8545 245.374 28.6725L245.106 27.5979C243.733 25.6653 242.209 23.8451 240.548 22.1544C240.536 22.1431 240.528 22.1297 240.522 22.115C240.516 22.1003 240.513 22.0846 240.514 22.0688C240.611 23.4105 240.99 24.7158 241.626 25.8996L241.62 25.9054ZM249.355 39.1567L249.386 39.1273C249.327 38.5481 249.265 37.9659 249.219 37.3871C248.664 36.4268 248.085 35.48 247.482 34.5467C247.707 35.3147 247.945 36.077 248.171 36.833C248.582 37.5717 248.974 38.3391 249.346 39.1353L249.355 39.1567ZM250.858 38.8398C250.834 38.8238 250.814 38.8026 250.799 38.7778C250.649 38.3323 250.483 37.9015 250.306 37.4462C250.255 37.6173 250.196 37.7911 250.146 37.9621L250.189 38.3503C250.384 38.7002 250.57 39.0529 250.759 39.4087L250.858 38.8398ZM244.455 17.3081C246.375 19.42 247.976 21.8028 249.204 24.3806C249.04 21.8391 248.279 19.5146 245.822 17.5895C245.383 17.4162 244.918 17.314 244.446 17.2868L244.455 17.3081ZM243.952 17.331C243.168 17.4199 242.442 17.7907 241.91 18.3744C245.695 21.5354 247.805 26.4087 249.017 31.497C249.028 30.9983 249.028 30.4994 249.051 29.995C249.126 28.3852 249.257 26.8163 249.234 25.3097C247.927 22.3667 246.143 19.6607 243.953 17.3008L243.952 17.331ZM249.593 34.2309L249.73 34.9996C249.915 35.4128 250.085 35.7983 250.249 36.2018C250.899 33.6125 251.137 30.9729 250.356 28.291C250.194 27.7394 249.999 27.1777 249.783 26.6126C249.766 29.1432 249.631 31.6797 249.584 34.2095L249.593 34.2309ZM249.712 37.4727L249.626 36.8142L249.658 37.3715L249.712 37.4727ZM249.95 36.4782L250.01 37.009C250.03 36.943 250.044 36.8768 250.062 36.8077C250.029 36.6859 249.993 36.567 249.945 36.4538L249.95 36.4782ZM250.654 40.0077L250.299 39.3451C250.357 39.9302 250.413 40.5063 250.457 41.0699L250.654 40.0077ZM249.863 38.8345L249.757 39.1462C249.78 39.4008 249.797 39.6552 249.822 39.913C249.826 39.9434 249.822 39.9743 249.812 40.003C249.801 40.0317 249.783 40.0573 249.76 40.0776C249.865 40.3193 249.96 40.5638 250.056 40.8083C249.995 40.1454 249.929 39.4794 249.858 38.8102L249.863 38.8345ZM246.708 33.3921C245.554 31.6922 244.329 30.0417 243.018 28.4495C244.398 30.7935 245.918 33.0112 247.304 35.3373C247.097 34.6634 246.892 34.0169 246.703 33.3678L246.708 33.3921ZM247.133 33.3429C247.834 34.3837 248.506 35.4469 249.147 36.5324C249.102 35.8115 249.062 35.0907 249.038 34.3674C248.124 32.3966 247.061 30.4982 245.86 28.6884C246.275 30.2175 246.695 31.7709 247.127 33.3186L247.133 33.3429ZM249.019 33.4687L249.014 33.2448C247.878 27.6323 245.764 22.0694 241.654 18.6579C241.567 18.7402 241.506 18.8686 241.433 18.9786C243.232 20.4386 244.127 22.3827 244.779 24.7103C245.036 25.6425 245.287 26.5806 245.537 27.5186C246.849 29.3981 248.011 31.3784 249.011 33.4413L249.019 33.4687ZM251.337 28.181C251.001 25.39 250.522 22.1295 248.805 19.8461C248.334 19.2268 247.766 18.6887 247.122 18.253C248.733 19.853 249.668 22.0106 249.736 24.2828C249.753 24.7369 249.761 25.1877 249.769 25.6384C250.128 26.4788 250.444 27.3371 250.716 28.2098C251.601 31.1092 251.251 33.9968 250.478 36.8188C250.641 37.2525 250.801 37.6892 250.954 38.1318C251.535 34.8383 251.662 31.4821 251.331 28.1567L251.337 28.181ZM240.86 20.0611C240.63 20.6653 240.521 21.3089 240.541 21.9546C240.549 21.9228 240.566 21.8938 240.589 21.8705C240.612 21.8472 240.641 21.8304 240.673 21.822C240.704 21.8136 240.738 21.8139 240.769 21.8227C240.801 21.8315 240.829 21.8486 240.852 21.8722C242.31 23.3665 243.661 24.9616 244.895 26.6458C244.223 23.8852 243.453 21.1582 241.218 19.3055C241.083 19.5423 240.962 19.7864 240.855 20.0367L240.86 20.0611Z" fill="#C3937C"/>
<path d="M254.16 54.0083C256.864 51.6218 259.642 48.5901 262.893 46.9257C265.855 45.423 272.983 44.0947 274.687 48.1831C276.527 52.6591 271.391 57.8506 267.308 58.4919C261.879 59.3423 256.276 57.642 250.785 58.8808C250.785 58.8808 250.742 58.8797 250.721 58.8821C249.145 60.331 247.563 61.8099 246.027 63.3204C245.405 63.9086 244.959 61.4927 245.575 60.8982C248.487 58.0273 251.075 56.7264 254.16 54.0083ZM253.41 57.0153C254.02 56.8299 254.635 56.6266 255.254 56.4052C255.684 55.9993 256.113 55.5934 256.542 55.1875C255.952 55.2952 255.372 55.4507 254.808 55.6524C254.327 56.0872 253.861 56.5414 253.41 57.0153ZM254.528 57.0511L254.57 57.0462L254.589 57.0285C254.589 57.0285 254.546 57.0456 254.528 57.0511ZM256.317 54.4074C256.048 54.6088 255.791 54.8228 255.533 55.0367C256.033 54.9007 256.541 54.7971 257.055 54.7264C257.474 54.3293 257.894 53.9323 258.325 53.5778C257.636 53.8047 256.965 54.0819 256.317 54.4074ZM259.005 52.982C259.402 52.6418 259.805 52.3018 260.208 51.9739C259.382 52.3906 258.58 52.8528 257.805 53.3584C258.205 53.2158 258.604 53.0903 259.005 52.982ZM257.692 54.6526C258.455 54.583 259.223 54.562 259.989 54.5898C261.626 53.9348 263.266 53.289 264.925 52.7193C262.992 52.6335 261.056 52.8378 259.182 53.3254C258.683 53.7567 258.183 54.2 257.692 54.6526ZM257.231 55.0879C256.877 55.4232 256.522 55.7585 256.168 56.0938C257.161 55.7422 258.128 55.3507 259.104 54.9624C258.472 54.9572 257.839 54.9919 257.211 55.0662L257.231 55.0879ZM266.369 47.0938C263.102 47.8324 260.745 50.0618 258.284 52.1827C257.533 52.828 256.789 53.4795 256.044 54.131C256.058 54.115 256.074 54.1002 256.09 54.0869C257.768 52.8044 259.604 51.7424 261.551 50.927C264.116 49.0418 266.915 47.5529 270.184 46.9232C268.912 46.7358 267.616 46.7916 266.363 47.0876L266.369 47.0938ZM270.923 47.1001C270.916 47.1281 270.902 47.1535 270.881 47.1734C270.86 47.1932 270.833 47.2066 270.805 47.2119C268.017 47.7002 265.365 48.7861 263.033 50.3949C266.346 49.2471 269.861 48.8079 273.35 49.1061C273.129 48.6043 272.795 48.1612 272.372 47.8119C271.95 47.4626 271.452 47.2168 270.917 47.0939L270.923 47.1001ZM273.601 50.2558C273.581 49.9955 273.535 49.738 273.463 49.4871C269.464 49.1209 265.434 49.7405 261.725 51.2915C261.082 51.7642 260.453 52.2646 259.833 52.7803C261.826 52.3661 263.866 52.2391 265.893 52.4033C268.343 51.5772 270.894 51.0926 273.474 50.9631C273.513 50.9629 273.551 50.978 273.579 51.0052C273.609 50.7544 273.614 50.5013 273.595 50.2496L273.601 50.2558ZM273.531 51.3093C273.512 51.327 273.496 51.3417 273.46 51.3407C271.227 51.4418 269.014 51.8228 266.873 52.4748C268.792 52.6909 270.69 53.0569 272.551 53.5694C273.037 52.8934 273.369 52.12 273.525 51.3031L273.531 51.3093ZM272.29 53.9041C270.208 53.3347 268.077 52.9581 265.924 52.7791C264.224 53.3236 262.547 53.9684 260.865 54.6252C263.756 54.8291 266.706 55.5064 269.355 55.9095C269.389 55.9146 269.421 55.9281 269.448 55.9486C269.475 55.9691 269.497 55.996 269.511 56.027C269.525 56.058 269.531 56.092 269.529 56.126C269.527 56.16 269.516 56.1929 269.498 56.2217C270.566 55.6319 271.512 54.8431 272.284 53.8979L272.29 53.9041ZM261.915 57.0693C263.453 57.1132 265.131 57.3544 266.659 57.2137C267.623 57.0911 268.553 56.7788 269.396 56.2946L269.374 56.3152C266.499 55.8788 263.219 55.084 260.071 54.9821C258.547 55.5947 257.02 56.2042 255.477 56.7528L255.166 57.0469C257.408 56.913 259.689 56.9949 261.921 57.0755L261.915 57.0693ZM252.683 57.2379C252.974 56.9221 253.27 56.6124 253.576 56.3121C253.236 56.6327 252.874 56.9345 252.526 57.2458L252.683 57.2379Z" fill="#C3937C"/>
<path d="M257.854 37.9646C260.212 33.1678 264.318 29.0617 268.595 25.9459C271.277 23.9973 276.1 20.7993 279.672 22.2218C284.512 24.1559 281.768 30.1641 278.638 32.1492C275.655 34.0354 271.88 34.4792 268.52 35.3C266.101 35.8397 263.738 36.6081 261.464 37.5949C261.352 37.7008 261.26 37.8284 261.166 37.9469C261.072 38.0653 260.929 37.989 260.881 37.8697C259.098 38.7507 256.665 42.5082 255.188 43.999C254.587 44.609 254.448 41.0037 255.046 40.3967C255.891 39.5447 256.819 38.7792 257.817 38.1117C257.823 38.0614 257.836 38.012 257.854 37.9646ZM280.019 24.6442C273.865 26.8499 268.291 30.4253 263.717 35.0997C266.69 33.4538 269.864 32.2025 273.159 31.3774C275.831 29.761 278.337 27.8838 280.639 25.7735C280.511 25.3705 280.303 24.9978 280.027 24.6777L280.019 24.6442ZM262.45 35.7221L262.686 35.6286C262.879 35.4463 263.051 35.2422 263.235 35.0566C262.968 35.2974 262.707 35.5203 262.446 35.7432L262.45 35.7221ZM279.734 24.3493C279.344 24.0064 278.886 23.7492 278.389 23.5938C276.4 24.942 274.442 26.3253 272.516 27.7437C274.815 26.406 277.23 25.277 279.73 24.3704L279.734 24.3493ZM264.998 34.8525C265.663 34.6545 266.337 34.4658 267.019 34.2864C267.218 34.2342 267.418 34.1912 267.623 34.1391C268.787 33.6258 269.972 33.1282 271.108 32.5294C271.36 32.397 271.606 32.2584 271.852 32.1258C269.484 32.8213 267.188 33.7414 264.994 34.8736L264.998 34.8525ZM260.245 36.6795C260.236 36.6508 260.236 36.6204 260.245 36.5917C260.253 36.5631 260.269 36.5373 260.292 36.5174C265.031 32.283 269.771 28.0496 274.512 23.8172C272.547 24.4998 270.571 25.8805 268.871 27.2595C266.364 30.1525 263.695 32.9003 260.875 35.4897C260.578 35.9172 260.297 36.3483 260.024 36.7885C260.081 36.787 260.152 36.7496 260.229 36.7123L260.245 36.6795ZM262.19 33.7526C263.771 32.2344 265.303 30.6664 266.786 29.0487C266.599 29.2252 266.422 29.3928 266.251 29.5546C264.785 30.866 263.418 32.2841 262.162 33.7973L262.19 33.7526ZM275.379 23.544L261.174 36.2355L261.373 36.1471C266.642 31.5944 272.168 27.3494 277.925 23.4333C277.603 23.3681 277.275 23.334 276.945 23.3316C276.405 23.3526 275.87 23.4388 275.35 23.5886L275.379 23.544ZM280.185 28.8882C280.719 28.0822 280.931 27.1055 280.779 26.1522C278.787 27.9663 276.645 29.6098 274.378 31.0651C275.839 30.7411 277.362 30.4823 278.937 30.2793C279.411 29.8963 279.822 29.442 280.156 28.9328L280.185 28.8882ZM274.66 32.3911C275.959 32.0235 277.199 31.4687 278.34 30.7442C276.66 30.9699 274.994 31.2879 273.349 31.697C273.082 31.8562 272.814 32.0154 272.543 32.1714C271.559 32.7259 270.547 33.213 269.526 33.6727C271.218 33.3367 272.949 32.9625 274.631 32.4357L274.66 32.3911Z" fill="#C3937C"/>
<path d="M264.357 14.5174C265.682 10.056 274.908 -5.27796 280.604 3.03832C282.805 6.24485 279.749 9.18146 277.047 10.5913C272.228 13.109 264.685 13.8366 262.121 19.4172C261.765 20.1939 260.639 19.5017 260.982 18.7307C261.747 17.1706 262.899 15.8313 264.326 14.8401C264.31 14.7317 264.32 14.6208 264.357 14.5174ZM274.915 2.85366C272.087 5.5272 269.387 8.28579 267.503 11.689C267.967 11.4225 268.445 11.1808 268.934 10.9651C269.526 10.4758 270.106 9.97415 270.692 9.4787C270.692 9.4787 270.696 9.43346 270.718 9.41287C272.817 7.50603 274.511 5.19696 275.699 2.62355C275.43 2.68899 275.168 2.76667 274.915 2.85366ZM267.487 12.1331C267.373 12.2057 267.262 12.2813 267.151 12.357L267.103 12.4434L267.487 12.1331ZM266.208 13.1665C266.348 13.0342 266.505 12.9265 266.657 12.8065C266.634 12.789 266.615 12.768 266.598 12.7445C266.499 12.8386 266.382 12.9081 266.261 13.0107L266.208 13.1665ZM266.56 12.2929C266.65 12.2076 266.767 12.1563 266.869 12.0894C268.633 8.65882 271.205 5.90895 273.956 3.2485C273.727 3.35991 273.504 3.48419 273.289 3.62081C270.246 5.62333 267.991 8.88968 266.557 12.2958L266.56 12.2929ZM276.165 2.51196C275.411 4.19972 274.444 5.7839 273.286 7.22532C275.009 5.70173 276.7 4.1501 278.362 2.55534C277.64 2.36897 276.884 2.35712 276.155 2.52079L276.165 2.51196ZM278.744 2.71066C276.04 5.32094 273.245 7.82295 270.373 10.2443C270.439 10.1826 270.524 10.1486 270.604 10.1023C273.669 8.30296 277.122 7.49976 279.928 5.24597C279.955 5.07319 279.965 4.89829 279.959 4.72365C279.955 4.30965 279.84 3.90458 279.624 3.55161C279.409 3.19864 279.102 2.91105 278.735 2.71949L278.744 2.71066ZM279.799 5.82619C277.725 7.37066 275.384 8.19137 273.045 9.2752C272.511 9.52107 272.002 9.79175 271.491 10.0745C273.446 9.52477 275.491 9.1891 277.435 8.79632C278.415 8.06943 279.423 7.0046 279.79 5.83502L279.799 5.82619ZM272.812 10.8233C274.053 10.4379 275.266 9.96484 276.44 9.40786L276.532 9.3559C274.331 9.70804 272.161 10.2337 270.042 10.928C268.881 11.6771 267.765 12.4946 266.701 13.3762C268.668 12.375 270.708 11.5246 272.803 10.8322L272.812 10.8233Z" fill="#C3937C"/>
<path d="M246.243 1.29247C249.005 -0.0794804 252.341 1.66643 254.185 3.73553C258.006 8.01331 257.568 14.3973 258.256 19.7166C258.974 20.9798 259.595 22.2952 260.116 23.6519C260.416 24.4371 259.242 25.0651 258.942 24.2799C258.426 22.9315 257.807 21.625 257.091 20.3721C257.067 20.3363 257.047 20.2983 257.031 20.2586C255.771 18.0933 254.256 16.0875 252.518 14.2841C250.406 12.0507 247.806 10.161 246.061 7.61075C244.63 5.55569 243.398 2.70757 246.243 1.29247ZM246.179 5.74208C248.94 7.91418 250.938 10.825 253.434 13.2834C253.451 13.302 253.46 13.3112 253.475 13.3267L253.489 13.3423C253.686 13.5501 253.879 13.7548 254.076 13.9627C251.832 10.3438 249.377 6.93088 245.869 4.43651C245.895 4.88666 246 5.32861 246.179 5.74208ZM255.528 15.7038C255.913 16.1858 256.277 16.6763 256.634 17.1787C256.542 17.0009 256.451 16.8291 256.365 16.6514C256.339 16.6409 256.316 16.6249 256.297 16.6045C256.277 16.5842 256.263 16.56 256.254 16.5336L256.138 16.1616C255.193 14.1164 254.488 11.9869 253.436 9.99637C251.821 6.9481 249.263 4.50536 246.143 3.03163C245.968 3.32511 245.865 3.65626 245.843 3.99735C250.138 6.97533 252.906 11.2795 255.543 15.7193L255.528 15.7038ZM256.339 13.7205C254.197 9.72328 253.13 5.59136 249.895 2.44504C249.56 2.35147 249.219 2.28176 248.873 2.23641C252.95 5.83154 254.841 10.8714 256.493 16.0138L256.598 16.2373C256.526 15.4008 256.45 14.5672 256.354 13.736L256.339 13.7205ZM248.24 2.17721C247.582 2.12304 246.927 2.3219 246.409 2.73328C248.979 3.956 251.185 5.82568 252.813 8.15934C253.232 8.79149 253.611 9.45004 253.946 10.1309C252.601 7.13162 250.894 4.37972 248.255 2.1927L248.24 2.17721ZM251.226 2.97335L251.059 2.89032C253.434 5.73255 254.526 9.23611 256.208 12.6344C256.023 11.2389 255.709 9.86385 255.27 8.52713C254.548 6.33066 253.332 4.16642 251.24 2.98887L251.226 2.97335ZM250.715 10.8886C249.457 9.35543 248.093 7.91254 246.632 6.57056C247.579 8.1017 249.214 9.59371 250.73 10.9041L250.715 10.8886Z" fill="#C3937C"/>
</svg>
