<svg width="486" height="531" viewBox="0 0 486 531" fill="none" xmlns="http://www.w3.org/2000/svg">
<g clip-path="url(#clip0_9_22690)">
<path d="M371.874 229.889C340.023 231.599 323.828 190.842 343.484 159.881C305.947 149.682 260.641 124.923 221.06 125.079C187.299 125.079 175.323 140.46 175.323 153.629C175.489 180.584 213.805 181.843 216.007 155.445C216.248 147.176 211.439 143.755 206.856 143.313C202.6 142.903 198.729 145.014 198.238 148.018C198.129 148.692 197.491 149.149 196.823 149.036C196.151 148.927 195.695 148.291 195.807 147.617C196.517 143.282 201.475 140.309 207.096 140.851C212.527 141.374 218.766 145.531 218.476 155.518C218.11 168.076 206.971 176.612 196.863 177.313C186.074 178.106 171.917 167.869 172.861 153.626C172.861 139.316 185.484 122.605 221.063 122.605C261.525 122.467 306.459 147.379 344.869 157.651C353.577 143.285 373.074 129.017 386.837 129.527C394.777 129.527 399.904 133.828 399.904 140.485C401.71 154.233 376.817 168.016 345.987 160.486C340.801 168.912 337.439 178.657 337.439 188.935C338.429 243.963 403.616 233.97 407.137 197.919C407.943 184.521 403.55 173.561 390.721 172.536C386.015 172.311 381.804 173.736 378.87 176.543C373.783 181.031 372.761 192.139 380.404 194.808C383.663 196.067 387.172 195.46 389.127 193.295C390.14 192.077 392.08 193.793 390.955 194.955C388.318 197.872 383.722 198.739 379.516 197.114C370.149 193.884 370.762 180.424 377.17 174.754C383.866 168.057 397.579 168.558 403.778 176.085C408.203 181.05 410.215 188.656 409.602 198.078C407.212 219.451 389.409 228.908 371.874 229.889ZM347.421 158.258C375.77 165.006 399.307 152.426 397.432 140.488C397.432 135.175 393.471 132.002 386.831 132.002C374.686 131.999 357.957 142.584 347.421 158.258Z" fill="#EFB867"/>
<path d="M251.633 141.6C251.608 146.935 243.519 146.935 243.497 141.6C243.522 136.265 251.611 136.265 251.633 141.6Z" fill="#CE7228"/>
<path d="M435.817 164.382C435.864 167.59 430.84 167.59 430.887 164.382C430.84 161.175 435.864 161.175 435.817 164.382Z" fill="#EFB867"/>
<path d="M368.259 205.17C368.237 210.342 360.391 210.342 360.369 205.17C360.391 199.995 368.237 199.995 368.259 205.17Z" fill="#EFB867"/>
<path d="M452.09 285.011C452.068 290.182 444.222 290.182 444.2 285.011C444.222 279.839 452.068 279.839 452.09 285.011Z" fill="#EFB867"/>
<path d="M299.713 127.181C299.738 128.945 296.976 128.945 297.001 127.181C296.976 125.415 299.738 125.415 299.713 127.181Z" fill="#EFB867"/>
<path d="M259.194 68.6794C259.063 76.3163 247.734 76.3132 247.606 68.6794C247.737 61.0424 259.066 61.0424 259.194 68.6794Z" fill="#EFB867"/>
<path d="M377.504 67.8554C377.485 72.219 370.865 72.219 370.846 67.8554C370.865 63.4888 377.485 63.4888 377.504 67.8554Z" fill="#CE7228"/>
<path d="M405.487 53.8879C405.519 56.1338 402.004 56.1338 402.035 53.8879C402.004 51.6419 405.522 51.6419 405.487 53.8879Z" fill="#EFB867"/>
<path d="M366.284 26.9423C366.322 29.5078 362.3 29.5078 362.338 26.9423C362.303 24.3768 366.322 24.3768 366.284 26.9423Z" fill="#EFB867"/>
<path d="M199.116 66.2485C199.097 70.4523 192.723 70.4523 192.705 66.2485C192.723 62.0448 199.097 62.0448 199.116 66.2485Z" fill="#EFB867"/>
<path d="M160.307 21.7424C160.341 24.1481 156.573 24.1481 156.607 21.7424C156.573 19.3367 160.341 19.3367 160.307 21.7424Z" fill="#EFB867"/>
<path d="M178.651 118.652C178.688 121.217 174.667 121.217 174.704 118.652C174.667 116.086 178.688 116.086 178.651 118.652Z" fill="#EFB867"/>
<path d="M63.3808 82.3149C63.3527 88.6174 53.7917 88.6174 53.7636 82.3149C53.7948 76.0124 63.3527 76.0124 63.3808 82.3149Z" fill="#EFB867"/>
<path d="M102.462 174.516C102.503 177.401 97.9818 177.404 98.0255 174.516C97.9818 171.631 102.503 171.631 102.462 174.516Z" fill="#EFB867"/>
<path d="M74.601 275.989C74.6447 279.037 69.8705 279.037 69.9173 275.989C69.8705 272.941 74.6447 272.941 74.601 275.989Z" fill="#EFB867"/>
<path d="M37.1224 314.058C37.0974 319.392 29.008 319.392 28.9861 314.058C29.0111 308.723 37.1005 308.723 37.1224 314.058Z" fill="#EFB867"/>
<path d="M131.311 264.988C131.342 267.234 127.827 267.234 127.858 264.988C127.824 262.745 131.342 262.745 131.311 264.988Z" fill="#EFB867"/>
<path d="M81.2562 380.181C81.2937 382.747 77.2724 382.747 77.3099 380.181C77.2756 377.616 81.2937 377.616 81.2562 380.181Z" fill="#EFB867"/>
<path d="M12.095 384.999C12.0794 388.717 6.43963 388.717 6.42401 384.999C6.44276 381.284 12.0794 381.284 12.095 384.999Z" fill="#EFB867"/>
<path d="M39.2189 367.698C39.2627 370.746 34.4884 370.746 34.5353 367.698C34.4884 364.65 39.2627 364.65 39.2189 367.698Z" fill="#EFB867"/>
<path d="M44.6431 495.741C44.5119 503.378 33.1824 503.375 33.0543 495.741C33.1855 488.107 44.515 488.107 44.6431 495.741Z" fill="#EFB867"/>
<path d="M121.694 522.439C121.675 526.48 115.548 526.48 115.529 522.439C115.548 518.398 121.675 518.398 121.694 522.439Z" fill="#CE7228"/>
<path d="M299.466 505.257C299.435 512.045 289.14 512.045 289.112 505.257C289.14 498.469 299.438 498.469 299.466 505.257Z" fill="#EFB867"/>
<path d="M335.629 529.196C335.664 531.601 331.896 531.601 331.93 529.196C331.896 526.79 335.664 526.79 335.629 529.196Z" fill="#EFB867"/>
<path d="M66.3398 32.8753C66.3741 35.281 62.606 35.281 62.6403 32.8753C62.606 30.4727 66.3741 30.4695 66.3398 32.8753Z" fill="#CE7228"/>
<path d="M468.734 412.561C468.768 414.967 465 414.967 465.035 412.561C465 410.156 468.768 410.156 468.734 412.561Z" fill="#EFB867"/>
<path d="M435.817 472.382C435.864 475.59 430.84 475.59 430.887 472.382C430.84 469.174 435.864 469.174 435.817 472.382Z" fill="#EFB867"/>
<path d="M325.603 420.471C325.481 427.619 314.873 427.619 314.755 420.471C314.876 413.323 325.481 413.326 325.603 420.471Z" fill="#EFB867"/>
<path d="M266.181 411.944C266.215 414.35 262.447 414.35 262.481 411.944C262.447 409.539 266.215 409.539 266.181 411.944Z" fill="#EFB867"/>
<path d="M421.516 509.461C421.488 515.927 411.68 515.927 411.655 509.461C411.683 502.996 421.488 502.996 421.516 509.461Z" fill="#CE7228"/>
<path d="M350.012 350.642C350.046 353.048 346.278 353.048 346.312 350.642C346.278 348.236 350.046 348.236 350.012 350.642Z" fill="#CE7228"/>
<path d="M403.1 163.455C401.71 163.465 401.429 161.46 402.716 161.043C409.302 158.879 416.339 151.311 416.339 136.566C416.339 124.519 406.115 109.668 377.307 107.466C366.253 106.623 354.008 108.919 343.55 112.493C336.532 123.667 328.171 132.181 322.431 133.91C316.785 135.485 314.214 130.502 316.898 125.869C320.063 120.468 329.921 114.589 341.938 110.419C349.284 98.5505 355.445 83.0855 355.445 67.6237C358.057 -8.56729 234.089 -24.5491 229.443 55.9459C229.446 67.8868 234.023 76.5888 242.338 80.4511C242.956 80.7393 243.225 81.4723 242.938 82.0926C242.65 82.7128 241.919 82.9822 241.3 82.694C232.064 78.4056 226.977 68.9049 226.977 55.9459C226.977 17.3006 259.441 0 291.611 0C349.265 1.00239 374.636 65.1302 345.497 109.257C375.28 98.0274 419.82 108.906 418.801 136.569C418.726 152.786 410.883 161.203 403.1 163.455ZM339.679 113.906C329.64 118.044 316.323 124.669 318.729 130.934C323.172 134.658 333.389 122.934 339.679 113.906Z" fill="#EFB867"/>
<path d="M404.419 105.47C395.127 99.9915 382.557 96.8809 370.565 98.7009C368.996 98.9452 368.628 96.4518 370.224 96.2513C382.379 94.5441 395.736 97.2036 405.084 103.19C406.119 103.807 405.606 105.514 404.419 105.47Z" fill="#EFB867"/>
<path d="M34.2447 350.517C-3.39636 349.417 -10.1047 298.132 14.6009 275.657C27.2177 262.801 46.2835 255.002 71.2702 252.471C78.3441 251.753 84.4401 250.287 89.5549 248.392C92.617 236.081 97.9505 220.902 108.468 224.924C111.242 226.415 112.461 229.134 111.82 232.388C110.492 239.646 100.4 246.901 91.7108 250.181C90.436 257.213 89.5955 265.01 91.4546 271.936C100.803 266.266 119.425 265.461 123.181 275.031C123.412 275.673 123.084 276.381 122.444 276.616C119.65 277.189 121.525 270.088 106.899 270.1C102.306 270.1 97.3256 271.792 92.1889 274.329C96.6632 287.087 108.693 295.313 119.722 295.313C132.929 295.313 149.064 282.956 149.064 268.534C149.064 267.851 149.618 267.296 150.299 267.296C150.98 267.296 151.533 267.851 151.533 268.534C151.533 275.864 147.693 283.382 140.994 289.164C123.793 304.78 98.5567 297.904 89.9861 275.463C79.0034 281.248 66.4897 291.254 55.6133 295.486C80.8844 308.373 67.1959 351.97 34.2447 350.517ZM89.0144 251.186C84.2964 252.821 78.4973 254.225 71.5171 254.93C20.4093 260.107 2.27464 287.686 2.27464 309.732C0.802991 357.565 64.7119 361.502 66.2179 315.994C66.2179 304.532 58.0567 298.985 52.1326 296.632C50.1672 297.161 48.2582 297.456 46.4085 297.456C39.7439 297.403 41.4155 292.507 46.4085 292.676C47.6614 292.676 49.8142 293.086 52.3044 294.016C63.6495 290.517 77.6099 279.04 89.2112 273.076C87.1959 266.175 87.8427 258.275 89.0144 251.186ZM105.252 226.559C98.1973 228.075 95.3165 236.758 92.3357 247.283C103.478 243.123 116.663 229.378 105.252 226.559Z" fill="#EFB867"/>
<path d="M399.279 368.911C362.966 368.228 355.683 320.298 375.167 301.534C396.286 279.826 426.394 297.362 408.674 322.133C417.826 320.727 426.212 325.595 434.989 330.823C435.876 315.737 430.69 301.205 426.194 289.581C424.135 284.146 422.141 278.884 420.829 273.709C420.188 273.718 419.538 273.721 418.882 273.721C405.722 273.696 391.196 266.761 377.789 266.798C369.002 266.914 359.285 269.909 361.175 277.615C366.09 283.93 379.07 279.682 384.297 270.695C385.109 269.314 387.253 270.611 386.406 271.976C381.094 280.776 372.436 283.369 366.643 282.928C359.569 282.642 356.167 276.785 359.769 271.275C367.159 260.803 387.681 264.587 399.391 267.92C406.812 269.771 413.483 271.435 420.263 271.24C414.97 251.193 429.115 231.627 445.188 232.686C450.18 232.686 454.289 234.553 457.064 238.083C468.924 258.779 451.727 273.38 423.366 273.643C428.812 292.554 439.138 309.911 437.37 332.233C445.247 336.897 453.433 341.37 462.691 341.37C476.967 341.429 484.863 327.985 483.163 314.067C479.613 290.953 454.014 292.131 451.337 311.142C451.137 312.733 448.643 312.373 448.896 310.791C448.968 310.277 450.805 298.145 461.348 294.95C466.281 293.453 471.458 294.258 475.93 297.215C498.801 314.039 481.382 363.939 437.098 334.942C434.945 355.272 419.498 368.66 399.279 368.911ZM396.436 294.098C356.814 295.924 356.539 368.51 401.691 366.342C408.249 366.214 433.983 360.328 434.245 333.254C424.328 327.343 414.958 321.764 404.869 325.714C403.553 326.268 402.525 324.326 403.722 323.546C413.117 317.165 416.876 294.53 396.436 294.098ZM445.184 235.161C433.902 235.161 421.76 243.747 421.76 262.598C421.76 265.423 422.138 268.286 422.772 271.193C443.447 270.567 455.22 264.816 457.792 254.071C459.945 244.943 455.33 234.891 445.184 235.161Z" fill="#EFB867"/>
<path d="M355.436 334.45C354.889 334.45 354.389 334.081 354.245 333.526C350.408 320.345 355.48 298.295 368.24 292.538C368.859 292.256 369.59 292.529 369.874 293.149C370.155 293.769 369.884 294.502 369.265 294.787C358.904 299.53 352.764 318.052 356.632 332.9C356.842 333.67 356.229 334.46 355.436 334.45Z" fill="#EFB867"/>
<path d="M389.955 236.15C388.437 236.179 388.315 233.788 389.849 233.682C397.473 233.012 403.188 229.531 407.328 223.041C407.693 222.465 408.456 222.299 409.031 222.665C409.606 223.032 409.771 223.796 409.406 224.372C404.875 231.48 398.307 235.464 389.955 236.15Z" fill="#EFB867"/>
<path d="M214.242 51.9739C213.589 51.9739 213.045 51.4633 213.011 50.8023C212.577 42.4543 215.442 34.3381 221.766 25.9901C222.713 24.7057 224.718 26.2156 223.731 27.4842C217.773 35.3499 215.073 42.9367 215.476 50.6739C215.514 51.3787 214.945 51.977 214.242 51.9739Z" fill="#EFB867"/>
<path d="M37.2036 151.117C31.9232 146.606 39.7439 127.667 49.183 119.316C49.683 118.849 50.461 118.877 50.9265 119.375C51.3921 119.873 51.364 120.656 50.8672 121.123C41.4592 129.929 36.8256 142.953 38.4035 149.597C38.5972 150.358 37.9879 151.126 37.2036 151.117Z" fill="#EFB867"/>
<path d="M14.5196 319.866C13.9635 319.866 13.4573 319.483 13.323 318.916C10.3828 306.581 13.1574 293.531 20.225 286.445C20.7062 285.963 21.4873 285.963 21.9685 286.445C22.4497 286.928 22.4497 287.711 21.9685 288.193C15.482 294.696 12.973 306.813 15.7195 318.343C15.9132 319.104 15.3039 319.875 14.5196 319.866Z" fill="#EFB867"/>
<path d="M8.6018 146.913C8.63929 149.478 4.61804 149.478 4.65553 146.913C4.62116 144.347 8.64242 144.347 8.6018 146.913Z" fill="#EFB867"/>
<path d="M10.4921 431.441C18.8315 429.044 19.222 422.357 20.8624 415.753C21.656 424.925 25.3117 429.07 30.7265 431.381C25.796 433.098 22.5621 437.355 21.3436 448.456C21.3217 448.644 21.053 448.644 21.0311 448.456C19.8563 436.71 16.6162 433.458 10.4921 431.441Z" fill="#EFB867"/>
<path d="M91.0391 135.677C96.4757 134.026 97.1288 128.115 98.1192 122.968C98.616 130.317 101.2 133.8 104.853 135.626C101.487 137.017 99.2784 140.466 98.4473 149.459C97.0788 141.472 95.9539 136.735 91.0484 135.924C90.9422 135.902 90.9328 135.714 91.0391 135.677Z" fill="#EFB867"/>
<path d="M422.422 201.925C427.859 200.274 428.512 194.363 429.502 189.217C429.999 196.565 432.583 200.049 436.236 201.875C432.871 203.266 430.662 206.715 429.831 215.708C428.462 207.72 427.337 202.984 422.432 202.172C422.322 202.147 422.316 201.963 422.422 201.925Z" fill="#CE7228"/>
<path d="M445.55 374.84C455.327 372.691 458.207 366.148 459.026 358.658C459.048 358.461 459.417 358.461 459.445 358.655C460.523 368.137 465.441 372.428 472.658 374.778C466.053 376.547 461.723 380.939 460.092 392.395C460.063 392.589 459.704 392.589 459.673 392.395C458.089 380.269 453.702 376.879 445.55 374.84Z" fill="#CE7228"/>
<path d="M7.36761 241.667C14.6665 240.063 16.8162 235.176 17.4254 229.585C17.4411 229.437 17.7191 229.437 17.7379 229.582C18.494 236.589 22.2747 239.916 27.602 241.617C22.6715 242.938 19.4376 246.218 18.2222 254.767C18.2003 254.911 17.9316 254.911 17.9097 254.767C16.7849 245.805 13.3792 243.129 7.36761 241.667Z" fill="#CE7228"/>
<path d="M126.605 44.3087C134.704 41.8153 135.454 33.6928 136.976 26.2814C137.757 36.8033 141.419 41.5709 146.84 44.2367C141.909 46.207 138.675 51.0999 137.457 63.8584C137.435 64.0746 137.166 64.0746 137.144 63.8584C135.979 50.3763 132.745 46.6487 126.605 44.3087Z" fill="#CE7228"/>
<path d="M241.522 505.405C249.621 502.911 250.371 494.789 251.892 487.377C252.674 497.899 256.335 502.667 261.756 505.332C256.826 507.303 253.592 512.196 252.374 524.954C252.352 525.17 252.083 525.17 252.061 524.954C250.896 511.469 247.659 507.744 241.522 505.405Z" fill="#CE7228"/>
<path d="M393.408 392.044C335.654 330.522 241.135 393.315 193.745 435.485C165.906 458.317 142.284 481.526 113.557 484.862C84.7994 488.126 62.0873 480.83 45.3711 461.519C44.4682 460.272 42.3529 461.942 43.5027 463.132C155.838 570.926 243.741 335.897 367.853 377.5C448.515 413.877 374.745 522.733 311.058 464.955C303.525 456.031 300.529 444.155 302.4 430.611C302.488 429.968 302.116 429.314 301.488 429.157C300.769 428.979 300.069 429.467 299.969 430.185C290.402 478.735 356.811 500.004 387.515 468.52C406.378 447.272 413.824 422.867 393.408 392.044Z" fill="#EFB867"/>
<path d="M184.156 509.048C150.546 507.049 184.256 449.462 240.366 460.181C271.699 418.504 324.656 366.317 370.33 406.081C387.643 426.319 379.979 457.077 357.539 460.26C345.29 461.826 334.317 454.756 333.005 442.542C330.677 429.251 343.069 417.348 355.673 419.917C357.223 420.22 356.77 422.67 355.189 422.341C344.159 420.192 333.386 430.545 335.451 442.232C340.497 468.774 378.579 460.363 377.211 430.686C377.211 424.728 375.067 395.007 332.749 395.007C297.139 395.007 268.471 429.812 243.175 460.642C286.412 469.209 306.29 500.772 355.448 500.969C395.989 503.907 426.219 466.565 424.553 433.023C424.45 431.444 427.031 431.341 427.018 432.96C428.774 467.771 397.242 506.511 355.417 503.441C305.29 503.35 285.459 471.092 241.369 462.844C220.853 487.844 202.987 509.048 184.156 509.048ZM225.959 461.582C198.144 460.977 168.452 482.488 174.536 502.232C191.998 518.921 219.769 485.188 238.526 462.421C234.576 461.895 230.277 461.591 225.959 461.582Z" fill="#EFB867"/>
<path d="M64.49 442.473C50.714 405.617 65.5836 365.468 79.9283 345.264C80.3282 344.709 81.0968 344.584 81.6499 344.985C69.8517 366.987 53.8917 401.131 65.6836 440.913C65.9054 441.681 65.2868 442.483 64.49 442.473Z" fill="#EFB867"/>
<path d="M191.736 287.119C191.808 291.673 198.719 291.595 198.685 287.037C198.613 282.483 191.702 282.561 191.736 287.119ZM295.239 244.163C295.311 248.718 302.222 248.639 302.188 244.082C302.116 239.527 295.204 239.605 295.239 244.163ZM224.287 264.574C219.372 266.789 214.458 269.004 209.543 271.215C207.899 271.954 209.355 274.363 210.986 273.627C212.733 272.841 214.483 272.051 216.229 271.265L216.388 285.13C216.42 287.717 220.428 287.673 220.397 285.083L220.219 269.539C221.881 268.584 223.937 267.863 225.731 266.983C227.374 266.247 225.918 263.838 224.287 264.574ZM252.698 252.499L252.773 259.108C249.533 259.337 246.59 260.712 244.397 262.889L244.34 258.09C244.309 255.503 240.3 255.547 240.332 258.137L240.51 273.68C240.541 276.268 244.55 276.224 244.519 273.633L244.45 267.575C246.056 264.377 249.115 262.269 252.805 261.94L252.877 268.042C252.908 270.629 256.917 270.585 256.885 267.995L256.707 252.452C256.676 249.864 252.667 249.908 252.698 252.499ZM283.65 256.608C280.55 257.075 277.573 257.899 274.686 259.045L274.626 253.789C276.895 251.882 279.66 250.929 282.613 250.92C284.419 250.914 284.387 248.101 282.581 248.107C279.679 248.116 276.982 248.912 274.589 250.394L274.526 244.943C277.335 243.718 280.26 242.873 283.291 242.353C285.065 242.049 284.281 239.345 282.513 239.649C280.235 240.141 270.252 242.199 270.518 244.906L270.699 260.449C270.714 261.811 272.324 263.077 273.57 262.566C277.029 260.938 280.663 259.879 284.437 259.312C286.206 259.045 285.415 256.342 283.65 256.608Z" fill="#EFB867"/>
<path d="M440.007 417.671C439.348 417.671 438.801 417.147 438.776 416.483C438.107 399.176 433.196 386.853 423.76 378.815C423.241 378.374 423.178 377.594 423.619 377.074C424.06 376.554 424.838 376.491 425.356 376.933C435.348 385.444 440.544 398.35 441.241 416.389C441.269 417.085 440.704 417.674 440.007 417.671Z" fill="#EFB867"/>
<path d="M181.197 526.831C162.137 526.683 151.217 508.568 156.035 492.737C156.26 492.095 156.963 491.753 157.607 491.979C158.251 492.204 158.588 492.909 158.363 493.554C152.142 521.844 182.619 534.602 206.412 513.922C207.643 512.916 209.218 514.905 207.93 515.873C197.21 524.253 188.212 526.831 181.197 526.831Z" fill="#EFB867"/>
<path d="M73.3074 101.802C72.2888 101.84 71.6202 100.414 72.442 99.6877C85.7055 86.5626 109.352 78.4339 135.695 77.9483C182.172 71.8839 280.757 117.107 301.547 82.4027C308.996 70.0013 302.6 50.4046 286.446 53.9098C280.529 55.1315 274.292 59.921 274.542 69.6943C274.561 70.3772 274.023 70.9441 273.342 70.9629C272.642 70.9849 272.096 70.4398 272.077 69.7601C271.786 58.4519 279.369 52.851 285.95 51.4915C303.966 47.4976 312.358 69.2432 303.684 83.6338C272.786 131.041 138.794 41.8059 73.3074 101.802Z" fill="#EFB867"/>
<path d="M313.839 200.97C313.124 201.026 312.592 201.64 312.649 202.342C313.399 211.946 308.19 220.839 302.835 223.567C304.437 223.423 306.018 223.31 307.618 223.245C312.23 218.9 315.942 210.618 315.239 202.135C315.179 201.436 314.545 200.913 313.839 200.97Z" fill="#EFB867"/>
<path d="M291.524 224.711C288.696 218.937 287.331 212.616 287.434 205.878C307.84 203.444 319.701 182.836 317.71 159.408C317.685 158.851 317.301 158.378 316.77 158.246C293.233 153.842 276.542 176.502 275.642 200.951C272.964 200.127 271.068 198.846 269.696 197.286C270.714 191.394 270.921 185.063 269.343 179.14C268.268 175.102 266.165 175.23 265.547 175.368C263.091 175.91 262.113 180.17 263.116 185.971C263.787 189.831 264.356 194.166 267.046 197.919C264.44 212.297 255.973 227.21 247.462 237.967C256.854 236.154 267.093 209.609 269.121 200.196C270.724 201.596 272.808 202.743 275.532 203.488C275.217 210.398 277.085 227.486 281.628 227.129C284.206 226.518 286.771 225.97 289.324 225.484C289.905 225.193 291.805 225.475 291.524 224.711ZM267.656 194.053C265.956 190.589 264.169 179.4 266.034 177.833C268.487 182.253 268.155 188.471 267.656 194.053ZM311.543 160.194C312.764 159.972 314.077 160.313 315.286 160.486C316.451 194.432 296.614 201.75 287.543 203.313C289.227 177.959 303.253 161.519 311.543 160.194Z" fill="#EFB867"/>
<path d="M251.224 169.654C253.255 163.308 255.273 162.18 256.154 161.497L254.798 160.508C240.622 162.472 232.48 187.155 229.883 203.422C223.734 230.903 217.023 246.726 212.33 252.903C220.282 251.077 223.559 234.161 228.04 220.761C227.612 235.283 233.223 240.636 236.232 242.459C238.098 241.685 239.972 240.921 241.856 240.169C238.079 230.878 244.978 189.157 251.224 169.654Z" fill="#EFB867"/>
<path d="M223.112 183.663L214.895 184.653C212.48 191.021 209.908 197.195 207.534 203.482C210.496 182.457 190.561 184.202 179.21 198.367C172.923 205.631 167.837 215.808 164.884 227.029C160.078 242.904 158.413 277.493 172.573 270.216C171.43 269.593 170.658 267.309 171.092 257.379C170.889 236.194 186.99 191.832 200.453 190.548C207.827 193.424 205.346 204.093 203.134 210.975C200.522 218.252 196.573 223.508 191.061 227.044C189.702 227.874 191.005 230.083 192.367 229.19C196.623 226.462 200.007 222.803 202.622 218.114C199.494 235.477 188.349 261.348 176.879 268.59C179.116 267.71 181.472 266.739 183.931 265.686C189.68 259.271 194.895 249.46 198.682 240.245C198.285 246.055 198.363 252.248 199.076 258.949C202.516 257.382 205.953 255.807 209.436 254.222C208.383 225.231 215.304 202.749 223.112 183.663Z" fill="#EFB867"/>
<path d="M321.775 37.0884C300.791 8.93377 243.856 21.1817 244.731 55.0186C244.74 56.66 247.331 56.4689 247.193 54.8964C248.087 35.7163 263.847 23.8412 289.33 23.8944C312.889 23.7629 332.546 46.4075 327.596 69.5564C295.161 157.713 154.548 63.3886 86.7304 104.593C76.1101 109.238 64.5619 118.16 55.9226 130.639C50.0579 139.113 44.9868 149.807 44.5556 159.668C15.8038 163.631 7.02079 203.977 30.564 220.56C56.8194 239.364 95.5884 225.606 122.812 200.788C134.179 235.408 154.404 284.838 126.381 294.298L129.246 296.065C139.447 293.252 148.693 284.725 151.898 275.497C160.694 259.315 146.243 224.012 135.626 196.594C132.758 198 129.005 199.237 124.656 199.237C124.656 199.237 129.021 194.99 133.214 190.3C133.198 190.257 133.179 190.213 133.164 190.166C148.468 172.433 157.585 151.289 153.998 132.547C152.723 130.89 150.833 129.994 148.371 129.872V129.859C148.296 129.859 148.221 129.863 148.146 129.863C147.721 129.85 147.28 129.856 146.824 129.891C146.771 129.894 146.721 129.906 146.668 129.919C127.277 131.191 116.516 154.055 116.52 173.034C116.22 178.72 118.55 187.525 121.869 197.872C86.5929 230.186 31.8513 243.972 19.3658 196.543C17.6567 181.229 28.5487 164.445 44.5244 162.183C44.7181 177.783 52.7825 189.909 66.1117 194.623C73.2731 197.157 80.4313 196.885 83.912 194.097C84.5026 193.624 84.9713 193.01 85.3462 192.352C95.3165 174.826 67.4146 156.921 47.0459 159.358C48.2863 150.603 52.0263 141.791 56.3601 134.906C111.077 47.9862 295.304 180.9 330.024 70.0325C332.799 58.5238 329.268 46.4012 321.775 37.0884ZM147.377 132.365C148.868 132.503 150.961 132.322 152.039 134.054C154.536 152.062 145.968 171.142 132.095 187.321C128.586 177.861 126.065 169.955 125.968 165.04C125.968 149.256 134.376 132.995 147.377 132.365ZM50.6828 161.663C67.8302 161.347 89.5674 175.59 84.0839 189.364C83.4715 190.902 82.2561 192.142 80.725 192.763C68.58 197.677 46.8428 186.231 46.9834 162.064C47.6426 161.407 49.5611 161.826 50.6828 161.663Z" fill="#EFB867"/>
<path d="M242.05 384.996C186.281 398.613 129.739 501.947 66.0148 459.157C36.5819 430.83 46.4178 368.416 76.8225 336.721C92.97 318.118 113.114 305.203 132.811 304.253C136.988 304.736 169.936 310.117 169.936 359.664C169.936 406.929 131.945 424.133 123.856 427.259C120.791 428.236 118.135 429.421 115.866 430.677C122.944 423.344 129.252 413.686 120.744 403.753C118.882 402.131 116.823 401.015 114.657 400.354C117.691 384.473 119.344 367.921 119.888 356.284C120.413 345.066 122.65 335.046 125.203 331.052C128.265 326.259 131.98 323.612 133.642 322.588C134.186 322.253 134.52 321.667 134.52 321.028C134.52 319.95 133.592 319.114 132.52 319.208C109.717 321.216 102.94 357.762 102.222 395.007C102.172 397.563 102.062 399.17 101.906 401.169C97.2131 403.036 92.8201 406.503 89.5768 411.105C82.6404 419.206 74.3854 445.559 88.8988 448.522C88.9581 448.535 89.0175 448.541 89.0738 448.547V448.566C101.316 448.566 109.364 426.774 114.192 402.776C119.407 404.414 122.512 408.987 122.278 413.952C122.497 425.533 106.205 432.631 104.609 440.575C104.599 441.183 104.968 441.543 105.431 441.668C105.931 441.907 106.559 441.856 106.943 441.271C107.008 441.174 113.817 431.422 129.83 428.274C162.287 421.893 183.262 394.315 183.262 358.013C183.222 289.59 113.208 286.658 74.9759 335.093C36.4288 373.841 29.3955 470.656 96.2883 471.847C147.624 473.331 196.235 399.794 242.65 387.392C244.244 387.029 243.537 384.598 242.05 384.996ZM100.694 413.827C98.1942 430.73 93.3231 440.964 90.9547 444.782C90.3298 445.788 89.5081 445.976 89.2362 446.01C74.4885 442.574 89.2706 402.51 107.793 402.171C108.077 402.177 108.365 402.184 108.652 402.184L100.694 413.827Z" fill="#EFB867"/>
<path d="M306.378 226.43C259.81 227.53 200.9 266.792 160.085 276.525C158.479 276.594 158.672 279.012 160.153 278.993C218.285 263.851 282.934 211.965 351.19 233.325C361.422 236.642 372.305 241.043 379.329 247.813C378.504 247.358 377.398 246.907 375.651 246.325C356.242 239.837 313.577 254.864 279.985 273.145C278.198 274.147 276.454 275.118 274.745 276.067C274.38 274.141 273.867 272.459 273.173 271.068C271.296 266.025 264.531 264.412 262.456 267.779C262.085 268.34 262.25 269.107 262.8 269.492C262.894 269.558 263.697 270.301 263.288 276.399C263.128 278.401 262.919 280.503 262.675 282.677C214.845 308.47 203.303 309.359 187.768 308.247C187.521 308.228 188.015 310.471 188.015 310.471C203.506 318.356 231.274 307.915 261.335 293.39C261.332 293.421 261.325 293.456 261.322 293.487L272.092 288.475L260.154 302.258C259.257 309.115 258.429 316.05 258.029 322.541C255.695 333.166 251.933 345.336 247.59 356.017C228.621 400.148 223.397 378.342 234.105 345.505C231.058 345.502 226.118 345.505 223.069 345.505C221.663 349.806 220.644 353.922 220.019 357.75C216.329 368.002 206.043 384.57 197.885 390.797C195.682 382.38 203.897 344.208 216.285 330.638C222.831 321.66 228.034 317.886 230.289 318.127C237.085 320.996 235.111 329.094 231.97 338.98C231.405 340.487 233.789 341.323 234.295 339.807C238.179 327.669 239.819 318.628 229.743 315.208C184.818 311.565 169.065 454.853 219.276 365.553C219.169 371.432 220.26 376.237 222.563 379.448C237.745 395.668 249.477 359.582 257.476 334.588C255.336 387.311 284.544 381.118 296.464 337.749C299.866 358.586 318.501 365.427 331.021 349.784C335.633 344.117 338.173 336.919 338.173 329.507C338.173 328.824 337.62 328.27 336.939 328.27C336.258 328.27 335.704 328.824 335.704 329.507C335.704 344.365 324.762 355.895 315.314 355.955C312.036 355.573 308.531 344.324 307.856 333.871C331.221 331.28 340.254 302.271 335.18 280.531C335.061 280.021 334.636 279.642 334.117 279.582C326.297 278.702 319.12 281.145 312.767 286.837C300.497 298.167 294.905 317.028 295.539 331.005C292.983 344.515 283.209 369.738 271.149 369.794C263.541 357.938 275.22 312.865 275.473 286.373C313.627 267.065 352.946 244.827 373.967 247.43C380.044 248.511 382.866 250.541 385.662 257.279C386.184 258.751 386.556 260.299 386.747 261.937C386.768 263.544 389.174 263.538 389.215 261.937C385.466 236.758 346.7 224.469 306.378 226.43ZM307.846 327.368C310.521 304.119 320.413 280.641 332.977 281.953C335.992 296.1 332.896 311.539 324.99 321.52C320.272 327.477 314.342 330.857 307.759 331.399C307.731 330.015 307.756 328.662 307.846 327.368Z" fill="#EFB867"/>
</g>
<defs>
<clipPath id="clip0_9_22690">
<rect width="486" height="531" fill="white"/>
</clipPath>
</defs>
</svg>
